/* XPM */
static char *_35b906bdf7c4cba92a040032a0aa05b[] = {
/* columns rows colors chars-per-pixel */
"110 29 188 2 ",
"   c #16212F",
".  c #172230",
"X  c #1A2533",
"o  c #1C2634",
"O  c #1C2735",
"+  c #1D2735",
"@  c #1E2937",
"#  c #1F2A38",
"$  c #222C39",
"%  c #242D3A",
"&  c #252E3B",
"*  c #242F3D",
"=  c #26303C",
"-  c #26313F",
";  c #28323E",
":  c #283341",
">  c #2B3440",
",  c #2A3442",
"<  c #2A3542",
"1  c #2D3642",
"2  c #2E3743",
"3  c #2C3745",
"4  c #2F3844",
"5  c #323B47",
"6  c #333C48",
"7  c #343D49",
"8  c #363F4B",
"9  c #37404C",
"0  c #39424D",
"q  c #394452",
"w  c #3C4550",
"e  c #3D4551",
"r  c #414954",
"t  c #424A55",
"y  c #424B56",
"u  c #424D5A",
"i  c #444D58",
"p  c #454D59",
"a  c #464E5A",
"s  c #474F5A",
"d  c #444E5C",
"f  c #47525F",
"g  c #48505B",
"h  c #4B535E",
"j  c #4D5661",
"k  c #4F5763",
"l  c #4D5765",
"z  c #515964",
"x  c #535B66",
"c  c #555D68",
"v  c #555E69",
"b  c #575F6A",
"n  c #59626D",
"m  c #5A626D",
"M  c #5B636E",
"N  c #586270",
"B  c #5C6570",
"V  c #5D6570",
"C  c #5F6772",
"Z  c #5F6873",
"A  c #616974",
"S  c #626B76",
"D  c #636B76",
"F  c #646C77",
"G  c #626D7A",
"H  c #656D78",
"J  c #676F7A",
"K  c #65707D",
"L  c #66717E",
"P  c #69717C",
"I  c #69727D",
"U  c #6B737E",
"Y  c #6B747F",
"T  c #6C757F",
"R  c #6B7582",
"E  c #6D7580",
"W  c #6E7681",
"Q  c #6E7782",
"!  c #6F7782",
"~  c #707984",
"^  c #717984",
"/  c #727B86",
"(  c #747D88",
")  c #757D88",
"_  c #767E89",
"`  c #767F8A",
"'  c #78808B",
"]  c #78818C",
"[  c #79818C",
"{  c #7A828D",
"}  c #78818F",
"|  c #7B838E",
" . c #7E8792",
".. c #7F8893",
"X. c #808994",
"o. c #818994",
"O. c #838B96",
"+. c #838C97",
"@. c #838D99",
"#. c #848D98",
"$. c #868E99",
"%. c #868F9A",
"&. c #87909B",
"*. c #89919D",
"=. c #89929D",
"-. c #8A939E",
";. c #8B939E",
":. c #8B949F",
">. c #8B95A1",
",. c #8C95A0",
"<. c #8F98A3",
"1. c #8E98A4",
"2. c #9099A4",
"3. c #9199A5",
"4. c #919AA5",
"5. c #929BA6",
"6. c #939CA7",
"7. c #949CA8",
"8. c #949DA8",
"9. c #959EA9",
"0. c #97A0AB",
"q. c #98A1AC",
"w. c #99A2AD",
"e. c #9AA3AE",
"r. c #9AA4AF",
"t. c #9CA5B0",
"y. c #9CA5B1",
"u. c #9DA6B2",
"i. c #9EA7B2",
"p. c #9EA8B3",
"a. c #A0A9B4",
"s. c #A0A9B5",
"d. c #A1AAB5",
"f. c #A2ACB7",
"g. c #A3ACB8",
"h. c #A3ADBA",
"j. c #A4ADB8",
"k. c #A4ADB9",
"l. c #A5AEB9",
"z. c #A5AEBA",
"x. c #A6AFBA",
"c. c #A7B1BC",
"v. c #A8B1BD",
"b. c #A9B2BD",
"n. c #A9B2BE",
"m. c #AAB3BE",
"M. c #AAB4BF",
"N. c #ABB4C0",
"B. c #ABB5C0",
"V. c #ACB6C1",
"C. c #ACB6C2",
"Z. c #ADB6C2",
"A. c #ADB7C2",
"S. c #AEB7C3",
"D. c #B0BAC5",
"F. c #B1BBC6",
"G. c #B1BBC7",
"H. c #B2BBC7",
"J. c #B2BCC7",
"K. c #B3BCC8",
"L. c #B3BDC8",
"P. c #B4BDC9",
"I. c #B4BECA",
"U. c #B5BECA",
"Y. c #B6C0CB",
"T. c #B7C1CC",
"R. c #B8C1CD",
"E. c #B9C3CE",
"W. c #BAC4D0",
"Q. c #BBC4D0",
"!. c #BCC5D1",
"~. c #BCC6D2",
"^. c #BDC7D3",
"/. c #BEC8D3",
"(. c #BEC8D4",
"). c #BFC9D4",
"_. c #BFC9D5",
"`. c #C0CAD6",
"'. c #C1CBD7",
"]. c #C2CCD8",
"[. c #C2CCD9",
"{. c #C3CDD9",
"}. c #C4CEDA",
"|. c #C5CFDB",
" X c #C6D0DC",
".X c #C7D1DD",
"XX c #C8D2DE",
"oX c #C9D3DF",
/* pixels */
"                                                                                .                                                                                                                                           ",
"      O u G L L L L L L L L L L L L L L L L L L L L L L L L L L L L L L L L L L L L L L L L L L L L L L L L L L L L L L L L L L L L L L L L L L L L L L L L L L L L L L L L L L L L L L L L L L L L L L L L L L L k -       ",
"    q [.oXoXoXoXoXoXoXoXoXoXoXoXoXoXoXoXoXoXoXoXoXoXoXoXoXoXoXoXoXoXoXoXoXoXoXoXoXoXoXoXoXoXoXoXoXoXoXoXoXoXoXoXoXoXoXoXoXoXoXoXoXoXoXoXoXoXoXoXoXoXoXoXoXoXoXoXoXoXoXoXoXoXoXoXoXoXoXoXoXoXoXoXoXoXoXoXoXoXoXoXoXoXoXR     ",
"  #  XoXoXoXoXoXoXoXoXoXoXoXoXoXoXoXoXoXoXoXoXoXoXoXoXoXoXoXoXoXoXoXoXoXoXoXoXoXoXoXoXoXoXoXoXoXoXoXoXoXoXoXoXoXoXoXoXoXoXoXoXoXoXoXoXoXoXoXoXoXoXoXoXoXoXoXoXoXoXoXoXoXoXoXoXoXoXoXoXoXoXoXoXoXoXoXoXoXoXoXoXoXoXoXoXoXp   ",
"  N oXoXoXoXoXoXoXoXoXoXoXoXoXoXoXoXoXoXoXoXoXoXoXoXoXoXoXoXoXoXoXoXoXoXoXoXoXoXoXoXoXoXoXoXoXoXoXoXoXoXoXoXoXoXoXoXoXoXoXoXoXoXoXoXoXoXoXoXoXoXoXoXoXoXoXoXoXoXoXoXoXoXoXoXoXoXoXoXoXoXoXoXoXoXoXoXoXoXoXoXoXoXoXoXoXoXh.. ",
"  @.oXoXoXoXoXoXoXoXoXoXoXoXoXoXoXoXoXoXoXoXoXoXoXoXoXoXoXoXoXoXoXoXoXoXoXoXoXoXoXoXoXoXoXoXoXoXoXoXoXoXoXoXoXoXoXoXoXoXoXoXoXoXoXoXoXoXoXoXoXoXoXoXoXoXoXoXoXoXoXoXoXoXoXoXoXoXoXoXoXoXoXoXoXoXoXoXoXoXoXoXoXoXoXoXoXoXoX. ",
"  >.oXoXoXoXoXoXoXoXoXoXoXoXoXoXoXoXoXoXoXoXoXoXoXoXoXoXoXoXoXoXoXoXoXoXoXoXoXoXoXoXoXoXoXoXoXoXoXoXoXoXoXoXoXoXoXoXoXoXoXoXoXoXoXoXoXoXoXoXoXoXoXoXoXoXoXoXoXoXoXoXoXoXoXoXoXoXoXoXoXoXoXoXoXoXoXoXoXoXoXoXoXoXoXoXoXoX.X. ",
"  >.oXoXoXoXoXoXoXoXoXoXoXoXoXoXoXoXoXoXoXoXoXoXoXoXoXoXoXoXoXoXoXoXoXoXoXoXoXoXoXoXoXoXoXoXoXoXoXoXoXoXoXoXoXoXoXoXoXoXoXoXoXoXoXoXoXoXoXoXoXoXoXoXoXoXoXoXoXoXoXoXoXoXoXoXoXoXoXoXoXoXoXoXoXoXoXoXoXoXoXoXoXoXoXoXoXoXoX. ",
"  >.oXoXoXoXoXoXoXoXoXoXoXoXoXoXoXoXoXoXoXoXoXoXoXoXoXoXoXoXoXoXoXoXoXoXoXoXoXoXoXoXoXoXoXoXoXoXoXoXoXoXoXoXoXoXoXoXoXoXoXoXoXoXoXoXoXoXoXoXoXoXoXoXoXoXoXoXoXoXoXoXoXoXoXoXoXoXoXoXoXoXoXoXoXoXoXoXoXoXoXoXoXoXoXoXoXoXoX. ",
"  >.oXoXoXoXoXoXoXoXoXoXoXoXoXoXoXoXoXoXm.O.oXoXoXoXo.F.oXoXoX=.`.2.| | | | | | .X&.U.oXoXoXu.2.oXoXoX`.} |.oXoXoXE.$.oXoXoXoX .C.oXoXoX`.<.S _ G.oXp.i.oXC.$.oXoXoXP.8.oXoX.X8.U A [ d.oXoXoXoXoXoXoXoXoXoXoXoXoXoXoXoXoX. ",
"  >.oXoXoXoXoXoXoXoXoXoXoXoXoXoXoXoXoXoXm . C.oXoXoX; s |.oXoXi E.N.a.a.& ;.s.s.oXe x.oXoX X0 O `.oXoX~.. |.oXoXoXm.7 oXoXoXl.. H oXoXoX| ! G.w.C.oX' ' oX6.  2.oXoXl.A oX.XV M m.F.5.2.oXoXoXoXoXoXoXoXoXoXoXoXoXoXoXoXoX. ",
"  >.oXoXoXoXoXoXoXoXoXoXoXoXoXoXoXoXoXE.7 H ^ oXoXoX; p O.oXoXi U.oXoXoX1 S.oXoXoXe x.oXoXl.x h ;.oXoX~.  |.oXoXoXm.8 oXoXoXJ ` o ^.oXoXp d.oXoXoXoX' ` oX9.p - E.oXl.A oXw.o `.oXoXoXoXoXoXoXoXoXoXoXoXoXoXoXoXoXoXoXoXoX. ",
"  >.oXoXoXoXoXoXoXoXoXoXoXoXoXoXoXoXoX . .c.& |.oXoX; C.$ F.oXi E.oXoXoX2 S.oXoXoXe x.oXoXF 9.2.i oXoXQ.  |.oXoXoXm.8 oXoX(.2 |.z &.oXoX,., r..XoXoX' ' oX9.` W A oXl.A oX! n .XoXoXoXoXoXoXoXoXoXoXoXoXoXoXoXoXoXoXoXoXoX. ",
"  >.oXoXoXoXoXoXoXoXoXoXoXoXoXoXoXoX X7 T.oXr 8.oXoX; |.X.j oXy E.oXoXoX2 S.oXoXoXe l.oX~.4 |.].& M.oX~.  |.oXoXoXm.8 oXoX=.^ oX8.t oXoXoXr.2 S [.oX' ' oX5.^ ].5 w.l.A oXA } oXoXoX.X XoXoXoXoXoXoXoXoXoXoXoXoXoXoXoXoXoX. ",
"  >.oXoXoXoXoXoXoXoXoXoXoXoXoXoXoXoXi.= U U r z oXoX;  X|.y =.i U.oXoXoX1 S.oXoXoXe l.oX$.8 E Y 5 W oXQ.. |.oXoXoXm.0 oXoXr c E H   M.oXoXoX^.l ~ oX' ' oX9.( oXu.2 0.A oX_ h oXoXoX2.V oXoXoXoXoXoXoXoXoXoXoXoXoXoXoXoXoX. ",
"  >.oXoXoXoXoXoXoXoXoXoXoXoXoXoXoXoXV ;.A.A.c.O K.oX;  XoXM.& 2 E.oXoXoX1 S.oXoXoXe x.oXe u.C.C.w.& ].~.. |.oXoX Xm.7 oXm.s C.C.A.I U oXoXoXoX6.v .X' ' oX7.( oXoXJ 9 A oXa.  E.oXoX2.V oXoXoXoXoXoXoXoXoXoXoXoXoXoXoXoXoX. ",
"  >.oXoXoXoXoXoXoXoXoXoXoXoXoXoXoXE.5 |.oXoXoXH } oX;  XoXoX_   U.oXoXoX2 S.oXoXoXe l.l.k oXoXoXoXp 5.~.  ;.;.,.x.m.8 oXU 2.oXoXoXC.$ ].C =.w.g u.oX` ` oX9.` oXoX~.2 A oXoXW e 2.g.Y V oXoXoXoXoXoXoXoXoXoXoXoXoXoXoXoXoX. ",
"  >.oXoXoXoXoXoXoXoXoXoXoXoXoXoXoXP.l.oXoXoXoXP.r.oX8..XoXoX|.2.[.oXoXoX9.(.oXoXoXw.!.N.S.oXoXoXoXm.l.].3.3.2.2.x.!.q.oX9.[.oXoXoXoX9.E.u.o.$.P.oXoXN.m.oXP.c.oXoXoXC.g.oXoXoXl.O.} 5.H.oXoXoXoXoXoXoXoXoXoXoXoXoXoXoXoXoX. ",
"  >.oXoXoXoXoXoXoXoXoXoXoXoXoXoXoXoXoXoXoXoXoXoXoXoXoXoXoXoXoXoXoXoXoXoXoXoXoXoXoXoXoXoXoXoXoXoXoXoXoXoXoXoXoXoXoXoXoXoXoXoXoXoXoXoXoXoXoXoXoXoXoXoXoXoXoXoXoXoXoXoXoXoXoXoXoXoXoXoXoXoXoXoXoXoXoXoXoXoXoXoXoXoXoXoXoXoXoX. ",
"  >.oXoXoXoXoXoXoXoXoXoXoXoXoXoXoXoXoXoXoXoXoXoXoXoXoXoXoXoXoXoXoXoXoXoXoXoXoXoXoXoXoXoXoXoXoXoXoXoXoXoXoXoXoXoXoXoXoXoXoXoXoXoXoXoXoXoXoXoXoXoXoXoXoXoXoXoXoXoXoXoXoXoXoXoXoXoXoXoXoXoXoXoXoXoXoXoXoXoXoXoXoXoXoXoXoXoXoX. ",
"  >.oXoXoXoXoXoXoXoXoXoXoXoXoXoXoXoXoXoXoXoXoXoXoXoXoXoXoXoXoXoXoXoXoXoXoXoXoXoXoXoXoXoXoXoXoXoXoXoXoXoXoXoXoXoXoXoXoXoXoXoXoXoXoXoXoXoXoXoXoXoXoXoXoXoXoXoXoXoXoXoXoXoXoXoXoXoXoXoXoXoXoXoXoXoXoXoXoXoXoXoXoXoXoXoXoXoX.X. ",
"  >.oXoXoXoXoXoXoXoXoXoXoXoXoXoXoXoXoXoXoXoXoXoXoXoXoXoXoXoXoXoXoXoXoXoXoXoXoXoXoXoXoXoXoXoXoXoXoXoXoXoXoXoXoXoXoXoXoXoXoXoXoXoXoXoXoXoXoXoXoXoXoXoXoXoXoXoXoXoXoXoXoXoXoXoXoXoXoXoXoXoXoXoXoXoXoXoXoXoXoXoXoXoXoXoXoXoXoX. ",
"  } oXoXoXoXoXoXoXoXoXoXoXoXoXoXoXoXoXoXoXoXoXoXoXoXoXoXoXoXoXoXoXoXoXoXoXoXoXoXoXoXoXoXoXoXoXoXoXoXoXoXoXoXoXoXoXoXoXoXoXoXoXoXoXoXoXoXoXoXoXoXoXoXoXoXoXoXoXoXoXoXoXoXoXoXoXoXoXoXoXoXoXoXoXoXoXoXoXoXoXoXoXoXoXoXoXoX[.. ",
"  f oXoXoXoXoXoXoXoXoXoXoXoXoXoXoXoXoXoXoXoXoXoXoXoXoXoXoXoXoXoXoXoXoXoXoXoXoXoXoXoXoXoXoXoXoXoXoXoXoXoXoXoXoXoXoXoXoXoXoXoXoXoXoXoXoXoXoXoXoXoXoXoXoXoXoXoXoXoXoXoXoXoXoXoXoXoXoXoXoXoXoXoXoXoXoXoXoXoXoXoXoXoXoXoXoX.X>.. ",
"  . C.oXoXoXoXoXoXoXoXoXoXoXoXoXoXoXoXoXoXoXoXoXoXoXoXoXoXoXoXoXoXoXoXoXoXoXoXoXoXoXoXoXoXoXoXoXoXoXoXoXoXoXoXoXoXoXoXoXoXoXoXoXoXoXoXoXoXoXoXoXoXoXoXoXoXoXoXoXoXoXoXoXoXoXoXoXoXoXoXoXoXoXoXoXoXoXoXoXoXoXoXoXoXoXoXoX*   ",
"    O 1.oXoXoXoXoXoXoXoXoXoXoXoXoXoXoXoXoXoXoXoXoXoXoXoXoXoXoXoXoXoXoXoXoXoXoXoXoXoXoXoXoXoXoXoXoXoXoXoXoXoXoXoXoXoXoXoXoXoXoXoXoXoXoXoXoXoXoXoXoXoXoXoXoXoXoXoXoXoXoXoXoXoXoXoXoXoXoXoXoXoXoXoXoXoXoXoXoX.XoXoXoXoXJ.3     ",
"        X : , , , , , , , , , , , , , , , , , , , , , , , , , , 1 : , : , : , , , , , , , , , , , , , , , , , , , 1 : , , , , , , , , , , , , , , , , , , , : , : : 1 : 1 : 1 : , , : 1 , , , , , , , , , , , , , @ . .     ",
"                                                                    .   .     .                                 .                                               . .                                 . .                     ",
"                                                                                                                                                                                                                            "
};
