/* XPM */
static char *_620289dd3e14e8afd8f30ff1860ff81[] = {
/* columns rows colors chars-per-pixel */
"110 29 208 2 ",
"   c #16212F",
".  c #172230",
"X  c #182230",
"o  c #182331",
"O  c #192432",
"+  c #1A2432",
"@  c #1A2533",
"#  c #1B2533",
"$  c #1B2634",
"%  c #1C2735",
"&  c #1D2735",
"*  c #1E2937",
"=  c #1F2937",
"-  c #202B39",
";  c #212B39",
":  c #212C3A",
">  c #222D3A",
",  c #232E3C",
"<  c #242E3C",
"1  c #242F3D",
"2  c #252F3D",
"3  c #25303E",
"4  c #26303E",
"5  c #26313F",
"6  c #273140",
"7  c #283240",
"8  c #293341",
"9  c #293442",
"0  c #2A3542",
"q  c #2B3543",
"w  c #2C3745",
"e  c #2D3746",
"r  c #2E3847",
"t  c #2F3A48",
"y  c #303A48",
"u  c #303B49",
"i  c #313B4A",
"p  c #313C49",
"a  c #313C4A",
"s  c #323C4B",
"d  c #323D4B",
"f  c #333D4C",
"g  c #343E4D",
"h  c #36404F",
"j  c #36414F",
"k  c #364150",
"l  c #374250",
"z  c #374251",
"x  c #384352",
"c  c #394452",
"v  c #394453",
"b  c #3A4553",
"n  c #3A4554",
"m  c #3B4655",
"M  c #3C4754",
"N  c #3C4756",
"B  c #3D4857",
"V  c #3F4957",
"C  c #3E4958",
"Z  c #3F4A59",
"A  c #404B58",
"S  c #404B5A",
"D  c #414C5C",
"F  c #424D5C",
"G  c #424D5D",
"H  c #434E5E",
"J  c #444F5E",
"K  c #444F5F",
"L  c #455060",
"P  c #455160",
"I  c #465261",
"U  c #475262",
"Y  c #485360",
"T  c #485363",
"R  c #495461",
"E  c #4B5563",
"W  c #495464",
"Q  c #4A5666",
"!  c #4B5666",
"~  c #4B5767",
"^  c #4C5764",
"/  c #4C5767",
"(  c #4F5A67",
")  c #4C5868",
"_  c #4D5969",
"`  c #4E5969",
"'  c #4E5A6A",
"]  c #515C69",
"[  c #525C6A",
"{  c #525D6A",
"}  c #515C6D",
"|  c #515D6D",
" . c #515D6E",
".. c #525E6E",
"X. c #525E6F",
"o. c #535E6F",
"O. c #535F70",
"+. c #55606D",
"@. c #56616E",
"#. c #546071",
"$. c #556171",
"%. c #556172",
"&. c #566273",
"*. c #576374",
"=. c #596471",
"-. c #586475",
";. c #596576",
":. c #5A6677",
">. c #5C6879",
",. c #5C697A",
"<. c #5D697B",
"1. c #5D6A7B",
"2. c #5E6A7C",
"3. c #5E6B7C",
"4. c #5F6B7D",
"5. c #5F6C7D",
"6. c #5E6C7E",
"7. c #616D7F",
"8. c #656F7C",
"9. c #65707D",
"0. c #616E80",
"q. c #626E80",
"w. c #626F81",
"e. c #646F82",
"r. c #637081",
"t. c #637082",
"y. c #647083",
"u. c #647183",
"i. c #657283",
"p. c #657284",
"a. c #657285",
"s. c #677486",
"d. c #6A7582",
"f. c #687587",
"g. c #6F7A87",
"h. c #677488",
"j. c #687589",
"k. c #697688",
"l. c #6A768A",
"z. c #6A778A",
"x. c #6B788B",
"c. c #6B798C",
"v. c #6C798C",
"b. c #6D7A8C",
"n. c #6C7A8D",
"m. c #6D7A8E",
"M. c #6E7C8E",
"N. c #6F7D8F",
"B. c #717B88",
"V. c #747F8B",
"C. c #6F7D90",
"Z. c #6F7E91",
"A. c #717F92",
"S. c #727F94",
"D. c #76818E",
"F. c #728093",
"G. c #738194",
"H. c #748395",
"J. c #758397",
"K. c #768396",
"L. c #758497",
"P. c #798390",
"I. c #7D8894",
"U. c #768498",
"Y. c #778498",
"T. c #778599",
"R. c #788599",
"E. c #79869A",
"W. c #78889C",
"Q. c #7A889C",
"!. c #7B889C",
"~. c #7A8A9E",
"^. c #7B8B9E",
"/. c #7C8A9F",
"(. c #7D8B9F",
"). c #7D8C9F",
"_. c #7E8BA1",
"`. c #7D8DA0",
"'. c #7F8DA1",
"]. c #7F8EA2",
"[. c #7F8EA4",
"{. c #838D9A",
"}. c #808FA3",
"|. c #818FA3",
" X c #8090A5",
".X c #8291A6",
"XX c #8B96A2",
"oX c #8D98A4",
"OX c #8E98A5",
"+X c #8F99A6",
"@X c #8493A8",
"#X c #929CA8",
"$X c #929DA9",
"%X c #959FAC",
"&X c #9AA4B1",
"*X c #A2ACB8",
"=X c #A7B1BD",
"-X c #A7B1BE",
";X c #A9B3BF",
":X c #A9B4C0",
">X c #B3BDC9",
",X c #B5BFCC",
"<X c #B8C2CE",
"1X c #BAC4D0",
"2X c #BAC4D1",
"3X c #BCC6D2",
"4X c #C0CAD6",
"5X c #C3CDD9",
/* pixels */
"                                                                                                                                                                                                                            ",
"      j g.XXOXOXOXOXOXOXOXOXOXOXOXOXOXOXOXOXOXOXOXOXOXOXOXOXOXOXOXOXOXOXOXOXOXOXOXOXOXOXOXOXOXOXOXOXOXOXOXOXOXOXOXOXOXOXOXOXOXOXOXOXOXOXOXOXOXOXOXOXOXOXOXOXOXOXOXOXOXOXOXOXOXOXOXOXOXOXOXOXOXOXOXOXOXOXOXOXOXOXOXP.~       ",
"    9.2XD.@.[ [ [ [ [ [ [ [ [ [ [ [ [ [ [ [ [ [ [ [ [ [ [ [ [ [ [ [ [ [ [ [ [ [ [ [ [ [ [ [ [ [ [ [ [ [ [ [ [ [ [ [ [ [ [ [ [ [ [ [ [ [ [ [ [ [ [ [ [ [ [ [ [ [ [ [ [ [ [ [ [ [ [ [ [ } [ [ [ [ [ [ [ [ [ [ [ [ [ d.:X#Xo   ",
"  V <X0                                                                                                                                                                                                             # %XB.  ",
"  {.8.                                                                                                                                                                                                                d ,X  ",
"  *XA                                                                                                                                                                                                                 X 4X- ",
"  =Xc                                                                                                                                                                                                                   1X5 ",
"  =Xc                                                                                       . .                                                                                                                         1X5 ",
"  =Xc                                                                                         .                                                                                                                         <X5 ",
"  =Xc                                   c *..       :.g       o., ` >.>.>.>.>.>.# #.w     . F `       : >.#       w %.        :.j       - ` h.7.g   F J   c %.      w /     o ) y.z.<.F                                 1X5 ",
"  =Xc                                   v.@Xk       ].J.#     L.w c F F ].o.D D   /.V     . /. X<     7  X*       N R.      V @Xz.      >.0.g T j   ,.6.  ~ @X`     A z.  o v.v.n f ) `                                 1X5 ",
"  =Xc                                 w _.s.0..     ].Y.*.    L.w       ).j       Y.N   . C C.F.o.    6 @X#       N /.      s.2. X1     J.F         ,.3.  ~ L.].9   A z.  I @X-                                         1X5 ",
"  =Xc                                 :.:.N }.*     ].k  Xd   L.w       ].j       R.N .   h.~ ` L.o   5 @X#       m R.    1 _.* S.O.    o.].R o     ,.6.  ~ 6.t.x.o A l.  q.v.o     .                                   1X5 ",
"  =Xc                               # /.w . R.~     ].# :.S.o Y.w       ].g     . R.V   6 `.$ - }.k   7 @X%       m (.    o.7.  ) R.o     I _.f.:   ,.,.  ~ 6.: _.U A h.  l.<.      . @                                 1X5 ",
"  =Xc                               K ].e.y.Y.F.    ].# % Y.o.L.w       ^.j       E.C   #./.t.t.(.t.  7 @X#       m (.  X R.A.0.z. Xx       1 A.7.  6.7.  ~ 2.  F [.U z.  7.S.      ) x.                                1X5 ",
"  =Xc                               v.o.k k N  Xd   ].#   c [._.w       ].j       R.V . W.L k k T |.: 7 @X#       m R.  N J.k k x y.0.        ( N.X ,.,.  ~ 6.    y.(.z.  F @X9     [ x.                                1X5 ",
"  =Xc                             0 (.$       f.,.  ].#     2.@X0       ].k     . R.V C F.        L.` 5 @Xo.} } C N !.  y.`       h [.- z.o.I J.K   ,.2.  / 6.  . 1 ].z.  . t.W.` Z u.x.                                1X5 ",
"  =Xc                             i C         i I   ~ o     * ` -       ~ 1     . T 7 x k         c A * ` ` ` ` N 5 T   ~ -       . ~ w K *.%.i . . x N o w N   . . k C       C *.>.) g                                 1X5 ",
"  =Xc                                                                                               .                                   .                       .               . .                                     1X5 ",
"  =Xc                                                                                                                                                                                                                   1X5 ",
"  =Xc                                                                                                                                                                                                                   1X5 ",
"  =Xc                                                                                                                                                                                                                   1X5 ",
"  &XR                                                                                                                                                                                                                 # 5X* ",
"  V.I.                                                                                                                                                                                                                R =X  ",
"  1 <X=..                                                                                                                                                                                                           x ,XY   ",
"    j ;X>X$XOXOXOXOXOXOXOXOXOXOXOXOXOXOXOXOXOXOXOXOXOXOXOXOXOXOXOXOXOXOXOXOXOXOXOXOXOXOXOXOXOXOXOXOXOXOXOXOXOXOXOXOXOXOXOXOXOXOXOXOXOXOXOXOXOXOXOXOXOXOXOXOXOXOXOXOXOXOXOXOXOXOXOXOXOXOXOXOXOXOXOXOXOXOXOXOXOXOX+X;X3X@.    ",
"      . d ( [ [ [ [ [ [ [ [ [ [ [ [ [ [ [ [ [ [ [ [ [ [ [ [ [ [ [ [ [ [ [ [ [ [ [ [ [ [ [ [ [ [ [ [ [ [ [ [ [ [ [ [ [ [ [ [ [ [ [ [ [ [ [ [ [ [ [ [ [ [ [ [ [ [ [ [ [ [ [ [ [ [ [ [ [ [ [ [ [ [ [ [ [ [ [ [ [ [ [ M #       ",
"                                                                                                                                                                                                                            ",
"                                                                                                                                                                                                                            "
};
