/* XPM */
static char *wlrzs_y14fo[] = {
/* columns rows colors chars-per-pixel */
"114 28 173 2 ",
"   c #16212F",
".  c #172230",
"X  c #182230",
"o  c #182331",
"O  c #192432",
"+  c #1A2432",
"@  c #1A2533",
"#  c #1B2533",
"$  c #1B2634",
"%  c #1C2735",
"&  c #1D2735",
"*  c #1E2937",
"=  c #1F2A38",
"-  c #202B39",
";  c #222D3A",
":  c #232D3B",
">  c #232E3B",
",  c #25303E",
"<  c #26303E",
"1  c #283240",
"2  c #283341",
"3  c #293341",
"4  c #293442",
"5  c #2A3542",
"6  c #2B3644",
"7  c #2C3745",
"8  c #2E3847",
"9  c #2E3947",
"0  c #303A48",
"q  c #303B49",
"w  c #313B4A",
"e  c #323C4B",
"r  c #333D4C",
"t  c #333E4C",
"y  c #343E4D",
"u  c #36414F",
"i  c #364150",
"p  c #374250",
"a  c #374251",
"s  c #384350",
"d  c #394452",
"f  c #3A4553",
"g  c #3B4655",
"h  c #3C4754",
"j  c #3C4756",
"k  c #3D4857",
"l  c #3F4957",
"z  c #3F4A59",
"x  c #404B5A",
"c  c #424D5C",
"v  c #424D5D",
"b  c #434E5D",
"n  c #434E5E",
"m  c #444E5C",
"M  c #444F5E",
"N  c #444F5F",
"B  c #45505D",
"V  c #47525F",
"C  c #455160",
"Z  c #465161",
"A  c #465261",
"S  c #475362",
"D  c #485363",
"F  c #4A5562",
"G  c #495565",
"H  c #4B5666",
"J  c #4C5868",
"K  c #4D5969",
"L  c #4E5969",
"P  c #4F5B6B",
"I  c #505A68",
"U  c #515C69",
"Y  c #525C6A",
"T  c #525D6A",
"R  c #505B6C",
"E  c #505C6C",
"W  c #515C6D",
"Q  c #525E6E",
"!  c #535E6F",
"~  c #535F70",
"^  c #546070",
"/  c #556172",
"(  c #586475",
")  c #596576",
"_  c #5E6875",
"`  c #5B6778",
"'  c #5B6779",
"]  c #5C687A",
"[  c #5E6A7C",
"{  c #606B78",
"}  c #616E7F",
"|  c #646E7C",
" . c #656F7C",
".. c #65707D",
"X. c #67717E",
"o. c #67727F",
"O. c #626F81",
"+. c #637082",
"@. c #647183",
"#. c #657285",
"$. c #667385",
"%. c #677486",
"&. c #687380",
"*. c #687589",
"=. c #6A778A",
"-. c #6A788B",
";. c #6B788B",
":. c #6C7A8B",
">. c #6C798C",
",. c #6D7A8C",
"<. c #6E7B8D",
"1. c #6E7C8E",
"2. c #6E7C8F",
"3. c #6F7D8F",
"4. c #6F7D90",
"5. c #707C90",
"6. c #717F92",
"7. c #728093",
"8. c #728193",
"9. c #758397",
"0. c #768396",
"q. c #758497",
"w. c #788390",
"e. c #798390",
"r. c #7A8491",
"t. c #7A8592",
"y. c #7F8996",
"u. c #768498",
"i. c #778498",
"p. c #77869A",
"a. c #788599",
"s. c #78879B",
"d. c #7A879B",
"f. c #78889C",
"g. c #79889C",
"h. c #7A899D",
"j. c #7A8A9E",
"k. c #7B8B9E",
"l. c #7C8A9F",
"z. c #7C8B9F",
"x. c #7D8B9F",
"c. c #7D8C9F",
"v. c #7E8BA1",
"b. c #7D8DA0",
"n. c #7F8DA1",
"m. c #7F8CA2",
"M. c #7E8DA2",
"N. c #7F8EA4",
"B. c #838D9A",
"V. c #818FA3",
"C. c #818FA4",
"Z. c #8291A6",
"A. c #8392A7",
"S. c #8D97A4",
"D. c #8D98A4",
"F. c #8F99A6",
"G. c #8F9AA6",
"H. c #97A1AE",
"J. c #A1ABB8",
"K. c #A5AFBC",
"L. c #A7B1BE",
"P. c #ACB6C2",
"I. c #B3BDC9",
"U. c #B4BECA",
"Y. c #B7C1CD",
"T. c #B7C2CE",
"R. c #B9C3CF",
"E. c #BAC4D1",
"W. c #BBC5D1",
"Q. c #BCC6D2",
"!. c #C0CAD6",
"~. c #C3CDD9",
"^. c #C5CFDB",
/* pixels */
"                                                                                                                                                                                                                                    ",
"              $ - - - - - - - - - - - - - - - - - - - - - - - - - - - - - - - - - - - - - - - - - - - - - - - - - - - - - - - - - - - - - - - - - - - - - - - - - - - - - - - - - - - - - - - - - - - - - - - - - - - O             ",
"          _ P.^.!.!.!.!.!.!.!.!.!.!.!.!.!.!.!.!.!.!.!.!.!.!.!.!.!.!.!.!.!.!.!.!.!.!.!.!.!.!.!.!.!.!.!.!.!.!.!.!.!.!.!.!.!.!.!.!.!.!.!.!.!.!.!.!.!.!.!.!.!.!.!.!.!.!.!.!.!.!.!.!.!.!.!.!.!.!.!.!.!.!.!.!.!.!.!.!.!.!.!.~.J.m         ",
"        w.K.l +                                                                                                                                                                                                       * I Y.Y       ",
"      u T.>                                                                                                                                                                                                               h E.$     ",
"       .y.                                                                                                                                                                                                                  L.h     ",
"      r.X.                                                                                                                                                                                                                  F.Y     ",
"      t...                                                                                                                                                    f 8                                                           D.T     ",
"      t...                                                                                                                                                  j <.*                                                           D.T     ",
"      t...                                                                            ; o                                                                   v *                                                             D.T     ",
"      t...                                                            @ p.(       0 4.8.x.L   R l.d.1.!   D x.i.i.i.- J k.g.7.E     W O.y i.i.g.k.i.i.~ n z.i.i.i.<                                                         D.T     ",
"      t...                                                            N v.k.@     +.P   O :   ~ %.X p A.9 H 3.        P =.X d Z.7   ^ %.      K ,.      Z 8.                                                                D.T     ",
"      t...                                                            :.S z.b     $.@.O       ~ %.  O x.C H 3.        P =.  & M.a   ^ %.      K ,.      Z 8.                                                                D.T     ",
"      t...                                                          6 k.# ' =.    8 q.8.r     ~ %.4 ( c., H h.` ` x   P 5.c #.,.X   ^ %.      K ,.      Z x.` ` v                                                           D.T     ",
"      t...                                                          ) ] @ w A.2     * [ V.N   ~ N.4.~ 7   H u.c c q   P l.-.n.=     ^ %.      K ,.      Z a.c c e                                                           D.T     ",
"      t...                                                        O j.0.9.9.b./         Q u.  ~ %.        H 3.        P =.. *.}     ^ %.      K ,.      Z 8.                                                                D.T     ",
"      t...                                                        v 2.      D f.X 3     G ;.  ~ %.        H 3.        P =.  < v.M   ^ %.      K ,.      Z 8.                                                                D.T     ",
"      t...                                                        ;.S       % m.k 0.s.>.6.i   ~ %.        H V.9.9.9.g P =.    A b.1 ^ %.      K ,.      Z C.9.9.9.z                                                         D.T     ",
"      t...                                                        # .         @ o . 1 4       o O         o # # # # X o @     . # o o O       o @       o # # # # o                                                         D.T     ",
"      t...                                                                                                                                                                                                                  D.T     ",
"      t...                                                                                                                                                                                                                  D.T     ",
"      t...                                                                                                                                                                                                                  D.T     ",
"      e.o.                                                                                                                                                                                                                  G.U     ",
"      { B.                                                                                                                                                                                                                  P.s     ",
"      q W.5                                                                                                                                                                                                               V U.O     ",
"        &.I.T 5 - - - - - - - - - - - - - - - - - - - - - - - - - - - - - - - - - - - - - - - - - - - - - - - - - - - - - - - - - - - - - - - - - - - - - - - - - - - - - - - - - - - - - - - - - - - - - - - - - - - q | Q.B       ",
"          F H.R.!.!.!.!.!.!.!.!.!.!.!.!.!.!.!.!.!.!.!.!.!.!.!.!.!.!.!.!.!.!.!.!.!.!.!.!.!.!.!.!.!.!.!.!.!.!.!.!.!.!.!.!.!.!.!.!.!.!.!.!.!.!.!.!.!.!.!.!.!.!.!.!.!.!.!.!.!.!.!.!.!.!.!.!.!.!.!.!.!.!.!.!.!.!.!.!.!.!.!.I.S.t         ",
"                                                                                                                                                                                                                                    "
};
