/* XPM */
static char *u0b21_r7sgq[] = {
/* columns rows colors chars-per-pixel */
"114 28 146 2 ",
"   c #16212F",
".  c #172230",
"X  c #182230",
"o  c #182331",
"O  c #192432",
"+  c #1A2533",
"@  c #1B2533",
"#  c #1C2735",
"$  c #1D2735",
"%  c #1D2836",
"&  c #1E2937",
"*  c #1F2A38",
"=  c #202B39",
"-  c #212B39",
";  c #232E3B",
":  c #232E3C",
">  c #242E3C",
",  c #25303D",
"<  c #26303E",
"1  c #26313F",
"2  c #283240",
"3  c #283341",
"4  c #2B3543",
"5  c #2B3644",
"6  c #2C3745",
"7  c #2D3746",
"8  c #2D3846",
"9  c #2E3947",
"0  c #2F3A48",
"q  c #303A48",
"w  c #303B49",
"e  c #313C49",
"r  c #323C4B",
"t  c #323D4B",
"y  c #333E4B",
"u  c #333E4C",
"i  c #353F4E",
"p  c #36404F",
"a  c #37424F",
"s  c #364150",
"d  c #374250",
"f  c #374251",
"g  c #384352",
"h  c #3A4553",
"j  c #3B4553",
"k  c #3A4554",
"l  c #3D4857",
"z  c #3F4A59",
"x  c #404B5A",
"c  c #414C59",
"v  c #424D5A",
"b  c #434E5B",
"n  c #434E5D",
"m  c #444E5C",
"M  c #444F5D",
"N  c #45505D",
"B  c #46505E",
"V  c #46515F",
"C  c #465261",
"Z  c #485363",
"A  c #495461",
"S  c #495464",
"D  c #4D5765",
"F  c #4E5969",
"G  c #4E5A6A",
"H  c #4F5B6B",
"J  c #515D6D",
"K  c #535E6F",
"L  c #535F70",
"P  c #57626F",
"I  c #546071",
"U  c #576374",
"Y  c #586370",
"T  c #596471",
"R  c #586475",
"E  c #5A6677",
"W  c #5E6875",
"Q  c #5B6778",
"!  c #5D6A7B",
"~  c #5F6C7D",
"^  c #636D7A",
"/  c #65707D",
"(  c #637082",
")  c #647184",
"_  c #657285",
"`  c #677487",
"'  c #687587",
"]  c #677488",
"[  c #697789",
"{  c #6A778A",
"}  c #6B788B",
"|  c #6D7A8E",
" . c #6D7B8E",
".. c #6E7C8E",
"X. c #727C89",
"o. c #6F7D90",
"O. c #6F7E91",
"+. c #707C90",
"@. c #727F94",
"#. c #75808D",
"$. c #758396",
"%. c #798390",
"&. c #7E8895",
"*. c #7F8996",
"=. c #768498",
"-. c #778498",
";. c #778598",
":. c #788599",
">. c #79869A",
",. c #7A879B",
"<. c #7B8B9E",
"1. c #7D8B9F",
"2. c #7D8BA0",
"3. c #7F8DA1",
"4. c #7F8EA2",
"5. c #86909D",
"6. c #808FA3",
"7. c #8090A5",
"8. c #8190A5",
"9. c #8291A5",
"0. c #8291A6",
"q. c #8392A7",
"w. c #8C96A3",
"e. c #8493A8",
"r. c #929CA8",
"t. c #99A4B0",
"y. c #9BA5B1",
"u. c #9BA6B2",
"i. c #9CA6B3",
"p. c #9DA7B4",
"a. c #9EA8B5",
"s. c #A0AAB6",
"d. c #A0ABB7",
"f. c #A2ACB8",
"g. c #AAB4C1",
"h. c #AEB8C4",
"j. c #B0BAC6",
"k. c #B1BBC8",
"l. c #B2BCC8",
"z. c #B3BDCA",
"x. c #B7C1CD",
"c. c #B7C2CE",
"v. c #BAC4D1",
"b. c #BEC8D4",
"n. c #C1CBD7",
"m. c #C5CFDB",
/* pixels */
"                                                                                                                                                                                                                                    ",
"            6 v b b b b b b b b b b b b b b b b b b b b b b b b b b b b b b b b b b b b b b b b b b b b b b b b b b b b b b b b b b b b b b b b b b b b b b b b b b b b b b b b b b b b b b b b b b b b b b b b b b c ,             ",
"        m k.x.a.p.p.p.p.p.p.p.p.p.p.p.p.p.p.p.p.p.p.p.p.p.p.p.p.p.p.p.p.p.p.p.p.p.p.p.p.p.p.p.p.p.p.p.p.p.p.p.p.p.p.p.p.p.p.p.p.p.p.p.p.p.p.p.p.p.p.p.p.p.p.p.p.p.p.p.p.p.p.p.p.p.p.p.p.p.p.p.p.p.p.p.p.p.p.p.p.p.p.d.b.s.e         ",
"      j v.A                                                                                                                                                                                                           . ^ c.;       ",
"      u.Y                                                                                                                                                                                                                 &.#.      ",
"    . n.-                                                                                                                                                                                                                 N a.      ",
"    * n.                                                                                                                                                                                                                  y h.      ",
"    * n.                                                                                                                                                                                                                  t h.      ",
"    * n.                                                                                                                                                                                                                  t h.      ",
"    * n.                                                                                  + 4 4 @         X 0 z 4       $ 3     . s f -                                                                                   t h.      ",
"    * n.                                                                                  9 e.O.1.] X   < ..+.~ $.) &   x :.  * =._ [ [                                                                                   t h.      ",
"    * n.                                                                                  9 9.  = 3.l   ' ( .   + o.E   x :.  G _     .                                                                                   t h.      ",
"    * n.                                                                                  9 9.  < 6.2 < e.z       H 4.. x :.  n 1.s                                                                                       t h.      ",
"    * n.                                                                                  9 e.{ <.g   k 0.$       q e.1 x :.  X I 9.Q +                                                                                   t h.      ",
"    * n.                                                                                  9 8.w L :.q i e.1       k e.* x :.      p -.| .                                                                                 t h.      ",
"    * n.                                                                                  9 9.    ` ! & 7.S       R >.  x :.        > q.8                                                                                 t h.      ",
"    * n.                                                                                  9 8.* r 2.F   U @.:   7 ,.Z   x :.  f 6   d ,.O                                                                                 t h.      ",
"    * n.                                                                                  5 =.=. .I %   X K ;.:.$.C     h }   J >.:.{ l                                                                                   t h.      ",
"    * n.                                                                                                      X                   .                                                                                       t h.      ",
"    * n.                                                                                                                                                                                                                  t h.      ",
"    * n.                                                                                                                                                                                                                  t h.      ",
"    * n.                                                                                                                                                                                                                  t h.      ",
"    # m..                                                                                                                                                                                                                 a g.      ",
"      l.u                                                                                                                                                                                                                 T w.      ",
"      X.r.o                                                                                                                                                                                                             = j.D       ",
"      + t.f.W M b b b b b b b b b b b b b b b b b b b b b b b b b b b b b b b b b b b b b b b b b b b b b b b b b b b b b b b b b b b b b b b b b b b b b b b b b b b b b b b b b b b b b b b b b b b b b b b b b b V / z.%.        ",
"        . P 5.i.p.p.p.p.p.p.p.p.p.p.p.p.p.p.p.p.p.p.p.p.p.p.p.p.p.p.p.p.p.p.p.p.p.p.p.p.p.p.p.p.p.p.p.p.p.p.p.p.p.p.p.p.p.p.p.p.p.p.p.p.p.p.p.p.p.p.p.p.p.p.p.p.p.p.p.p.p.p.p.p.p.p.p.p.p.p.p.p.p.p.p.p.p.p.p.p.p.p.y.*.B           ",
"                                                                                                                                                                                                                                    "
};
