/* XPM */
static char *a2170ceaf89540fd8c123cc9fdf24ddf[] = {
/* columns rows colors chars-per-pixel */
"110 29 171 2 ",
"   c #16212F",
".  c #172230",
"X  c #182230",
"o  c #182331",
"O  c #192432",
"+  c #1A2432",
"@  c #1A2533",
"#  c #1B2533",
"$  c #1B2634",
"%  c #1C2735",
"&  c #1D2735",
"*  c #1D2836",
"=  c #1E2937",
"-  c #1F2937",
";  c #1F2A38",
":  c #202B39",
">  c #212B39",
",  c #232D3B",
"<  c #232E3B",
"1  c #232E3C",
"2  c #242E3C",
"3  c #252F3D",
"4  c #25303E",
"5  c #26303E",
"6  c #26313F",
"7  c #273140",
"8  c #283240",
"9  c #293341",
"0  c #293442",
"q  c #2A3543",
"w  c #2B3644",
"e  c #2C3745",
"r  c #2D3746",
"t  c #2D3846",
"y  c #2E3847",
"u  c #2F3947",
"i  c #2F3A48",
"p  c #303A48",
"a  c #313C4A",
"s  c #323D4B",
"d  c #333D4C",
"f  c #333E4C",
"g  c #343E4D",
"h  c #343F4D",
"j  c #35404F",
"k  c #364150",
"l  c #374250",
"z  c #374251",
"x  c #384351",
"c  c #394452",
"v  c #394453",
"b  c #3A4553",
"n  c #3B4553",
"m  c #3C4756",
"M  c #3E4958",
"N  c #3F4A59",
"B  c #404B5B",
"V  c #414C5B",
"C  c #444F5F",
"Z  c #45505F",
"A  c #465261",
"S  c #475362",
"D  c #485363",
"F  c #495464",
"G  c #495565",
"H  c #4A5666",
"J  c #4B5767",
"K  c #4C5767",
"L  c #4D5869",
"P  c #4E5969",
"I  c #4E5A6A",
"U  c #4F5B6B",
"Y  c #515D6E",
"T  c #525E6F",
"R  c #535E6F",
"E  c #545F6C",
"W  c #546070",
"Q  c #556172",
"!  c #566273",
"~  c #576374",
"^  c #586475",
"/  c #596576",
"(  c #596677",
")  c #5D6875",
"_  c #5E6A7C",
"`  c #5E6B7C",
"'  c #5F6D7F",
"]  c #616D7F",
"[  c #616E7F",
"{  c #647083",
"}  c #647183",
"|  c #657283",
" . c #647184",
".. c #657284",
"X. c #677486",
"o. c #677487",
"O. c #6C7683",
"+. c #687587",
"@. c #6E7885",
"#. c #6E7986",
"$. c #677488",
"%. c #687589",
"&. c #697789",
"*. c #6A768A",
"=. c #6C7A8B",
"-. c #6D7A8C",
";. c #6C7A8D",
":. c #6E7B8D",
">. c #6D7B8E",
",. c #6E7C8E",
"<. c #727C89",
"1. c #6F7E91",
"2. c #707D91",
"3. c #717F91",
"4. c #707E92",
"5. c #717F92",
"6. c #727F94",
"7. c #718092",
"8. c #728193",
"9. c #738194",
"0. c #738295",
"q. c #758396",
"w. c #758397",
"e. c #768396",
"r. c #758497",
"t. c #768498",
"y. c #778498",
"u. c #778598",
"i. c #778599",
"p. c #77869A",
"a. c #788599",
"s. c #79869A",
"d. c #78879B",
"f. c #7A879B",
"g. c #78889C",
"h. c #7A889C",
"j. c #7B889C",
"k. c #7A899D",
"l. c #7B899D",
"z. c #7B8B9E",
"x. c #7C8A9F",
"c. c #7D8BA0",
"v. c #7E8BA1",
"b. c #7F8DA1",
"n. c #7F8CA2",
"m. c #7E8DA2",
"M. c #7F8EA2",
"N. c #87919E",
"B. c #88929F",
"V. c #808FA3",
"C. c #8291A5",
"Z. c #8291A6",
"A. c #8F99A6",
"S. c #8493A8",
"D. c #909AA7",
"F. c #949EAB",
"G. c #9BA5B1",
"H. c #9BA6B2",
"J. c #9DA8B4",
"K. c #A6B0BC",
"L. c #A7B1BD",
"P. c #AAB4C1",
"I. c #ABB5C1",
"U. c #B4BECA",
"Y. c #B5BFCB",
"T. c #B9C3CF",
"R. c #BAC4D0",
"E. c #BBC5D1",
"W. c #C0CAD6",
"Q. c #C7D1DD",
"!. c #C9D3DF",
/* pixels */
"              X .   . .   . .   . .   . .   . .   . .   . .   . .   . .   . .   . .   . .   . .   . .   . .   . .   . .   . .   . .   . .   . .   . .   . .   . .   . .   . .                                       X       ",
"    + #.I.Q.Q.!.!.Q.!.Q.Q.!.!.Q.!.Q.Q.!.!.Q.!.Q.Q.!.!.Q.!.Q.Q.!.!.Q.!.Q.Q.!.!.Q.!.Q.Q.!.!.Q.!.Q.Q.!.!.Q.!.Q.Q.!.!.Q.!.Q.Q.!.!.Q.!.Q.Q.!.!.Q.!.Q.Q.!.!.Q.!.Q.Q.!.!.Q.!.Q.Q.!.!.Q.!.Q.!.!.!.!.!.!.!.!.!.!.!.!.!.!.Q.T.B.6     ",
"  . H.F.b +     .           . .         .           . .         .           . .         .           . .         .           . .         .           . .         .           . .                                   u <.R.0   ",
"  ) J..         .                       .                       .                       .                       .                       .                       .                                                     O.D.  ",
"  A.E                                                                                                                                                                                                                 < W.X ",
"  K.b                                                                                                                                                                                                                   E.5 ",
"  L.b                                                                                                                                                                                                                   E.5 ",
"  K.b                                                                                                                                                                                                                   R.5 ",
". L.b                                                         . &                       .                     .         . $           .   + .                     . .                                                   R.5 ",
"  K.x                                                     3 | s.r.z.*.      H a.:       4.p.t.] r   ;.t.p.s.p.t.2.  & { p.w.w.B       x 7.p.t...,     1.Y       $.p                                                     R.5 ",
"  K.x                                                   X 9.[ +   - l       9.b.L       f.v 7 $...      & S.3 .   . $...X   d b.b   i Z.b   X ` 4.    z.Z.i     4.g                                                     E.6 ",
". L.b                                                   V S.0             j s.R 4.      z.v . I 4.    . & S.3     p S.g .   . ..-.  | -.      9 S.M   z.| 1.X   4.g                                                     E.6 ",
"  L.b                                                   W w.              [ E 3 Z.d     f.D D p.S       * S.7 . . D v.. .     D z.. 9.R         w.W   z.e p.U   7.g                                                     R.5 ",
"  K.b                                                   ~ 4.            - v.3   o.`     z.9.z.(         * S.3 .   H f.  .     C b.  p.I         4.W   z.7 v Z.0 4.j                                                     R.5 ",
". K.x                                                   D S.5           K b.p.w.f.b.&   g.v l b.r .     * S.3 .   l S.e . .   ' 7.. $.*.      : Z.C   f.5   { -.7.j                                                     E.6 ",
"  K.b                                                   - x.( .   . p   7.M     X f.S . f.v . / 6.X     & S.3 . . X 6.~   . 1 f.D . v b.9     I f.$   z.5   * f.Z.g                                                     E.6 ",
"  K.b                                                     l p.r.o.g.*.d s..     . W ;.  z.v   $ t.( .   & S.5       r 7.,.| f.~ .     I z. .=.p.a     z.3 .   B S.d                                                     E.4 ",
". L.x                                                       X r l $   $ *       . $ 1   , +     & 1     . 1 X .       . r x *           - l t .     . : X       1 +                                                     E.5 ",
"  L.b                                                                   . .     .                                           . .                                 .                                                       R.6 ",
"  K.b                                                                     .                                                                                                                                             R.4 ",
"  K.b                                                                                                                                                                                                                   E.6 ",
"  K.b                                                                                                                                                                                                                   E.5 ",
"  D.E                                                                                                                                                                                                                 < E.O ",
"  ) J.                        .                               .                                                                                                                                                       O.D.O ",
"    G.F.n + . . . . .   . .   .   . .   . .   . . . .   . .   .     . .   . .                                                                                                   . .   . .   . .                   e <.T.0   ",
"    X #.P.Q.Q.!.Q.!.!.Q.!.Q.Q.!.Q.!.!.Q.!.Q.Q.!.Q.!.!.Q.!.Q.Q.!.!.Q.!.Q.Q.!.!.Q.!.!.!.!.!.!.!.!.!.!.!.!.!.!.!.!.!.!.!.!.!.!.!.!.!.!.!.!.!.!.!.!.!.!.!.!.!.!.!.!.!.!.!.!.!.!.!.!.!.Q.Q.!.!.Q.!.Q.!.!.!.!.!.!.!.!.!.T.N.5     ",
"    X               . .             . .             . .         .           . .                                                                                                         .                                   ",
"                                                                .                                                                                                                       .                                   ",
"                                                                                                                                                                                                                            "
};
