/* XPM */
static char *mf4wk_5hbo4[] = {
/* columns rows colors chars-per-pixel */
"110 29 159 2 ",
"   c #16212F",
".  c #172230",
"X  c #182230",
"o  c #182331",
"O  c #192431",
"+  c #1C2634",
"@  c #1D2735",
"#  c #202A37",
"$  c #26303C",
"%  c #28323E",
"&  c #2A333F",
"*  c #2B3440",
"=  c #2C3541",
"-  c #2E3743",
";  c #303945",
":  c #333C48",
">  c #323D4B",
",  c #343D49",
"<  c #353E4A",
"1  c #37404C",
"2  c #38414C",
"3  c #39424D",
"4  c #3B444F",
"5  c #3C4550",
"6  c #3D4551",
"7  c #3E4652",
"8  c #3F4753",
"9  c #404854",
"0  c #414954",
"q  c #424A55",
"w  c #424B56",
"e  c #434C57",
"r  c #414B59",
"t  c #414C5A",
"y  c #444D58",
"u  c #454D59",
"i  c #464E5A",
"p  c #474F5A",
"a  c #48515C",
"s  c #49525D",
"d  c #4B535E",
"f  c #4C545F",
"g  c #4D5560",
"h  c #4D5661",
"j  c #4E5762",
"k  c #505863",
"l  c #515964",
"z  c #525A65",
"x  c #525B66",
"c  c #535B66",
"v  c #575F6A",
"b  c #58606B",
"n  c #59616C",
"m  c #5A626D",
"M  c #5B636E",
"N  c #5C646F",
"B  c #5D6875",
"V  c #5E6876",
"C  c #616974",
"Z  c #626A75",
"A  c #626B76",
"S  c #646C77",
"D  c #656D78",
"F  c #666E79",
"G  c #676F7A",
"H  c #67727F",
"J  c #69727D",
"K  c #6A727D",
"L  c #6B737E",
"P  c #6B747F",
"I  c #6C757F",
"U  c #697481",
"Y  c #727A85",
"T  c #727B86",
"R  c #737B86",
"E  c #777F8A",
"W  c #78808B",
"Q  c #78838F",
"!  c #798490",
"~  c #7F8792",
"^  c #7F8893",
"/  c #818A95",
"(  c #838B96",
")  c #848D98",
"_  c #868E99",
"`  c #87909B",
"'  c #89929D",
"]  c #8A939E",
"[  c #8B949F",
"{  c #8A94A0",
"}  c #8B95A1",
"|  c #8E97A2",
" . c #8F98A3",
".. c #9099A4",
"X. c #9199A5",
"o. c #929BA6",
"O. c #909AA8",
"+. c #929CA8",
"@. c #949CA8",
"#. c #949DA8",
"$. c #959EA9",
"%. c #969FAB",
"&. c #97A0AB",
"*. c #98A1AC",
"=. c #99A2AD",
"-. c #99A2AE",
";. c #9AA4AF",
":. c #9DA6B1",
">. c #9DA6B2",
",. c #A1AAB6",
"<. c #A2ABB6",
"1. c #A2ABB8",
"2. c #A2ADB9",
"3. c #A4ADB9",
"4. c #A5AEBA",
"5. c #A7B1BC",
"6. c #AAB3BE",
"7. c #AAB4BF",
"8. c #ABB4C0",
"9. c #ACB5C1",
"0. c #ACB6C1",
"q. c #ADB6C2",
"w. c #ADB7C2",
"e. c #AFB8C3",
"r. c #AEB8C4",
"t. c #AFB9C5",
"y. c #B0B9C5",
"u. c #B0BAC5",
"i. c #B1BAC6",
"p. c #B1BBC6",
"a. c #B2BBC7",
"s. c #B3BCC8",
"d. c #B4BECA",
"f. c #B5BECA",
"g. c #B6C0CB",
"h. c #B7C0CC",
"j. c #B7C1CC",
"k. c #B7C2CD",
"l. c #B8C1CD",
"z. c #B9C2CE",
"x. c #BAC4D0",
"c. c #BBC4D0",
"v. c #BCC5D1",
"b. c #BCC6D2",
"n. c #BDC7D3",
"m. c #BEC8D3",
"M. c #BEC8D4",
"N. c #BFC9D4",
"B. c #BFC9D5",
"V. c #C0CAD5",
"C. c #C1CBD7",
"Z. c #C2CCD8",
"A. c #C3CDD9",
"S. c #C4CEDA",
"D. c #C5CFDB",
"F. c #C6D0DC",
"G. c #C7D1DD",
"H. c #C8D2DE",
"J. c #C9D3DF",
/* pixels */
"                                                                                                                                                                                                                            ",
"      t +.D.J.J.J.J.J.J.J.J.J.J.J.J.J.J.J.J.J.J.J.J.J.J.J.J.J.J.J.J.J.J.J.J.J.J.J.J.J.J.J.J.J.J.J.J.J.J.J.J.J.J.J.J.J.J.J.J.J.J.J.J.J.J.J.J.J.J.J.J.J.J.J.J.J.J.J.J.J.J.J.J.J.J.J.J.J.J.J.J.J.J.J.J.J.J.J.J.J.J.J.2.V .     ",
"    ! J.J.J.J.J.J.J.J.J.J.J.J.J.J.J.J.J.J.J.J.J.J.J.J.J.J.J.J.J.J.J.J.J.J.J.J.J.J.J.J.J.J.J.J.J.J.J.J.J.J.J.J.J.J.J.J.J.J.J.J.J.J.J.J.J.J.J.J.J.J.J.J.J.J.J.J.J.J.J.J.J.J.J.J.J.J.J.J.J.J.J.J.J.J.J.J.J.J.J.J.J.J.J.J.t.o   ",
"  > J.J.J.J.J.J.J.J.J.J.J.J.J.J.J.J.J.J.J.J.J.J.J.J.J.J.J.J.J.J.J.J.J.J.J.J.J.J.J.J.J.J.J.J.J.J.J.J.J.J.J.J.J.J.J.J.J.J.J.J.J.J.J.J.J.J.J.J.J.J.J.J.J.J.J.J.J.J.J.J.J.J.J.J.J.J.J.J.J.J.J.J.J.J.J.J.J.J.J.J.J.J.J.J.J.J.U   ",
"  H J.J.J.J.J.J.J.J.J.J.J.J.J.J.J.J.J.J.J.J.J.J.J.J.J.J.J.J.J.J.J.J.J.J.J.J.J.J.J.J.J.J.J.J.J.J.J.J.J.J.J.J.J.J.J.J.J.J.J.J.J.J.J.J.J.J.J.J.J.J.J.J.J.J.J.J.J.J.J.J.J.J.J.J.J.J.J.J.J.J.J.J.J.J.J.J.J.J.J.J.J.J.J.J.J.J.k.  ",
"  { J.J.J.J.J.J.J.J.J.J.J.J.J.J.J.J.J.J.J.J.J.J.J.J.J.J.J.J.J.J.J.J.J.J.J.J.J.J.J.J.J.J.J.J.J.J.J.J.J.J.J.J.J.J.J.J.J.J.J.J.J.J.J.J.J.J.J.J.J.J.J.J.J.J.J.J.J.J.J.J.J.J.J.J.J.J.J.J.J.J.J.J.J.J.J.J.J.J.J.J.J.J.J.J.J.J.J.. ",
"  } J.J.J.J.J.J.J.J.J.J.J.J.J.J.J.J.J.J.J.J.J.J.J.J.J.J.J.J.J.J.J.J.J.J.J.J.J.J.J.J.J.J.J.J.J.J.J.J.J.J.J.J.J.J.J.J.J.J.J.J.J.J.J.J.J.J.J.J.J.J.J.J.J.J.J.J.J.J.J.J.J.J.J.J.J.J.J.J.J.J.J.J.J.J.J.J.J.J.J.J.J.J.J.J.J.J.J.. ",
"  } J.J.J.J.J.J.J.J.J.J.J.J.J.J.J.J.J.J.J.J.J.J.J.J.J.J.J.J.J.J.J.J.J.J.J.J.J.J.J.J.J.J.J.J.J.J.J.J.J.J.J.J.J.J.J.J.J.J.J.J.J.J.J.J.J.J.J.J.J.J.J.J.J.J.J.J.J.J.J.J.J.J.J.J.J.J.J.J.J.J.J.J.J.J.J.J.J.J.J.J.J.J.J.J.J.J.J.. ",
"  } J.J.J.J.J.J.J.J.J.J.J.J.J.J.J.J.J.J.J.J.J.J.J.J.J.J.J.J.J.H.S.J.J.J.J.J.J.J.J.J.J.J.J.J.J.J.J.J.J.J.J.J.J.J.J.J.J.J.H.D.J.J.J.J.J.J.J.F.H.J.J.J.J.J.J.J.J.J.J.J.J.J.J.J.J.J.J.J.J.J.J.J.J.J.J.J.J.J.J.J.J.J.J.J.J.J.J.. ",
"  } J.J.J.J.J.J.J.J.J.J.J.J.J.J.J.J.J.J.J.J.J.J.J.J.J.J.J.M.L 6 y : C J.J.J.$.0 Z.J.J.J.z 0 w T g.J.M w q 4 q w x J.A.T 7 i p <.J.J.J.7.f y 8 J V.J.J.z [ J.J.J.S s.J.J.J.J.J.J.J.J.J.J.J.J.J.J.J.J.J.J.J.J.J.J.J.J.J.J.J.. ",
"  } J.J.J.J.J.J.J.J.J.J.J.J.J.J.J.J.J.J.J.J.J.J.J.J.J.J.H.f Y G.J.A.q.J.J.J.d % o.J.J.J.2 6.b.F L J.J.J.S.  n.J.J.J.S J F.J.p.= 6.J.d.$ 6.J.H.W l H.J.2 # f.J.J.l y.J.J.J.J.J.J.J.J.J.J.J.J.J.J.J.J.J.J.J.J.J.J.J.J.J.J.J.. ",
"  } J.J.J.J.J.J.J.J.J.J.J.J.J.J.J.J.J.J.J.J.J.J.J.J.J.J.,.  x.J.J.J.J.J.J.e.0 ' j J.J.J.2 6.J.| x J.J.J.S.  n.J.J.a.  u.J.J.J.K m J.I n J.J.J.v.  3.J.2 L c H.J.l y.J.J.J.J.J.J.J.J.J.J.J.J.J.J.J.J.J.J.J.J.J.J.J.J.J.J.J.. ",
"  } J.J.J.J.J.J.J.J.J.J.J.J.J.J.J.J.J.J.J.J.J.J.J.J.J.J.` p J.J.J.J.J.J.J.T ' M.@ p.J.J.2 *.%.q ;.J.J.J.S.  n.J.J.*.; H.J.J.J.&.: J.s ` J.J.J.J.p ] J.2 z.7 | J.l y.J.J.J.J.J.J.J.J.J.J.J.J.J.J.J.J.J.J.J.J.J.J.J.J.J.J.J.. ",
"  } J.J.J.J.J.J.J.J.J.J.J.J.J.J.J.J.J.J.J.J.J.J.J.J.J.J.( z J.J.J.J.J.J.A.- M.J.G E J.J.2 j < ^ J.J.J.J.S.  n.J.J.#.4 J.J.J.J.>.= J.e  .J.J.J.J.k _ J.2 m.5.$ z.l y.J.J.J.J.J.J.J.J.J.J.J.J.J.J.J.J.J.J.J.J.J.J.J.J.J.J.J.. ",
"  } J.J.J.J.J.J.J.J.J.J.J.J.J.J.J.J.J.J.J.J.J.J.J.J.J.J.=.X n.J.J.J.J.J.@.* w w 4 = D.J.2 6.w.& g.J.J.J.S.  n.J.J.8.  j.J.J.J.R k J.A A J.J.J.C.O :.J.2 m.J.T m k y.J.J.J.J.J.J.J.J.J.J.J.J.J.J.J.J.J.J.J.J.J.J.J.J.J.J.J.. ",
"  } J.J.J.J.J.J.J.J.J.J.J.J.J.J.J.J.J.J.J.J.J.J.J.J.J.J.A., ~ H.J.H.d.J.j 4.J.J.H.4 -.J.2 6.J.^ h F.J.J.S.  n.J.J.H.h / J.J.B.2 -.J.5.% c.J.J.X.5 D.J.2 m.J.Z.1 + y.J.J.J.J.J.J.J.J.J.J.J.J.J.J.J.J.J.J.J.J.J.J.J.J.J.J.J.. ",
"  } J.J.J.J.J.J.J.J.J.J.J.J.J.J.J.J.J.J.J.J.J.J.J.J.J.J.J.q.9 a D 5 Z i.6 H.J.J.J.) b J.2 6.J.D.p ~ J.J.S.  n.J.J.J.l.g v P 3 ) H.J.J...2 K N u p.J.J.2 m.J.J.,.  y.J.J.J.J.J.J.J.J.J.J.J.J.J.J.J.J.J.J.J.J.J.J.J.J.J.J.J.. ",
"  } J.J.J.J.J.J.J.J.J.J.J.J.J.J.J.J.J.J.J.J.J.J.J.J.J.J.J.J.G.j.q.D.J.D.Z.J.J.J.J.F.B.J.V.F.J.J.S.B.J.J.H.N.H.J.J.J.J.H.j.9.Z.J.J.J.J.J.A.0.h.H.J.J.J.V.H.J.J.J.B.G.J.J.J.J.J.J.J.J.J.J.J.J.J.J.J.J.J.J.J.J.J.J.J.J.J.J.J.. ",
"  } J.J.J.J.J.J.J.J.J.J.J.J.J.J.J.J.J.J.J.J.J.J.J.J.J.J.J.J.J.J.J.J.J.J.J.J.J.J.J.J.J.J.J.J.J.J.J.J.J.J.J.J.J.J.J.J.J.J.J.J.J.J.J.J.J.J.J.J.J.J.J.J.J.J.J.J.J.J.J.J.J.J.J.J.J.J.J.J.J.J.J.J.J.J.J.J.J.J.J.J.J.J.J.J.J.J.J.. ",
"  } J.J.J.J.J.J.J.J.J.J.J.J.J.J.J.J.J.J.J.J.J.J.J.J.J.J.J.J.J.J.J.J.J.J.J.J.J.J.J.J.J.J.J.J.J.J.J.J.J.J.J.J.J.J.J.J.J.J.J.J.J.J.J.J.J.J.J.J.J.J.J.J.J.J.J.J.J.J.J.J.J.J.J.J.J.J.J.J.J.J.J.J.J.J.J.J.J.J.J.J.J.J.J.J.J.J.J.. ",
"  } J.J.J.J.J.J.J.J.J.J.J.J.J.J.J.J.J.J.J.J.J.J.J.J.J.J.J.J.J.J.J.J.J.J.J.J.J.J.J.J.J.J.J.J.J.J.J.J.J.J.J.J.J.J.J.J.J.J.J.J.J.J.J.J.J.J.J.J.J.J.J.J.J.J.J.J.J.J.J.J.J.J.J.J.J.J.J.J.J.J.J.J.J.J.J.J.J.J.J.J.J.J.J.J.J.J.J.. ",
"  { J.J.J.J.J.J.J.J.J.J.J.J.J.J.J.J.J.J.J.J.J.J.J.J.J.J.J.J.J.J.J.J.J.J.J.J.J.J.J.J.J.J.J.J.J.J.J.J.J.J.J.J.J.J.J.J.J.J.J.J.J.J.J.J.J.J.J.J.J.J.J.J.J.J.J.J.J.J.J.J.J.J.J.J.J.J.J.J.J.J.J.J.J.J.J.J.J.J.J.J.J.J.J.J.J.J.J.. ",
"  H J.J.J.J.J.J.J.J.J.J.J.J.J.J.J.J.J.J.J.J.J.J.J.J.J.J.J.J.J.J.J.J.J.J.J.J.J.J.J.J.J.J.J.J.J.J.J.J.J.J.J.J.J.J.J.J.J.J.J.J.J.J.J.J.J.J.J.J.J.J.J.J.J.J.J.J.J.J.J.J.J.J.J.J.J.J.J.J.J.J.J.J.J.J.J.J.J.J.J.J.J.J.J.J.J.J.k.  ",
"  > J.J.J.J.J.J.J.J.J.J.J.J.J.J.J.J.J.J.J.J.J.J.J.J.J.J.J.J.J.J.J.J.J.J.J.J.J.J.J.J.J.J.J.J.J.J.J.J.J.J.J.J.J.J.J.J.J.J.J.J.J.J.J.J.J.J.J.J.J.J.J.J.J.J.J.J.J.J.J.J.J.J.J.J.J.J.J.J.J.J.J.J.J.J.J.J.J.J.J.J.J.J.J.J.J.J.U   ",
"    Q J.J.J.J.J.J.J.J.J.J.J.J.J.J.J.J.J.J.J.J.J.J.J.J.J.J.J.J.J.J.J.J.J.J.J.J.J.J.J.J.J.J.J.J.J.J.J.J.J.J.J.J.J.J.J.J.J.J.J.J.J.J.J.J.J.J.J.J.J.J.J.J.J.J.J.J.J.J.J.J.J.J.J.J.J.J.J.J.J.J.J.J.J.J.J.J.J.J.J.J.J.J.J.J.r.o   ",
"      r O.D.J.J.J.J.J.J.J.J.J.J.J.J.J.J.J.J.J.J.J.J.J.J.J.J.J.J.J.J.J.J.J.J.J.J.J.J.J.J.J.J.J.J.J.J.J.J.J.J.J.J.J.J.J.J.J.J.J.J.J.J.J.J.J.J.J.J.J.J.J.J.J.J.J.J.J.J.J.J.J.J.J.J.J.J.J.J.J.J.J.J.J.J.J.J.J.J.J.J.J.1.B .     ",
"                                                                                                                                                                                                                            ",
"                                                                                                                                                                                                                            ",
"                                                                                                                                                                                                                            "
};
