/* XPM */
static char *Free_Converter_com_damier_inv_69634122[] = {
/* columns rows colors chars-per-pixel */
"114 28 133 2 ",
"   c #16212F",
".  c #172230",
"X  c #182331",
"o  c #1A2532",
"O  c #1D2735",
"+  c #212B38",
"@  c #222C39",
"#  c #242D3A",
"$  c #252E3B",
"%  c #26303C",
"&  c #28323E",
"*  c #2B3440",
"=  c #2C3541",
"-  c #2D3642",
";  c #2E3743",
":  c #303945",
">  c #323B47",
",  c #333C48",
"<  c #343D49",
"1  c #333E4C",
"2  c #38414C",
"3  c #39424D",
"4  c #3B444F",
"5  c #3D4551",
"6  c #3E4652",
"7  c #3F4753",
"8  c #3C4754",
"9  c #424B56",
"0  c #444D58",
"q  c #454D59",
"w  c #464E5A",
"e  c #474F5A",
"r  c #4C545F",
"t  c #4F5763",
"y  c #4E5966",
"u  c #525B66",
"i  c #545C67",
"p  c #515C69",
"a  c #555E69",
"s  c #58606B",
"d  c #5A626D",
"f  c #5B636E",
"g  c #5A6572",
"h  c #5D6570",
"j  c #5F6873",
"k  c #606873",
"l  c #616974",
"z  c #626B76",
"x  c #636B76",
"c  c #646C77",
"v  c #656D78",
"b  c #676F7A",
"n  c #67707B",
"m  c #65707D",
"M  c #66717E",
"N  c #68707B",
"B  c #69727D",
"V  c #6B747F",
"C  c #6D7580",
"Z  c #6F7782",
"A  c #6D7785",
"S  c #707883",
"D  c #737B86",
"F  c #737D8B",
"G  c #757D88",
"H  c #777F8A",
"J  c #76818D",
"K  c #78808B",
"L  c #78818C",
"P  c #7A828D",
"I  c #7B838E",
"U  c #7D8590",
"Y  c #7D8691",
"T  c #7E8792",
"R  c #7F8792",
"E  c #7F8893",
"W  c #838C97",
"Q  c #838D99",
"!  c #848D98",
"~  c #8B949F",
"^  c #8B96A3",
"/  c #8E96A1",
"(  c #8E98A4",
")  c #929BA6",
"_  c #949CA8",
"`  c #959EA9",
"'  c #949EAB",
"]  c #959FAB",
"[  c #969FAB",
"{  c #96A1AD",
"}  c #98A1AC",
"|  c #99A2AD",
" . c #9FA8B3",
".. c #9FA9B6",
"X. c #A0A9B4",
"o. c #A0A9B5",
"O. c #A1AAB6",
"+. c #A3ACB8",
"@. c #A4ADB8",
"#. c #A5AEB9",
"$. c #A5AEBA",
"%. c #A4AFBB",
"&. c #A7B0BC",
"*. c #A8B2BE",
"=. c #AAB3BE",
"-. c #AAB4BF",
";. c #ABB5C0",
":. c #ADB7C2",
">. c #B1BAC6",
",. c #B0BAC7",
"<. c #B3BDC8",
"1. c #B3BDCA",
"2. c #B4BDC9",
"3. c #B4BECA",
"4. c #B5BFCB",
"5. c #B6C0CB",
"6. c #B7C2CD",
"7. c #B8C1CD",
"8. c #B8C2CD",
"9. c #B9C3CE",
"0. c #BBC4D0",
"q. c #BCC6D2",
"w. c #BFC9D4",
"e. c #C0CAD5",
"r. c #C1CBD7",
"t. c #C2CCD8",
"y. c #C3CDD9",
"u. c #C4CEDA",
"i. c #C5CFDB",
"p. c #C6D0DC",
"a. c #C7D1DD",
"s. c #C8D2DE",
"d. c #C9D3DF",
/* pixels */
"                                                                                                                                                                                                                                    ",
"          .   . . . . . . . . . . . . . . . . . . . . . . . . . . . . . . . . . . . . . . . . . . . . . . . . . . . . . . . . . . . . . . . . . . . . . . . . . . . . . . . . . . . . . . . . . . . . . . . . . . .                 ",
"        X m ,.d.d.d.d.d.d.d.d.d.d.d.d.d.d.d.d.d.d.d.d.d.d.d.d.d.d.d.d.d.d.d.d.d.d.d.d.d.d.d.d.d.d.d.d.d.d.d.d.d.d.d.d.d.d.d.d.d.d.d.d.d.d.d.d.d.d.d.d.d.d.d.d.d.d.d.d.d.d.d.d.d.d.d.d.d.d.d.d.d.d.d.d.d.d.d.d.d.d.d.d.$.p .         ",
"      X ,.d.d.d.d.d.d.d.d.d.d.d.d.d.d.d.d.d.d.d.d.d.d.d.d.d.d.d.d.d.d.d.d.d.d.d.d.d.d.d.d.d.d.d.d.d.d.d.d.d.d.d.d.d.d.d.d.d.d.d.d.d.d.d.d.d.d.d.d.d.d.d.d.d.d.d.d.d.d.d.d.d.d.d.d.d.d.d.d.d.d.d.d.d.d.d.d.d.d.d.d.d.d.d.d./         ",
"      m d.d.d.d.d.d.d.d.d.d.d.d.d.d.d.d.d.d.d.d.d.d.d.d.d.d.d.d.d.d.d.d.d.d.d.d.d.d.d.d.d.d.d.d.d.d.d.d.d.d.d.d.d.d.d.d.d.d.d.d.d.d.d.d.d.d.d.d.d.d.d.d.d.d.d.d.d.d.d.d.d.d.d.d.d.d.d.d.d.d.d.d.d.d.d.d.d.d.d.d.d.d.d.d.d.d.8 .     ",
"      ,.d.d.d.d.d.d.d.d.d.d.d.d.d.d.d.d.d.d.d.d.d.d.d.d.d.d.d.d.d.d.d.d.d.d.d.d.d.d.d.d.d.d.d.d.d.d.d.d.d.d.d.d.d.d.d.d.d.d.d.d.d.d.d.d.d.d.d.d.d.d.d.d.d.d.d.d.d.d.d.d.d.d.d.d.d.d.d.d.d.d.d.d.d.d.d.d.d.d.d.d.d.d.d.d.d.d.F       ",
"    . d.d.d.d.d.d.d.d.d.d.d.d.d.d.d.d.d.d.d.d.d.d.d.d.d.d.d.d.d.d.d.d.d.d.d.d.d.d.d.d.d.d.d.d.d.d.d.d.d.d.d.d.d.d.d.d.d.d.d.d.d.d.d.d.d.d.d.d.d.d.d.d.d.d.d.d.d.d.d.d.d.d.d.d.d.d.d.d.d.d.d.d.d.d.d.d.d.d.d.d.d.d.d.d.d.d.d.' .     ",
"    . d.d.d.d.d.d.d.d.d.d.d.d.d.d.d.d.d.d.d.d.d.d.d.d.d.d.d.d.d.d.d.d.d.d.d.d.d.d.d.d.d.d.d.d.d.d.d.d.d.d.d.d.d.d.d.d.d.d.d.d.d.d.d.d.d.d.d.d.d.d.d.d.d.d.d.d.d.d.d.d.d.d.d.d.d.d.d.d.d.d.d.d.d.d.d.d.d.d.d.d.d.d.d.d.d.d.d.'       ",
"    . d.d.d.d.d.d.d.d.d.d.d.d.d.d.d.d.d.d.d.d.d.d.d.d.d.d.d.d.d.d.d.d.d.d.d.d.d.d.d.d.d.d.d.d.d.d.d.d.d.d.d.d.d.d.d.d.d.d.d.d.d.d.d.d.d.d.d.d.d.d.d.d.d.d.d.d.d.d.d.d.d.d.d.d.d.d.d.d.d.d.d.d.d.d.d.d.d.d.d.d.d.d.d.d.d.d.d.{ .     ",
"    . d.d.d.d.d.d.d.d.d.d.d.d.d.d.d.d.d.d.d.d.d.d.d.d.d.d.d.d.d.d.d.d.d.d.d.d.d.d.d.d.d.d.d.d.d.d.d.d.d.d.d.d.d.d.d.d.d.d.d.d.d.d.d.d.d.d.d.d.d.d.d.d.d.d.d.d.d.d.d.d.d.d.d.d.d.d.d.d.d.d.d.d.d.d.d.d.d.d.d.d.d.d.d.d.d.d.d.{ .     ",
"    . d.d.d.d.d.d.d.d.d.d.d.d.d.d.d.d.d.d.d.d.d.d.d.d.d.d.d.d.d.d.d.d.d.d.r 6 4 0 c 4.d.d.d.d.P 0 d.d.d.u.= B d.d.d.4.= ] d.R R d.| > 9 9 9 u.) < 2 t / d.d.d.d.d.d.d.d.d.d.d.d.d.d.d.d.d.d.d.d.d.d.d.d.d.d.d.d.d.d.d.d.d.d.{       ",
"    . d.d.d.d.d.d.d.d.d.d.d.d.d.d.d.d.d.d.d.d.d.d.d.d.d.d.d.d.d.d.d.d.d.d.6 $.d.t.W % r.d.d.u.: & $.d.d.u.+ + r.d.d.U + ) d.H H d.) s d.d.d.d./ k d.=.O 8.d.d.d.d.d.d.d.d.d.d.d.d.d.d.d.d.d.d.d.d.d.d.d.d.d.d.d.d.d.d.d.d.d.{       ",
"    . d.d.d.d.d.d.d.d.d.d.d.d.d.d.d.d.d.d.d.d.d.d.d.d.d.d.d.d.d.d.d.d.d.d.6 $.d.d.d.6 } d.d.{ x G b d.d.u.= d ) d.a.9 j ) d.K H d.] s d.d.d.d./ x d.t.& :.d.d.d.d.d.d.d.d.d.d.d.d.d.d.d.d.d.d.d.d.d.d.d.d.d.d.d.d.d.d.d.d.d.{       ",
"    . d.d.d.d.d.d.d.d.d.d.d.d.d.d.d.d.d.d.d.d.d.d.d.d.d.d.d.d.d.d.d.d.d.d.6 $.d.d.d.P c d.d.u +.,.O e.d.a.& ] i d.$.C n ) d.K H d.) 2 U U @.d./ a  .n h a.d.d.d.d.d.d.d.d.d.d.d.d.d.d.d.d.d.d.d.d.d.d.d.d.d.d.d.d.d.d.d.d.d.{       ",
"    . d.d.d.d.d.d.d.d.d.d.d.d.d.d.d.d.d.d.d.d.d.d.d.d.d.d.d.d.d.d.d.d.d.d.6 $.d.d.d.K h d.<.2 i.p.r ~ d.u.= t.# 9.V $.N ) d.K H d.) e X.X.4.d./ , h = t.d.d.d.d.d.d.d.d.d.d.d.d.d.d.d.d.d.d.d.d.d.d.d.d.d.d.d.d.d.d.d.d.d.d.{       ",
"    . d.d.d.d.d.d.d.d.d.d.d.d.d.d.d.d.d.d.d.d.d.d.d.d.d.d.d.d.d.d.d.d.d.d.6 $.d.d.d.6 W d.K 2 e e 5 9 d.a.& d.N E 0 d.n ) d.K H d.] s d.d.d.d./ k d.j G d.d.d.d.d.d.d.d.d.d.d.d.d.d.d.d.d.d.d.d.d.d.d.d.d.d.d.d.d.d.d.d.d.d.{       ",
"    . d.d.d.d.d.d.d.d.d.d.d.d.d.d.d.d.d.d.d.d.d.d.d.d.d.d.d.d.d.d.d.d.d.d.6 $.d.d.] ; w.i.: 9.d.d.t.# -.p.& d.+.O W d.N ) d.K H d._ s d.d.d.d./ k d.q.=  .d.d.d.d.d.d.d.d.d.d.d.d.d.d.d.d.d.d.d.d.d.d.d.d.d.d.d.d.d.d.d.d.d.{       ",
"    . d.d.d.d.d.d.d.d.d.d.d.d.d.d.d.d.d.d.d.d.d.d.d.d.d.d.d.d.d.d.d.d.d.d.6 5 0 6 z 6.d.| k d.d.d.d.S S p.& d.p.W 4.d.b ) d.K H d._ # e e e =./ x d.d.| ; q.d.d.d.d.d.d.d.d.d.d.d.d.d.d.d.d.d.d.d.d.d.d.d.d.d.d.d.d.d.d.d.d.{       ",
"    . d.d.d.d.d.d.d.d.d.d.d.d.d.d.d.d.d.d.d.d.d.d.d.d.d.d.d.d.d.d.d.d.d.d.i.i.i.d.d.d.d.a.a.d.d.d.d.d.p.d.u.d.d.d.d.d.p.d.d.p.p.d.a.a.i.a.i.d.a.i.d.d.d.i.d.d.d.d.d.d.d.d.d.d.d.d.d.d.d.d.d.d.d.d.d.d.d.d.d.d.d.d.d.d.d.d.d.{ .     ",
"    . d.d.d.d.d.d.d.d.d.d.d.d.d.d.d.d.d.d.d.d.d.d.d.d.d.d.d.d.d.d.d.d.d.d.d.d.d.d.d.d.d.d.d.d.d.d.d.d.d.d.d.d.d.d.d.d.d.d.d.d.d.d.d.d.d.d.d.d.d.d.d.d.d.d.d.d.d.d.d.d.d.d.d.d.d.d.d.d.d.d.d.d.d.d.d.d.d.d.d.d.d.d.d.d.d.d.d.{ .     ",
"    . d.d.d.d.d.d.d.d.d.d.d.d.d.d.d.d.d.d.d.d.d.d.d.d.d.d.d.d.d.d.d.d.d.d.d.d.d.d.d.d.d.d.d.d.d.d.d.d.d.d.d.d.d.d.d.d.d.d.d.d.d.d.d.d.d.d.d.d.d.d.d.d.d.d.d.d.d.d.d.d.d.d.d.d.d.d.d.d.d.d.d.d.d.d.d.d.d.d.d.d.d.d.d.d.d.d.d.{       ",
"    . d.d.d.d.d.d.d.d.d.d.d.d.d.d.d.d.d.d.d.d.d.d.d.d.d.d.d.d.d.d.d.d.d.d.d.d.d.d.d.d.d.d.d.d.d.d.d.d.d.d.d.d.d.d.d.d.d.d.d.d.d.d.d.d.d.d.d.d.d.d.d.d.d.d.d.d.d.d.d.d.d.d.d.d.d.d.d.d.d.d.d.d.d.d.d.d.d.d.d.d.d.d.d.d.d.d.a.{       ",
"      d.d.d.d.d.d.d.d.d.d.d.d.d.d.d.d.d.d.d.d.d.d.d.d.d.d.d.d.d.d.d.d.d.d.d.d.d.d.d.d.d.d.d.d.d.d.d.d.d.d.d.d.d.d.d.d.d.d.d.d.d.d.d.d.d.d.d.d.d.d.d.d.d.d.d.d.d.d.d.d.d.d.d.d.d.d.d.d.d.d.d.d.d.d.d.d.d.d.d.d.d.d.d.d.d.d.d.'       ",
"      *.d.d.d.d.d.d.d.d.d.d.d.d.d.d.d.d.d.d.d.d.d.d.d.d.d.d.d.d.d.d.d.d.d.d.d.d.d.d.d.d.d.d.d.d.d.d.d.d.d.d.d.d.d.d.d.d.d.d.d.d.d.d.d.d.d.d.d.d.d.d.d.d.d.d.d.d.d.d.d.d.d.d.d.d.d.d.d.d.d.d.d.d.d.d.d.d.d.d.d.d.d.d.d.d.d.d.A       ",
"      g d.d.d.d.d.d.d.d.d.d.d.d.d.d.d.d.d.d.d.d.d.d.d.d.d.d.d.d.d.d.d.d.d.d.d.d.d.d.d.d.d.d.d.d.d.d.d.d.d.d.d.d.d.d.d.d.d.d.d.d.d.d.d.d.d.d.d.d.d.d.d.d.d.d.d.d.d.d.d.d.d.d.d.d.d.d.d.d.d.d.d.d.d.d.d.d.d.d.d.d.d.d.d.d.d.d.1 .     ",
"      . ..d.d.d.d.d.d.d.d.d.d.d.d.d.d.d.d.d.d.d.d.d.d.d.d.d.d.d.d.d.d.d.d.d.d.d.d.d.d.d.d.d.d.d.d.d.d.d.d.d.d.d.d.d.d.d.d.d.d.d.d.d.d.d.d.d.d.d.d.d.d.d.d.d.d.d.d.d.d.d.d.d.d.d.d.d.d.d.d.d.d.d.d.d.d.d.d.d.d.d.d.d.d.d.d.F . .     ",
"        . y ( 4.6.6.6.6.6.6.6.6.6.6.6.6.6.6.6.6.6.6.6.6.6.6.6.6.8.8.6.6.6.6.6.6.6.6.6.6.6.6.6.6.6.6.6.6.6.6.6.6.8.8.8.5.6.9.8.5.6.6.6.6.6.6.6.6.6.6.6.6.6.6.6.6.6.6.6.6.6.6.6.6.6.6.6.6.6.6.6.6.6.6.6.6.6.6.6.6.6.6.<.Q 8           ",
"                                                                                                                .                                                                                                     .             "
};
