/* XPM */
static char *Free_Converter_com_damier_40284122[] = {
/* columns rows colors chars-per-pixel */
"114 28 157 2 ",
"   c #16212F",
".  c #172230",
"X  c #182230",
"o  c #182331",
"O  c #192432",
"+  c #1A2533",
"@  c #1B2533",
"#  c #1C2735",
"$  c #1D2836",
"%  c #1E2937",
"&  c #1F2937",
"*  c #1F2A38",
"=  c #202B39",
"-  c #212B39",
";  c #212C3A",
":  c #232D3B",
">  c #232E3B",
",  c #232E3C",
"<  c #242E3C",
"1  c #273140",
"2  c #273240",
"3  c #293341",
"4  c #2A3542",
"5  c #2A3543",
"6  c #2B3543",
"7  c #2C3644",
"8  c #2C3745",
"9  c #2E3847",
"0  c #2F3947",
"q  c #303A48",
"w  c #303B49",
"e  c #313B4A",
"r  c #323D4B",
"t  c #333E4C",
"y  c #343F4D",
"u  c #364150",
"i  c #384352",
"p  c #394453",
"a  c #3A4553",
"s  c #3B4553",
"d  c #3C4756",
"f  c #3E4958",
"g  c #3F4A59",
"h  c #404B5A",
"j  c #414C5B",
"k  c #424D5A",
"l  c #424D5C",
"z  c #424D5D",
"x  c #434E5D",
"c  c #485363",
"v  c #495464",
"b  c #495565",
"n  c #4B5666",
"m  c #4C5764",
"M  c #4C5767",
"N  c #4C5868",
"B  c #4D5869",
"V  c #505B68",
"C  c #505B6C",
"Z  c #515D6E",
"A  c #566273",
"S  c #576374",
"D  c #596576",
"F  c #596677",
"G  c #5A6677",
"H  c #5F6A77",
"J  c #5A6678",
"K  c #5B6778",
"L  c #5C6879",
"P  c #5C697A",
"I  c #5D6A7B",
"U  c #5E6A7C",
"Y  c #5E6B7C",
"T  c #5F6C7D",
"R  c #5F6D7F",
"E  c #626F81",
"W  c #646F82",
"Q  c #647083",
"!  c #657284",
"~  c #667385",
"^  c #667386",
"/  c #677486",
"(  c #687380",
")  c #687587",
"_  c #6C7784",
"`  c #677488",
"'  c #687589",
"]  c #697688",
"[  c #6A768A",
"{  c #6A778A",
"}  c #6C798C",
"|  c #6D7A8C",
" . c #6C7A8D",
".. c #6D7B8E",
"X. c #6F7D8F",
"o. c #707C90",
"O. c #707D91",
"+. c #728093",
"@. c #738194",
"#. c #758397",
"$. c #768396",
"%. c #758497",
"&. c #798390",
"*. c #7A8592",
"=. c #7C8794",
"-. c #768498",
";. c #778498",
":. c #788599",
">. c #79869A",
",. c #78879B",
"<. c #7A879B",
"1. c #7A889C",
"2. c #7A899D",
"3. c #7B8B9E",
"4. c #7C8A9F",
"5. c #7D8B9F",
"6. c #7D8BA0",
"7. c #7E8BA1",
"8. c #7D8DA0",
"9. c #7F8DA1",
"0. c #7F8CA2",
"q. c #7F8EA2",
"w. c #7F8EA4",
"e. c #818B98",
"r. c #848F9B",
"t. c #86909D",
"y. c #808FA3",
"u. c #818FA3",
"i. c #818FA4",
"p. c #8090A5",
"a. c #8291A6",
"s. c #8392A7",
"d. c #8D98A4",
"f. c #8E98A5",
"g. c #929CA8",
"h. c #939DAA",
"j. c #97A1AE",
"k. c #99A3AF",
"l. c #99A4B0",
"z. c #9DA8B4",
"x. c #A2ACB8",
"c. c #A7B1BE",
"v. c #A9B3BF",
"b. c #ACB6C3",
"n. c #ADB7C3",
"m. c #AEB8C4",
"M. c #B3BDC9",
"N. c #B6C0CC",
"B. c #B8C2CE",
"V. c #BAC4D0",
"C. c #BCC6D3",
"Z. c #BEC8D4",
"A. c #BFC9D5",
"S. c #C0CAD6",
"D. c #C1CBD7",
"F. c #C2CCD8",
"G. c #C3CDD9",
/* pixels */
"                    .     .                                                     .     . .   .     . .   o . . . .   o . . . .                                                                                                       ",
"        . .   * = * = = * = = * = = = = = = = = = = = = = = = = = = = = = = = = * : * * * * : * * * * * * * * * * * * * * * * * = * = = = = = = = = = = = = = = = = = = = = = = = = = = = = = = = = = = = = = = = = * o             ",
"        4 d.C.D.D.A.D.A.D.A.D.A.D.A.A.D.D.A.D.A.A.D.D.A.D.A.A.D.D.A.D.A.A.D.D.A.A.A.A.A.A.A.A.A.A.A.A.A.A.A.A.A.A.A.A.A.A.A.A.A.A.D.D.D.D.A.D.A.A.D.D.A.D.A.A.D.D.A.D.A.A.D.D.A.D.A.A.D.D.A.D.A.A.D.D.A.D.A.A.D.D.A.D.M.=.%         ",
"      4 V._ 2                 .                                                     .   . . . . . . . o   . .   . . . . . . . o                                                                                     o 0 t.c.@       ",
"      d._                                                                                       .                       .                                                                                               . g.(       ",
"      C.2                                                                                                                                                                                                                 M j.      ",
"    % F.                                                                                                                                                                                                                X r b.      ",
"    * D.                                                                                                                                                                                                                  r b.      ",
"    * D.                                                                                                                                              .                                                                   r m.      ",
"    * D.                                                                  X                                           .                               .                                                                   r m.      ",
"    * D.                                                                  O.,.,.$.) 9         L %.      # 6.! .     w 6.n   F L   v 4.;.;.;.& N 2.2.O.Z                                                                   r m.      ",
"    * D.                                                                  ,.h   = S u.=     % 6.u.f     # a.i.:     F w.N   U I   M ...       C [ o p i.7                                                                 r m.      ",
"    * D.                                                                  ,.f   . . ,.c     n [ Y ^     % 5.| N   . ,.{ N   P Y   M ...   .   C [   $ 6.u                                                                 r m.      ",
"    * D.                                                                  ,.f       L [     O.f t a.<   @ u.n X.  f E ^ N   U Y   N <.F F f   C X.x ! ...                                                                 r m.      ",
"    * D.                                                                  ,.f       U [   e 2.# @ @.Z   $ 6.% u.4 W d ^ N   U Y   n $.j x e . C 2.} u.$                                                                   r m.      ",
"    * D.                                                                  ,.f       ,.S   P 2.$.$.,.%.o % 6.  ! D ,.. ^ N . U Y . n ..      . C [   [ E                                                                   r m.      ",
"    * D.                                                                  ,.f     N 6., # 6.2     % w.a # 6.  j a.D   ^ N   P Y   M ..      . C [   2 6.x . .                                                             r m.      ",
"    * D.                                                                  ,.,.%.,.' 8   c { .       E E % 6.  @ A 7   ^ N   U Y   M u.$.#.$.a C [     c 6.2                                                               r m.      ",
"    * D.                                                                  @ @ @         o o         . @ . @           @ o   @ o   o @ @ # o . . @     . @ .                                                               r m.      ",
"    * D.                                                                                  .                                   .             .                                                                             r m.      ",
"  . * D.                                                                                                                                                                                                                  r m.      ",
"  . * D.                                                                                                                                                                                                                  r m.      ",
"    $ F..                                                                                                                                                                                                                 t m.      ",
"    . B.4                                                                                     .                                                                                                                           V h.      ",
"      r.&.    .                                                                 o . . . .   o . . . . . . . . .     .     . .                                                                                             z.H       ",
"      : M.e.a = = = = = = = = = = = = = = = = = = = = = = = = = = = = % = = = = * * * * * * * * * * * * * * * * * * : * * * * * = % = = = = = % = = = % = = = % = = = % = = = = = % = = = = = % : % % : % : * : % * < j l.l..       ",
"        = *.v.A.A.D.D.A.D.A.A.D.A.D.D.A.D.A.A.D.A.D.D.A.D.A.A.D.D.D.A.D.D.A.D.D.A.A.A.A.A.A.A.A.A.A.A.A.A.A.A.A.A.A.A.A.A.A.A.A.A.D.D.A.D.D.A.D.D.D.A.D.D.D.A.D.D.D.A.D.D.A.D.D.A.D.D.A.D.D.A.D.A.D.D.A.D.A.A.D.D.A.A.x.( o         ",
"                                                                                  . . . . . . . . o   . . o   . . . . . . . . o                                                                                                     "
};
