/* XPM */
static char *Free_Converter_com_eau_30074122[] = {
/* columns rows colors chars-per-pixel */
"114 28 126 2 ",
"   c #16212F",
".  c #172230",
"X  c #192432",
"o  c #1A2432",
"O  c #1A2533",
"+  c #1B2533",
"@  c #1B2634",
"#  c #1C2735",
"$  c #1D2735",
"%  c #1D2836",
"&  c #1E2937",
"*  c #1F2A38",
"=  c #212B39",
"-  c #222D3A",
";  c #232D3B",
":  c #232E3B",
">  c #232E3C",
",  c #242F3D",
"<  c #283240",
"1  c #293341",
"2  c #2A3542",
"3  c #2A3443",
"4  c #2B3644",
"5  c #2C3644",
"6  c #2C3744",
"7  c #2C3745",
"8  c #2E3847",
"9  c #2E3947",
"0  c #2F3947",
"q  c #2F3A48",
"w  c #303B49",
"e  c #313B4A",
"r  c #333D4C",
"t  c #333E4C",
"y  c #343F4D",
"u  c #374251",
"i  c #394452",
"p  c #3B4553",
"a  c #3C4756",
"s  c #3D4857",
"d  c #3F4957",
"f  c #3F4A58",
"g  c #3F4A59",
"h  c #424D5A",
"j  c #414C5C",
"k  c #424D5C",
"l  c #424D5D",
"z  c #46515F",
"x  c #455060",
"c  c #465161",
"v  c #465261",
"b  c #475262",
"n  c #4B5663",
"m  c #495565",
"M  c #4B5767",
"N  c #525C6A",
"B  c #535E6F",
"V  c #535F70",
"C  c #55606D",
"Z  c #56616E",
"A  c #57616E",
"S  c #576374",
"D  c #576475",
"F  c #596576",
"G  c #5A6678",
"H  c #5B6778",
"J  c #5B6779",
"K  c #5C6879",
"L  c #5E6C7E",
"P  c #606B78",
"I  c #626C7A",
"U  c #626E80",
"Y  c #646F82",
"T  c #637082",
"R  c #667385",
"E  c #677488",
"W  c #6C7A8B",
"Q  c #6C7A8D",
"!  c #6E7B8D",
"~  c #6E7C8E",
"^  c #6F7D8F",
"/  c #717B88",
"(  c #727F94",
")  c #78828F",
"_  c #768396",
"`  c #778599",
"'  c #788599",
"]  c #7A879B",
"[  c #7A899D",
"{  c #7B899D",
"}  c #7B8B9E",
"|  c #7C8B9F",
" . c #7D8B9F",
".. c #7D8DA0",
"X. c #808A97",
"o. c #848E9B",
"O. c #848F9B",
"+. c #88929F",
"@. c #808FA3",
"#. c #8190A5",
"$. c #8291A6",
"%. c #8392A7",
"&. c #8A94A1",
"*. c #8D98A4",
"=. c #909AA7",
"-. c #96A0AD",
";. c #9DA7B4",
":. c #9FA9B6",
">. c #A0ABB7",
",. c #A1ABB8",
"<. c #A2ADB9",
"1. c #A7B1BD",
"2. c #ACB6C2",
"3. c #AEB8C4",
"4. c #AFB9C5",
"5. c #B0BAC6",
"6. c #B0BBC7",
"7. c #B1BBC8",
"8. c #B4BECA",
"9. c #B5BFCB",
"0. c #B5BFCC",
"q. c #B7C2CE",
"w. c #BCC6D2",
"e. c #C0CAD6",
"r. c #C1CBD7",
"t. c #C3CDD9",
/* pixels */
"                                                                                                                                                                                                                                    ",
"                      .                                                                                                         . .         . .                                                                                     ",
"        * / ;.5.4.7.6.6.6.6.6.6.6.6.6.6.6.6.6.6.6.6.6.6.6.6.6.6.6.6.6.6.6.6.6.6.6.6.6.8.6.6.6.6.6.6.6.6.6.6.6.6.6.6.6.6.6.6.6.6.6.6.6.4.4.6.6.6.6.6.4.6.6.6.6.6.6.6.6.6.6.6.6.6.6.6.6.6.6.6.6.6.6.6.6.6.6.6.6.6.6.6.3.=.N           ",
"      , 5.+.z w q q q q q q q q q q q q q q q q q q q q q q q q q q q q q q q q q w 7 7 q q q q q q q q q q q q q q q q q q q q q q q q q q q q q q q q q q q q q q q q q q q q q q q q q q q q q q q q q q q q q q y C 2.]         ",
"      &.)                                                                                                                                       .                                                                       $ 8.n       ",
"    . r.:                                                                                                                                                                                                               . P o.      ",
"    2 q.                                                                                                                                                                                                                  h ;.      ",
"    6 8.                                                                                                                                                                                                                  d >.      ",
"    2 q.                                                                                                                                                                                                                  d >.      ",
"    6 7.                                                                                              .       .                                                                                                           d >.      ",
"    7 q.                                                                                    + L Q ! Q V     . L C .     i L       V s                                                                                     a >.      ",
"    7 7.                                                                                      _ M < < ;     8 #...#     x _     . T m                                                                                     h <.      ",
"    6 8.                                                                                      _ l .         G G [ v     v ( .     T m                                                                                     p ,.      ",
"    6 8.                                                                                      _ K b v $ . o [ 6 D Q     v (       T m                                                                                     h ,.      ",
"    6 8.                                                                                      _ R S S $ . x Q   3 %.7 . v (       T m                                                                                     a ,.      ",
"    6 8.                                                                                      _ l     . . Q [ _ _ %.D . a `       E l                                                                                     h ,.      ",
"    6 8.                                                                                      _ l       6 } $ o o x { o O #.<   . [ *                                                                                     d ,.      ",
"    6 8.                                                                                      _ ~ Y Y H F H       + ..l . G ` G ~ T                                                                                       d ,.      ",
"    6 8.                                                                                      r u u u t w :         7 <     ; v <                                                                                         d <.      ",
"    6 8.                                                                                                            . .                                                                                                   d ,.      ",
"    2 8.                                                                                                                                                                                                                  d <.      ",
"    6 8.                                                                                                                                                                                                                  d >.      ",
"    6 q.                                                                                                                                                                                                                  s :..     ",
"    @ t.@                                                                                                                                                                                                               . Z *.      ",
"      >.A                                                                                             .       .                                                                                                         . -.I       ",
"      i w.Z +                                                                     .                   .       .       .                                                                                               ; X.1.+       ",
"        i <.r.8.7.7.8.4.6.6.6.6.6.6.6.6.6.6.6.6.6.6.6.6.6.6.6.6.6.6.6.6.6.6.6.6.6.6.6.6.6.6.6.6.4.6.6.6.4.6.6.6.5.7.4.7.6.6.4.6.6.6.6.6.6.6.6.6.6.6.6.6.6.6.6.6.6.6.6.6.6.6.6.6.6.6.6.6.6.6.6.6.5.5.5.5.8.4.8.5.6.6.q.w.O.*         ",
"            $ 0 w 7 w 7 q q q q q q q q q q q q q q q q q q q q q q q q q q q q q q q q q q q q q q q q q q q q q q q q q q q q q q q q q q q q q q q q q q q q q q q q q q q q q q q q q q q q w w 0 0 q q 7 q q q 7 .       .     "
};
