/* XPM */
static char *b1e36b292f024cf2e1a1f6a39e231c20[] = {
/* columns rows colors chars-per-pixel */
"110 29 188 2 ",
"   c #16212F",
".  c #172230",
"X  c #182230",
"o  c #182331",
"O  c #192432",
"+  c #1A2432",
"@  c #1A2533",
"#  c #1B2533",
"$  c #1B2634",
"%  c #1C2735",
"&  c #1D2735",
"*  c #1D2836",
"=  c #1E2937",
"-  c #1F2937",
";  c #1F2A38",
":  c #202B39",
">  c #212B39",
",  c #222D3A",
"<  c #232D3B",
"1  c #232E3B",
"2  c #232E3C",
"3  c #242E3C",
"4  c #25303E",
"5  c #26303E",
"6  c #26313F",
"7  c #283240",
"8  c #283341",
"9  c #2A3543",
"0  c #2B3543",
"q  c #2C3644",
"w  c #2C3745",
"e  c #2D3746",
"r  c #2D3846",
"t  c #2F3947",
"y  c #2F3A48",
"u  c #303B49",
"i  c #313B4A",
"p  c #313C4A",
"a  c #333D4C",
"s  c #333E4C",
"d  c #343E4D",
"f  c #353F4E",
"g  c #35404F",
"h  c #36404F",
"j  c #364150",
"k  c #374250",
"l  c #384351",
"z  c #384352",
"x  c #394452",
"c  c #394453",
"v  c #3A4553",
"b  c #3B4553",
"n  c #3B4655",
"m  c #3C4756",
"M  c #3F4A59",
"N  c #404B5A",
"B  c #404B5B",
"V  c #414C5C",
"C  c #424D5D",
"Z  c #434E5E",
"A  c #45505F",
"S  c #455060",
"D  c #455160",
"F  c #465261",
"G  c #475362",
"H  c #485363",
"J  c #495565",
"K  c #4A5565",
"L  c #4A5666",
"P  c #4B5666",
"I  c #4C5868",
"U  c #4D5869",
"Y  c #4E5A6A",
"T  c #4F5B6B",
"R  c #515D6E",
"E  c #535E6F",
"W  c #545F6C",
"Q  c #535F70",
"!  c #546070",
"~  c #556171",
"^  c #556172",
"/  c #566273",
"(  c #576374",
")  c #576475",
"_  c #586475",
"`  c #596677",
"'  c #5D6875",
"]  c #5B6778",
"[  c #5B6779",
"{  c #5C6879",
"}  c #5C697A",
"|  c #5D697B",
" . c #5D6A7B",
".. c #5F6B7D",
"X. c #5F6D7F",
"o. c #606D7E",
"O. c #616E7F",
"+. c #626E80",
"@. c #626F81",
"#. c #646F82",
"$. c #637081",
"%. c #647083",
"&. c #647183",
"*. c #657283",
"=. c #647184",
"-. c #657284",
";. c #657285",
":. c #667385",
">. c #667386",
",. c #677487",
"<. c #6C7683",
"1. c #687587",
"2. c #6E7885",
"3. c #6E7986",
"4. c #677488",
"5. c #697688",
"6. c #697789",
"7. c #6A778A",
"8. c #6A788B",
"9. c #6C7A8B",
"0. c #6D7A8C",
"q. c #6E7B8D",
"w. c #6D7A8E",
"e. c #6D7B8E",
"r. c #6E7C8F",
"t. c #727C89",
"y. c #6F7E91",
"u. c #707D91",
"i. c #717F91",
"p. c #707E92",
"a. c #717F92",
"s. c #718092",
"d. c #728093",
"f. c #728193",
"g. c #738194",
"h. c #738295",
"j. c #748395",
"k. c #758497",
"l. c #768498",
"z. c #778498",
"x. c #778598",
"c. c #778599",
"v. c #77869A",
"b. c #788599",
"n. c #78879B",
"m. c #7A879B",
"M. c #78889C",
"N. c #79889C",
"B. c #7A889C",
"V. c #7B889C",
"C. c #7A899D",
"Z. c #7A8A9E",
"A. c #7B8B9E",
"S. c #7C8A9F",
"D. c #7D8B9F",
"F. c #7D8C9F",
"G. c #7E8BA1",
"H. c #7D8DA0",
"J. c #7F8DA1",
"K. c #7F8CA2",
"L. c #7E8DA2",
"P. c #7F8EA2",
"I. c #7F8EA3",
"U. c #7F8EA4",
"Y. c #87919E",
"T. c #88929F",
"R. c #808FA3",
"E. c #818FA4",
"W. c #8291A6",
"Q. c #8F99A6",
"!. c #8493A8",
"~. c #909AA7",
"^. c #949EAB",
"/. c #9BA5B1",
"(. c #9BA6B2",
"). c #9DA8B4",
"_. c #A6B0BC",
"`. c #A7B1BD",
"'. c #AAB4C1",
"]. c #ABB5C1",
"[. c #B4BECA",
"{. c #B5BFCB",
"}. c #B9C3CF",
"|. c #BAC4D0",
" X c #BBC5D1",
".X c #C0CAD6",
"XX c #C7D1DD",
"oX c #C9D3DF",
/* pixels */
"                                                                                                                                                                                                                            ",
"                                                                                                                                                                                                                            ",
"    + 3.].oXoXoXoXoXoXoXoXoXoXoXoXoXoXoXoXoXoXoXoXoXoXoXoXoXoXoXoXoXoXoXoXoXoXoXoXoXoXoXoXoXoXoXoXoXoXoXoXoXoXoXoXoXoXoXoXoXoXoXoXoXoXoXoXoXoXoXoXoXoXoXoXoXoXoXoXoXoXoXoXoXoXoXoXoXoXoXoXoXoXoXoXoXoXoXoXoXoXoXoX}.Y.6     ",
"  . (.^.b +                                                                                                                                                                                                       t t.}.9   ",
"  ' ).                                                                                                                                                                                                                <.~.  ",
"  Q.W                                                                                                                                                                                                                 1 .X  ",
"  `.v                                                                                                                                                                                                                    X6 ",
"  `.x                                                                                                                                                                                                                   |.6 ",
"  `.x                                                                                                                                                                                                                   |.6 ",
"  `.x                                                                                                 .                                                   # o                               #                           |.6 ",
"  `.v                     B l.6     f ;.  a a.  @.K       < s.o r.v.z.z._     o r.[       A 7.       .C         u b.b.v.r.! + .   l.b.z.l.Y           M l.l.M.b.S   ! b.v.8.C     ] R   p 9.l.A.S                       |.6 ",
"  `.v                     A !.1.    x r.  h G.. H s.      Y o.  v.B           h I.R.-   . S p.      ;.S         f G.. - a y.=.    I.f               x R.v   o 0 e o  . .- I G.-   &._   :.I   - 6                       |.6 ",
"  `.x                     S 9.F.S   x r.  h A.  $ I.u     p.v   l.B o         @.R z.I     H s.      =.S         a I.    . j E.;   R.f o             9.7.             . .  7 W.6   &.] . 8.] X                           |.6 ",
"  `.x                     S :.S A.3 x r.  f R.  o o.[   r b.    l.*.! ! $   ; G.1 E p.    H p.      =.H         a G.    . . Z.S   R. .! Q           Z.U              .o.N 8.&.    o._   h Z.8.9                         |.6 ",
"  `.x                     S *.o 7.@.x r.  x A.    x A.o _ )     v.] H H $   U *.  3 !.u   H p..     =.H         a U.    . o M.K   R.! H S           G.S       b p    .Z.j.l.      @.) .   2 :.I.m                       |.6 ",
"  `.x                     A *.  7 I._ r.  f A.    o z.C v.e     l.B         l.b.b.l.R.[   b b..     9.m       . a I.    . u !.j   R.f               s.;.      ;.!    . .# l.W     &._ .       ] p.                      |.6 ",
"  `.x                     A *.    I W.r.  h F.      ! v.p.      b.N       h v.o     M F.+ + I.w   + Z.+         g I.    + *.8.    R.a               H E.e     ;.!    . .. j I.p   @._   1     Y 1.                      |.6 ",
"  `.x                     A *.      r.r.  h F.      7 W.Y       v.l.y.y.&.X.Q       + Z.S   R v.:.l./           g I.p.s.b.o.;     R.j.y.p. .        o ) G.1.*.Z.T    . .  . _ j.$ &.]   A.s.;.j.h                       |.6 ",
"  `.x                     $ :       $ : . + 3         < +       < < < < < < +         ; -     + g +             o < 1 <           2 3 2 3 :             $ x f $     - -     + 2 + ; -   # p r                           |.6 ",
"  `.x                               .                   .                                                                                                                         .                                     |.6 ",
"  `.x                                                                                                                                                                                                                   |.6 ",
"  `.x                                                                                                                                                                                                                   |.6 ",
"  _.v                                                                                                                                                                                                                   |.6 ",
"  Q.W                                                                                                                                                                                                                 1 .X  ",
"  ' ).                                                                                                                                                                                                                <.Q.  ",
"    ).^.b o                                                                                                                                                                                                     X y t.|.9   ",
"    o 2.'.oXoXoXoXoXoXoXoXoXoXoXoXoXoXoXoXoXoXoXoXoXoXoXoXoXoXoXoXoXoXoXoXoXoXoXoXoXoXoXoXoXoXoXoXoXoXoXoXoXoXoXoXoXoXoXoXoXoXoXoXoXoXoXoXoXoXoXoXoXoXoXoXoXoXoXoXoXoXoXoXoXoXoXoXoXoXoXoXoXoXoXoXoXoXoXoXoXoXoXXX}.Y.6     ",
"                                                                                                                                                                                                                            ",
"                                                                                                                                                                                                                            "
};
