/* XPM */
static char *ab7b460a2f9e4fb18857354b2a23c949[] = {
/* columns rows colors chars-per-pixel */
"110 29 178 2 ",
"   c #16212F",
".  c #172230",
"X  c #182230",
"o  c #182331",
"O  c #192431",
"+  c #1C2634",
"@  c #1D2735",
"#  c #212B38",
"$  c #252E3B",
"%  c #26303C",
"&  c #27313D",
"*  c #28323E",
"=  c #2A333F",
"-  c #2B3440",
";  c #2C3541",
":  c #2D3642",
">  c #2E3743",
",  c #2F3844",
"<  c #323B47",
"1  c #333C48",
"2  c #323D4B",
"3  c #343D49",
"4  c #363F4B",
"5  c #37404C",
"6  c #38414C",
"7  c #39424D",
"8  c #3A434E",
"9  c #3B444F",
"0  c #3C4550",
"q  c #3E4652",
"w  c #3F4753",
"e  c #404854",
"r  c #414954",
"t  c #424A55",
"y  c #424B56",
"u  c #434C57",
"i  c #414B59",
"p  c #414C5A",
"a  c #444D58",
"s  c #454D59",
"d  c #48505B",
"f  c #49525D",
"g  c #4B535E",
"h  c #4C545F",
"j  c #4D5560",
"k  c #4E5762",
"l  c #4F5763",
"z  c #505863",
"x  c #515964",
"c  c #525A65",
"v  c #525B66",
"b  c #535B66",
"n  c #565F6A",
"m  c #58606B",
"M  c #59616C",
"N  c #59626D",
"B  c #5A626D",
"V  c #5C646F",
"C  c #5E6671",
"Z  c #5D6875",
"A  c #5E6876",
"S  c #606873",
"D  c #626A75",
"F  c #636B76",
"G  c #646C77",
"H  c #646D78",
"J  c #666E79",
"K  c #67707B",
"L  c #67727F",
"P  c #68707B",
"I  c #69717C",
"U  c #69727D",
"Y  c #6A727D",
"T  c #6B737E",
"R  c #6B747F",
"E  c #6C757F",
"W  c #697481",
"Q  c #6D7580",
"!  c #6E7782",
"~  c #6F7782",
"^  c #707883",
"/  c #707984",
"(  c #727A85",
")  c #737B86",
"_  c #747C87",
"`  c #767E89",
"'  c #78818C",
"]  c #79818C",
"[  c #7A828D",
"{  c #78838F",
"}  c #7B838E",
"|  c #798490",
" . c #7C8590",
".. c #7D8590",
"X. c #7F8792",
"o. c #818A95",
"O. c #828B96",
"+. c #838B96",
"@. c #848C97",
"#. c #848D98",
"$. c #868E99",
"%. c #868F9A",
"&. c #87909B",
"*. c #88919C",
"=. c #89919D",
"-. c #89929D",
";. c #8B949F",
":. c #8A94A0",
">. c #8B95A1",
",. c #8E97A2",
"<. c #8F98A3",
"1. c #9099A4",
"2. c #929BA6",
"3. c #939CA7",
"4. c #909AA8",
"5. c #929CA8",
"6. c #959EA9",
"7. c #969FAA",
"8. c #969FAB",
"9. c #98A1AC",
"0. c #99A2AD",
"q. c #99A2AE",
"w. c #9AA4AF",
"e. c #9CA5B0",
"r. c #9CA5B1",
"t. c #9DA6B1",
"y. c #9EA8B3",
"u. c #A0A9B4",
"i. c #A1AAB5",
"p. c #A2ABB6",
"a. c #A2ACB7",
"s. c #A2ABB8",
"d. c #A3ACB8",
"f. c #A2ADB9",
"g. c #A4ADB8",
"h. c #A7B1BC",
"j. c #A8B1BD",
"k. c #AAB3BE",
"l. c #AAB4BF",
"z. c #ABB5C0",
"x. c #ACB5C1",
"c. c #ADB6C2",
"v. c #ADB7C2",
"b. c #AEB7C3",
"n. c #AFB8C3",
"m. c #AEB8C4",
"M. c #AFB8C4",
"N. c #AFB9C5",
"B. c #B0BAC5",
"V. c #B1BAC6",
"C. c #B1BBC6",
"Z. c #B3BCC8",
"A. c #B3BDC8",
"S. c #B4BDC9",
"D. c #B5BECA",
"F. c #B7C0CC",
"G. c #B7C1CC",
"H. c #B7C2CD",
"J. c #B8C1CD",
"K. c #B8C2CD",
"L. c #B9C3CE",
"P. c #BBC5D1",
"I. c #BCC5D1",
"U. c #BDC7D2",
"Y. c #BDC7D3",
"T. c #BFC9D4",
"R. c #BFC9D5",
"E. c #C0CAD5",
"W. c #C0CAD6",
"Q. c #C1CBD7",
"!. c #C2CCD8",
"~. c #C3CDD9",
"^. c #C4CEDA",
"/. c #C5CFDB",
"(. c #C6D0DC",
"). c #C7D1DD",
"_. c #C8D2DE",
"`. c #C9D3DF",
/* pixels */
"                                                                                                                                                                                                                            ",
"                                                                                                                                                                                  X                                         ",
"      p 5.^.`.`.`.`.`.`.`.`.`.`.`.`.`.`.`.`.`.`.`.`.`.`.`.`.`.`.`.`.`.`.`.`.`.`.`.`.`.`.`.`.`.`.`.`.`.`.`.`.`.`.`.`.`.`.`.`.`.`.`.`.`.`.`.`.`.`.`.`.`.`.`.`.`.`.`.`.`.`.`.`.`.`.`.`.`.`.`.`.`.`.`.`.`.`.`.`.`.`.`.a.A       ",
"    | `.`.`.`.`.`.`.`.`.`.`.`.`.`.`.`.`.`.`.`.`.`.`.`.`.`.`.`.`.`.`.`.`.`.`.`.`.`.`.`.`.`.`.`.`.`.`.`.`.`.`.`.`.`.`.`.`.`.`.`.`.`.`.`.`.`.`.`.`.`.`.`.`.`.`.`.`.`.`.`.`.`.`.`.`.`.`.`.`.`.`.`.`.`.`.`.`.`.`.`.`.`.`.`.C.X   ",
"  2 `.`.`.`.`.`.`.`.`.`.`.`.`.`.`.`.`.`.`.`.`.`.`.`.`.`.`.`.`.`.`.`.`.`.`.`.`.`.`.`.`.`.`.`.`.`.`.`.`.`.`.`.`.`.`.`.`.`.`.`.`.`.`.`.`.`.`.`.`.`.`.`.`.`.`.`.`.`.`.`.`.`.`.`.`.`.`.`.`.`.`.`.`.`.`.`.`.`.`.`.`.`.`.`.`.`.Q . ",
"  L `.`.`.`.`.`.`.`.`.`.`.`.`.`.`.`.`.`.`.`.`.`.`.`.`.`.`.`.`.`.`.`.`.`.`.`.`.`.`.`.`.`.`.`.`.`.`.`.`.`.`.`.`.`.`.`.`.`.`.`.`.`.`.`.`.`.`.`.`.`.`.`.`.`.`.`.`.`.`.`.`.`.`.`.`.`.`.`.`.`.`.`.`.`.`.`.`.`.`.`.`.`.`.`.`.`.G.. ",
"  >.`.`.`.`.`.`.`.`.`.`.`.`.`.`.`.`.`.`.`.`.`.`.`.`.`.`.`.`.`.`.`.`.`.`.`.`.`.`.`.`.`.`.`.`.`.`.`.`.`.`.`.`.`.`.`.`.`.`.`.`.`.`.`.`.`.`.`.`.`.`.`.`.`.`.`.`.`.`.`.`.`.`.`.`.`.`.`.`.`.`.`.`.`.`.`.`.`.`.`.`.`.`.`.`.`.`._.. ",
"  >.`.`.`.`.`.`.`.`.`.`.`.`.`.`.`.`.`.`.`.`.`.`.`.`.`.`.`.`.`.`.`.`.`.`.`.`.`.`.`.`.`.`.`.`.`.`.`.`.`.`.`.`.`.`.`.`.`.`.`.`.`.`.`.`.`.`.`.`.`.`.`.`.`.`.`.`.`.`.`.`.`.`.`.`.`.`.`.`.`.`.`.`.`.`.`.`.`.`.`.`.`.`.`.`.`._._.. ",
". >.`.`.`.`.`.`.`.`.`.`.`.`.`.`.`.`.`.`.`.`.`.`.`.`.`.`.`.`.`.`.`.`.`.`.`.`.`.`.`.`.`.`.`.`.`.`.`.`.`.`.`.`.`.`.`.`.`.`.`.`.`.`.`.`.`.`.`.`.`.`.`.`.`.`.`.`.`.`.`.`.`.`.`.`.`.`.`.`.`.`.`.`.`.`.`.`.`.`.`.`.`.`.`.`.`.`.`.. ",
"  >.`.`.`.`.`.`.`.`.`.`.`.`.`.`.`.`.`.`.`.`.`.`.`.`.`.`.`.`.`.`.`.`.`.`.`.`.`.`.`.`.`.`.`.`.`.`.`.`.`.`.`.`.`.`.`.`.`.`.`.`.`.`.`.`.`.`.`.`.`.`.`.`.`.`.`.^.`.`.`.`.`.`.`.`.`.`.`.`.`.`.`.`.).`.`.`.`.`.`.`.`.`.`.`.`.`.`.. ",
"  >.`.`.`.`.`.`.`.`.`.`.`.p.u U.`.`.n.P `.C.h `.~ 7.`.`.`.T.k `.M e e u o.`.`.`.M } `.`.`.y.G `.`.`.] u.`.`.`.`.A.9 e e B $.(.`.`.u e u u <.`.`.`.`.`.a.g u 7 e w.`.@.q q S u.`.`...*.`.A.B u 4 e._.`.`.`.`.`.`.`.`.`.`.`.. ",
"  >.`.`.`.`.`.`.`.`.`.`.`.r.  H `.`.l.n `.v., `.q.l `.`.`.<._ `.e a.`.`.`.`.`.c.= % !.`.`.9.x `.`.`.P q.`.`.`.`.C.= `.^.C.c P `.`.$ A.`.`.`.`.`.`.`.k.$ k.`.`.K.G.`.' ' !.5.: ^.`.~ o.`.P 2.`.!.Y.`.`.`.`.`.`.`.`.`.`.`.`.. ",
"  >.`.`.`.`.`.`.`.`.`.`.`.r.V , r.`.l.n `.v., `.^.= A.`.`.x l.`.u a.`.`.`.`.`.( ;.q 7.`.`.9.x `.`.`.Y w.`.`.`.`.v.= `.`.`.v.# ~.`.% A.`.`.`.`.`.`.`.V D `.`.`.`.`.`.' ' `.P.  U.`.( o.`.B [ `.`.`.`.`.`.`.`.`.`.`.`.`.`.`.. ",
"  >.`.`.`.`.`.`.`.`.`.`.`.r.T q.< E.c.n `.v., `.`.( ..`.F.e `.`.e E $.$.^.`.!., R.&.c `.`.9.x `.`.`.T q.`.`.`.`.A.= `.`.`._.5 w.`.% _ $.*.`.`.`.`.`.5 2.`.`.`.`.`.`.' ! a.D T `.`.~ ..`.n.4 V K.`.`.`.`.`.`.`.`.`.`.`.`.`.. ",
"  >.`.`.`.`.`.`.`.`.`.`.`.e.T `.S E l.n `.v., `.`.c.1 `.o.o.`.`.u ..9.9.(.`.2.P `.T.O A.`.q.x `.`.`.P q.`.`.`.`.v.= `.`.`._.9 6.`.% $.9.w.`.`.`.`.`.> q.`.`.`.k.A.`.] 9 g a `.`.`.( ..`.`.E.P : h.`.`.`.`.`.`.`.`.`.`.`.`.. ",
"  >.`.`.`.`.`.`.`.`.`.`.`.e.T `.U.= o.n `.v.> `.`.`.e u.q F.`.`.t p.`.`.`.`.h 0 u u - [ `.h.9 `.`.`.V h.`.`.`.`.A.= `.`.`.A.  c.`.$ A.`.`.`.`.`.`.`.x P `.`.`.T &.`.' ' ^.a <.`.`.~ o.`.`.`.`...v `.`.`.`.`.`.`.`.`.`.`.`.. ",
"  >.`.`.`.`.`.`.`.`.`.`.`.e.T `.`.5.+ n `.c., `.`.`.&.e c `.`.`.e a.`.`.`.v.q `.`.`.p.> (._.= K.`._.5 (.`.`.`.`.B.= `.`.(.E C `.`.% C.`.`.`.`.`.`.`.9.% G.`.`.H $.`.' ] `.c.$ C.`.~ o.`.E.`.`.5.F `.`.`.`.`.`.`.`.`.`.`.`.. ",
"  >.`.`.`.`.`.`.`.`.`.`.`.e.T `.`._.m n `.c., `.`.`.P.O 5.`.`.`.u u v v Y ) *.`.`.`.`.7 w.`.;.q G d $.`.`.`.`.`.B.O v g q _ !.`.`.% g c c ] `.`.`.`._.o.: D Q 2 ,.`.' ] `.`.o.d ^.~ ..`.3 h G g N.`.`.`.`.`.`.`.`.`.`.`.`.. ",
"  >.`.`.`.`.`.`.`.`.`.`.`./.!.`.`.`./.!._._.R.`.`.`.`.R.^.`.`.`.E.E.R.T.!.E.(.`.`.`.`.!.~.`.`._.N.(.`.`.`.`.`.`._.T.T.!.`.`.`.`.`.R.T.T.R.!._.`.`.`.`.`.~.N.C.~.`.`.!.^.`.`.`.E.`.E.^.`.`.C.D.`.`.`.`.`.`.`.`.`.`.`.`.`.`.. ",
"  >.`.`.`.`.`.`.`.`.`.`.`.`.`.`.`.`.`.`.`.`.`.`.`.`.`.`.`.`.`.`.`.`.`.`.`.`.`.`.`.`.`.`.`.`.`.`.`.`.`.`.`.`.`.`.`.`.`.`.`.`.`.`.`.`.`.`.`.`.`.`.`.`.`.`.`.`.`.`.`.`.`.`.`.`.`.`.`.`.`.`.`.`.`.`.`.`.`.`.`.`.`.`.`.`.`.`.`.. ",
"  >.`.`.`.`.`.`.`.`.`.`.`.`.`.`.`.`.`.`.`.`.`.`.`.`.`.`.`.`.`.`.`.`.`.`.`.`.`.`.`.`.`.`.`.`.`.`.`.`.`.`.`.`.`.`.`.`.`.`.`.`.`.`.`.`.`.`.`.`.`.`.`.`.`.`.`.`.`.`.`.`.`.`.`.`.`.`.`.`.`.`.`.`.`.`.`.`.`.`.`.`.`.`.`.`.`.`._.. ",
"  >.`.`.`.`.`.`.`.`.`.`.`.`.`.`.`.`.`.`.`.`.`.`.`.`.`.`.`.`.`.`.`.`.`.`.`.`.`.`.`.`.`.`.`.`.`.`.`.`.`.`.`.`.`.`.`.`.`.`.`.`.`.`.`.`.`.`.`.`.`.`.`.`.`.`.`.`.`.`.`.`.`.`.`.`.`.`.`.`.`.`.`.`.`.`.`.`.`.`.`.`.`.`.`.`.`.`.`.. ",
"  :.`.`.`.`.`.`.`.`.`.`.`.`.`.`.`.`.`.`.`.`.`.`.`.`.`.`.`.`.`.`.`.`.`.`.`.`.`.`.`.`.`.`.`.`.`.`.`.`.`.`.`.`.`.`.`.`.`.`.`.`.`.`.`.`.`.`.`.`.`.`.`.`.`.`.`.`.`.`.`.`.`.`.`.`.`.`.`.`.`.`.`.`.`.`.`.`.`.`.`.`.`.`.`.`.`.`.`.. ",
"  L `.`.`.`.`.`.`.`.`.`.`.`.`.`.`.`.`.`.`.`.`.`.`.`.`.`.`.`.`.`.`.`.`.`.`.`.`.`.`.`.`.`.`.`.`.`.`.`.`.`.`.`.`.`.`.`.`.`.`.`.`.`.`.`.`.`.`.`.`.`.`.`.`.`.`.`.`.`.`.`.`.`.`.`.`.`.`.`.`.`.`.`.`.`.`.`.`.`.`.`.`.`.`.`.`.`.G.  ",
"  2 `.`.`.`.`.`.`.`.`.`.`.`.`.`.`.`.`.`.`.`.`.`.`.`.`.`.`.`.`.`.`.`.`.`.`.`.`.`.`.`.`.`.`.`.`.`.`.`.`.`.`.`.`.`.`.`.`.`.`.`.`.`.`.`.`.`.`.`.`.`.`.`.`.`.`.`.`.`.`.`.`.`.`.`.`.`.`.`.`.`.`.`.`.`.`.`.`.`.`.`.`.`.`.`.`.`.Q   ",
"    { `.`.`.`.`.`.`.`.`.`.`.`.`.`.`.`.`.`.`.`.`.`.`.`.`.`.`.`.`.`.`.`.`.`.`.`.`.`.`.`.`.`.`.`.`.`.`.`.`.`.`.`.`.`.`.`.`.`.`.`.`.`.`.`.`.`.`.`.`.`.`.`.`.`.`.`.`.`.`.`.`.`.`.`.`.`.`.`.`.`.`.`.`.`.`.`.`.`.`.`.`.`.`._.N..   ",
"      i 4.^.`.`.`.`.`.`.`.`.`.`.`.`.`.`.`.`.`.`.`.`.`.`.`.`.`.`.`.`.`.`.`.`.`.`.`.`.`.`.`.`.`.`.`.`.`.`.`.`.`.`.`.`.`.`.`.`.`.`.`.`.`.`.`.`.`.`.`.`.`.`.`.`.`.`.`.`.`.`.`.`.`.`.`.`.`.`.`.`.`.`.`._.`.`._.`.`._._.s.A .     ",
"                      .                                                                                                                                                                         .     .     .   .           ",
"                                                                                                                                                                                                                            "
};
