/* XPM */
static char *_vy89_ue5mw[] = {
/* columns rows colors chars-per-pixel */
"114 28 153 2 ",
"   c #16212F",
".  c #172230",
"X  c #1A2432",
"o  c #1A2532",
"O  c #1A2533",
"+  c #1C2735",
"@  c #1F2936",
"#  c #1E2937",
"$  c #202A37",
"%  c #212B38",
"&  c #222C39",
"*  c #212C3A",
"=  c #242D3A",
"-  c #252E3B",
";  c #28323E",
":  c #273240",
">  c #283341",
",  c #2B3440",
"<  c #2A3543",
"1  c #2C3541",
"2  c #2D3642",
"3  c #2E3743",
"4  c #2F3A48",
"5  c #303945",
"6  c #333C48",
"7  c #3A434E",
"8  c #3B444F",
"9  c #3A4552",
"0  c #3C4550",
"q  c #3D4551",
"w  c #3E4652",
"e  c #3F4753",
"r  c #3E4855",
"t  c #3D4856",
"y  c #3E4957",
"u  c #404854",
"i  c #414954",
"p  c #424A55",
"a  c #424B56",
"s  c #434C57",
"d  c #444D58",
"f  c #454D59",
"g  c #474F5A",
"h  c #47525F",
"j  c #49525D",
"k  c #4A525E",
"l  c #4B535E",
"z  c #4C545F",
"x  c #4B5562",
"c  c #4D5560",
"v  c #4F5763",
"b  c #4E5966",
"n  c #505863",
"m  c #515964",
"M  c #525A65",
"N  c #535B66",
"B  c #545C67",
"V  c #565F6A",
"C  c #575F6A",
"Z  c #56606E",
"A  c #59616C",
"S  c #59626D",
"D  c #5A626D",
"F  c #5B636E",
"G  c #5C646F",
"H  c #5D6570",
"J  c #5E6671",
"K  c #5F6873",
"L  c #646C77",
"P  c #646D78",
"I  c #666E79",
"U  c #676F7A",
"Y  c #67707B",
"T  c #69717C",
"R  c #6A727D",
"E  c #68737F",
"W  c #6B737E",
"Q  c #6D7580",
"!  c #6C7783",
"~  c #6E7782",
"^  c #707883",
"/  c #747C87",
"(  c #717B89",
")  c #767E89",
"_  c #767F8A",
"`  c #777F8A",
"'  c #79818C",
"]  c #7A828D",
"[  c #7A838E",
"{  c #7B838E",
"}  c #7D8691",
"|  c #7C8693",
" . c #818994",
".. c #818A95",
"X. c #828B96",
"o. c #838B96",
"O. c #858E99",
"+. c #87909B",
"@. c #86909D",
"#. c #89919D",
"$. c #8A939E",
"%. c #8E96A1",
"&. c #8E97A2",
"*. c #939CA7",
"=. c #959EA9",
"-. c #969FAA",
";. c #9CA5B0",
":. c #9EA7B2",
">. c #9FA8B3",
",. c #A0A9B4",
"<. c #A2ACB7",
"1. c #A2ADB9",
"2. c #A4ADB8",
"3. c #A5AEB9",
"4. c #A6B0BB",
"5. c #A7B0BC",
"6. c #A9B2BD",
"7. c #A9B2BE",
"8. c #AAB3BE",
"9. c #ABB5C0",
"0. c #ACB5C1",
"q. c #ACB6C1",
"w. c #ADB6C2",
"e. c #AEB7C3",
"r. c #AFB8C4",
"t. c #B0B9C5",
"y. c #B1BBC7",
"u. c #B2BCC7",
"i. c #B4BECA",
"p. c #B6C0CB",
"a. c #B7C0CC",
"s. c #B7C1CC",
"d. c #B8C1CD",
"f. c #B8C2CD",
"g. c #B9C2CE",
"h. c #B9C3CE",
"j. c #B9C3CF",
"k. c #BAC3CF",
"l. c #BBC5D1",
"z. c #BCC5D1",
"x. c #BCC6D2",
"c. c #BEC8D4",
"v. c #BFC9D4",
"b. c #C0CAD6",
"n. c #C1CBD7",
"m. c #C2CCD8",
"M. c #C3CDD9",
"N. c #C4CEDA",
"B. c #C5CFDB",
"V. c #C6D0DC",
"C. c #C7D1DD",
"Z. c #C8D2DE",
"A. c #C9D3DF",
/* pixels */
"                                                                                                                                                                                                                                    ",
"              # * * * * * * * * * * * * * * * * * * * * * * * * * * * * * * * * * * * * * * * * * * * * * * * * * * * * * * * * * * * * * * * * * * * * * * * * * * * * * * * * * * * * * * * * * * * * * * * * * * * +             ",
"        . Z B.A.A.A.A.A.A.A.A.A.A.A.A.A.A.A.A.A.A.A.A.A.A.A.A.A.A.A.A.A.A.A.A.A.A.A.A.A.A.A.A.A.A.A.A.A.A.A.A.A.A.A.A.A.A.A.A.A.A.A.A.A.A.A.A.A.A.A.A.A.A.A.A.A.A.A.A.A.A.A.A.A.A.A.A.A.A.A.A.A.A.A.A.A.A.A.A.A.A.A.A.A.j.9         ",
"        ! A.A.A.A.A.A.A.A.A.A.A.A.A.A.A.A.A.A.A.A.A.A.A.A.A.A.A.A.A.A.A.A.A.A.A.A.A.A.A.A.A.A.A.A.A.A.A.A.A.A.A.A.A.A.A.A.A.A.A.A.A.A.A.A.A.A.A.A.A.A.A.A.A.A.A.A.A.A.A.A.A.A.A.A.A.A.A.A.A.A.A.A.A.A.A.A.A.A.A.A.A.A.A.A.A.t       ",
"      * A.A.A.A.A.A.A.A.A.A.A.A.A.A.A.A.A.A.A.A.A.A.A.A.A.A.A.A.A.A.A.A.A.A.A.A.A.A.A.A.A.A.A.A.A.A.A.A.A.A.A.A.A.A.A.A.A.A.A.A.A.A.A.A.A.A.A.A.A.A.A.A.A.A.A.A.A.A.A.A.A.A.A.A.A.A.A.A.A.A.A.A.A.A.A.A.A.A.A.A.A.A.A.A.A.A.c..     ",
"      y A.A.A.A.A.A.A.A.A.A.A.A.A.A.A.A.A.A.A.A.A.A.A.A.A.A.A.A.A.A.A.A.A.A.A.A.A.A.A.A.A.A.A.A.A.A.A.A.A.A.A.A.A.A.A.A.A.A.A.A.A.A.A.A.A.A.A.A.A.A.A.A.A.A.A.A.A.A.A.A.A.A.A.A.A.A.A.A.A.A.A.A.A.A.A.A.A.A.A.A.A.A.A.A.A.A.A.*     ",
"      b A.A.A.A.A.A.A.A.A.A.A.A.A.A.A.A.A.A.A.A.A.A.A.A.A.A.A.A.A.A.A.A.A.A.A.A.A.A.A.A.A.A.A.A.A.A.A.A.A.A.A.A.A.A.A.A.A.A.A.A.A.A.A.A.A.A.A.A.A.A.A.A.A.A.A.A.A.A.A.A.A.A.A.A.A.A.A.A.A.A.A.A.A.A.A.A.A.A.A.A.A.A.A.A.A.A.A.<     ",
"      b A.A.A.A.A.A.A.A.A.A.A.A.A.A.A.A.A.A.A.A.A.A.A.A.A.A.A.A.A.A.A.A.A.A.A.A.A.A.A.A.A.A.A.A.A.A.A.A.A.A.A.A.A.A.A.A.A.A.A.A.A.A.A.A.A.A.A.A.A.A.A.A.A.A.A.A.A.A.A.A.A.A.A.A.A.A.A.A.A.A.A.A.A.A.A.A.A.A.A.A.A.A.A.A.A.A.A.<     ",
"      b A.A.A.A.A.A.A.A.A.A.A.A.A.A.A.A.A.A.A.A.A.A.A.A.A.A.A.A.A.A.A.A.A.A.A.A.A.A.A.A.A.A.A.A.A.A.A.A.A.A.A.A.A.A.A.A.A.A.A.A.A.A.A.A.A.A.A.A.A.A.A.A.A.A.A.A.A.A.A.A.A.A.A.A.A.A.A.A.A.A.A.A.A.A.A.A.A.A.A.A.A.A.A.A.A.A.A.<     ",
"      b A.A.A.A.A.A.A.A.A.A.A.A.A.A.A.A.A.A.A.A.A.A.A.A.A.A.A.A.A.A.A.A.N.h.N.A.A.A.N.h.C.A.A.A.v.b.A.A.A.B.h.h.M.A.A.A.N.h.k.C.A.A.A.k.h.c.A.A.A.Z.h.h.h.h.m.A.A.A.A.A.A.A.A.A.A.A.A.A.A.A.A.A.A.A.A.A.A.A.A.A.A.A.A.A.A.A.A.<     ",
"      b A.A.A.A.A.A.A.A.A.A.A.A.A.A.A.A.A.A.A.A.A.A.A.A.A.A.A.A.A.A.A.A.,.  O.A.A.A...  h.A.A.Z.w V A.A.A.6.$ C 6 A N.A.<.= v 6 ` A.A.& M q g w.A.Z.  B F F :.A.A.A.A.A.A.A.A.A.A.A.A.A.A.A.A.A.A.A.A.A.A.A.A.A.A.A.A.A.A.A.A.<     ",
"      b A.A.A.A.A.A.A.A.A.A.A.A.A.A.A.A.A.A.A.A.A.A.A.A.A.A.A.A.A.A.A.A.,.2 a Z.A.Z.d % h.A.A.4.u o p.A.A.6.7 A.C.p =.A.<.d A.s.o f.A.& i.A.) Y A.Z.  g.A.A.A.A.A.A.A.A.A.A.A.A.A.A.A.A.A.A.A.A.A.A.A.A.A.A.A.A.A.A.A.A.A.A.A.<     ",
"      b A.A.A.A.A.A.A.A.A.A.A.A.A.A.A.A.A.A.A.A.A.A.A.A.A.A.A.A.A.A.A.A.,.L 5 r.A.6.T 1 h.A.A.Y *.H } A.A.6.7 A.Z.q ;.A.<.d A.r.3 V.A.& i.A./ ~ A.Z.  g.A.A.A.A.A.A.A.A.A.A.A.A.A.A.A.A.A.A.A.A.A.A.A.A.A.A.A.A.A.A.A.A.A.A.A.<     ",
"      b A.A.A.A.A.A.A.A.A.A.A.A.A.A.A.A.A.A.A.A.A.A.A.A.A.A.A.A.A.A.A.A.,.U _ ' A.^ 2.1 h.A.c.3 M.:.6 V.A.6.2 #.S P N.A.<.; D 8 a.A.A.&  .W j i.A.Z.  N D Y A.A.A.A.A.A.A.A.A.A.A.A.A.A.A.A.A.A.A.A.A.A.A.A.A.A.A.A.A.A.A.A.A.<     ",
"      b A.A.A.A.A.A.A.A.A.A.A.A.A.A.A.A.A.A.A.A.A.A.A.A.A.A.A.A.A.A.A.A.,.U q.6 m.p C.1 h.A.$.G q.8.- >.A.6., +., 9.A.A.<.i t.{ z v.A.& ] c o.A.A.Z.  0.l.x.A.A.A.A.A.A.A.A.A.A.A.A.A.A.A.A.A.A.A.A.A.A.A.A.A.A.A.A.A.A.A.A.A.<     ",
"      b A.A.A.A.A.A.A.A.A.A.A.A.A.A.A.A.A.A.A.A.A.A.A.A.A.A.A.A.A.A.A.A.,.U Z.e ~ { A.1 h.Z.p Y Q Q n K A.6.7 A.=.0 m.A.<.d A.Z.l &.A.& i.a.; 0.A.Z.  g.A.A.A.A.A.A.A.A.A.A.A.A.A.A.A.A.A.A.A.A.A.A.A.A.A.A.A.A.A.A.A.A.A.A.A.<     ",
"      b A.A.A.A.A.A.A.A.A.A.A.A.A.A.A.A.A.A.A.A.A.A.A.A.A.A.A.A.A.A.A.A.,.U A.X.  u.A.1 h.6.j Z.A.A.a.o l.6.7 A.Z.J Q A.<.s n.7.@ 3.A.& i.A.&.q m.Z.  a.C.C.C.A.A.A.A.A.A.A.A.A.A.A.A.A.A.A.A.A.A.A.A.A.A.A.A.A.A.A.A.A.A.A.A.<     ",
"      b A.A.A.A.A.A.A.A.A.A.A.A.A.A.A.A.A.A.A.A.A.A.A.A.A.A.A.A.A.A.A.A.5.[ A.c.2.A.A.m z.X.-.A.A.A.A.R -.e.D A.A.z.k 8.7.f f J %.Z.A.z d.A.Z.I +.Z.f f f f ' A.A.A.A.A.A.A.A.A.A.A.A.A.A.A.A.A.A.A.A.A.A.A.A.A.A.A.A.A.A.A.A.<     ",
"      b A.A.A.A.A.A.A.A.A.A.A.A.A.A.A.A.A.A.A.A.A.A.A.A.A.A.A.A.A.A.A.A.A.A.A.A.A.A.A.A.A.A.A.A.A.A.A.A.A.A.A.A.A.A.A.A.A.A.A.A.A.A.A.A.A.A.A.A.A.A.A.A.A.A.A.A.A.A.A.A.A.A.A.A.A.A.A.A.A.A.A.A.A.A.A.A.A.A.A.A.A.A.A.A.A.A.A.<     ",
"      b A.A.A.A.A.A.A.A.A.A.A.A.A.A.A.A.A.A.A.A.A.A.A.A.A.A.A.A.A.A.A.A.A.A.A.A.A.A.A.A.A.A.A.A.A.A.A.A.A.A.A.A.A.A.A.A.A.A.A.A.A.A.A.A.A.A.A.A.A.A.A.A.A.A.A.A.A.A.A.A.A.A.A.A.A.A.A.A.A.A.A.A.A.A.A.A.A.A.A.A.A.A.A.A.A.A.A.<     ",
"      b A.A.A.A.A.A.A.A.A.A.A.A.A.A.A.A.A.A.A.A.A.A.A.A.A.A.A.A.A.A.A.A.A.A.A.A.A.A.A.A.A.A.A.A.A.A.A.A.A.A.A.A.A.A.A.A.A.A.A.A.A.A.A.A.A.A.A.A.A.A.A.A.A.A.A.A.A.A.A.A.A.A.A.A.A.A.A.A.A.A.A.A.A.A.A.A.A.A.A.A.A.A.A.A.A.A.A.<     ",
"      b A.A.A.A.A.A.A.A.A.A.A.A.A.A.A.A.A.A.A.A.A.A.A.A.A.A.A.A.A.A.A.A.A.A.A.A.A.A.A.A.A.A.A.A.A.A.A.A.A.A.A.A.A.A.A.A.A.A.A.A.A.A.A.A.A.A.A.A.A.A.A.A.A.A.A.A.A.A.A.A.A.A.A.A.A.A.A.A.A.A.A.A.A.A.A.A.A.A.A.A.A.A.A.A.A.A.A.<     ",
"      x A.A.A.A.A.A.A.A.A.A.A.A.A.A.A.A.A.A.A.A.A.A.A.A.A.A.A.A.A.A.A.A.A.A.A.A.A.A.A.A.A.A.A.A.A.A.A.A.A.A.A.A.A.A.A.A.A.A.A.A.A.A.A.A.A.A.A.A.A.A.A.A.A.A.A.A.A.A.A.A.A.A.A.A.A.A.A.A.A.A.A.A.A.A.A.A.A.A.A.A.A.A.A.A.A.A.A.>     ",
"      4 A.A.A.A.A.A.A.A.A.A.A.A.A.A.A.A.A.A.A.A.A.A.A.A.A.A.A.A.A.A.A.A.A.A.A.A.A.A.A.A.A.A.A.A.A.A.A.A.A.A.A.A.A.A.A.A.A.A.A.A.A.A.A.A.A.A.A.A.A.A.A.A.A.A.A.A.A.A.A.A.A.A.A.A.A.A.A.A.A.A.A.A.A.A.A.A.A.A.A.A.A.A.A.A.A.A.A.O     ",
"      . y.A.A.A.A.A.A.A.A.A.A.A.A.A.A.A.A.A.A.A.A.A.A.A.A.A.A.A.A.A.A.A.A.A.A.A.A.A.A.A.A.A.A.A.A.A.A.A.A.A.A.A.A.A.A.A.A.A.A.A.A.A.A.A.A.A.A.A.A.A.A.A.A.A.A.A.A.A.A.A.A.A.A.A.A.A.A.A.A.A.A.A.A.A.A.A.A.A.A.A.A.A.A.A.A.A.@.      ",
"        : j.A.A.A.A.A.A.A.A.A.A.A.A.A.A.A.A.A.A.A.A.A.A.A.A.A.A.A.A.A.A.A.A.A.A.A.A.A.A.A.A.A.A.A.A.A.A.A.A.A.A.A.A.A.A.A.A.A.A.A.A.A.A.A.A.A.A.A.A.A.A.A.A.A.A.A.A.A.A.A.A.A.A.A.A.A.A.A.A.A.A.A.A.A.A.A.A.A.A.A.A.A.A.A.1.O       ",
"          X h ( | | | | | | | | | | | | | | | | | | | | | | | | | | | | | | | | | | | | | | | | | | | | | | | | | | | | | | | | | | | | | | | | | | | | | | | | | | | | | | | | | | | | | | | | | | | | | | | | | | | E r .         ",
"                                                                                                                                                                                                                                    "
};
