/* XPM */
static char *km56v_5ztmo[] = {
/* columns rows colors chars-per-pixel */
"114 28 178 2 ",
"   c #16212F",
".  c #172230",
"X  c #182230",
"o  c #182331",
"O  c #192432",
"+  c #1A2533",
"@  c #1B2533",
"#  c #1C2735",
"$  c #1D2735",
"%  c #1D2836",
"&  c #1E2937",
"*  c #1F2937",
"=  c #1F2A38",
"-  c #202B39",
";  c #212B39",
":  c #212C3A",
">  c #222D3A",
",  c #242E3C",
"<  c #252F3D",
"1  c #26313F",
"2  c #273140",
"3  c #283240",
"4  c #283341",
"5  c #2A3443",
"6  c #2B3543",
"7  c #2B3644",
"8  c #2C3644",
"9  c #2C3744",
"0  c #2C3745",
"q  c #2D3746",
"w  c #2D3846",
"e  c #2E3847",
"r  c #2F3947",
"t  c #303A48",
"y  c #313C49",
"u  c #323C4B",
"i  c #323D4B",
"p  c #343F4D",
"a  c #353F4E",
"s  c #36404F",
"d  c #36414F",
"f  c #374250",
"g  c #374251",
"h  c #384351",
"j  c #384352",
"k  c #3A4553",
"l  c #3A4554",
"z  c #3B4655",
"x  c #3C4754",
"c  c #3C4756",
"v  c #3D4857",
"b  c #3E4958",
"n  c #3F4A59",
"m  c #404B5A",
"M  c #434E5B",
"N  c #424D5D",
"B  c #434E5D",
"V  c #444F5E",
"C  c #455160",
"Z  c #4A5565",
"A  c #4A5666",
"S  c #4B5666",
"D  c #4D5765",
"F  c #4D5866",
"G  c #4F5A67",
"H  c #4C5868",
"J  c #4F5B6B",
"K  c #525D6A",
"L  c #535E6B",
"P  c #505B6C",
"I  c #525E6F",
"U  c #535F70",
"Y  c #546071",
"T  c #556172",
"R  c #576374",
"E  c #576475",
"W  c #596471",
"Q  c #586475",
"!  c #5A6678",
"~  c #5C6879",
"^  c #5C687A",
"/  c #5C697A",
"(  c #5D697B",
")  c #5E6B7C",
"_  c #5F6B7D",
"`  c #606B78",
"'  c #606D7E",
"]  c #65707D",
"[  c #66717E",
"{  c #626F81",
"}  c #646F82",
"|  c #637081",
" . c #657283",
".. c #647184",
"X. c #657285",
"o. c #667386",
"O. c #677486",
"+. c #677487",
"@. c #6A7481",
"#. c #6A7582",
"$. c #6B7583",
"%. c #687587",
"&. c #677488",
"*. c #6A778A",
"=. c #6A788B",
"-. c #6C7A8B",
";. c #6C798C",
":. c #6D7A8C",
">. c #6C7A8D",
",. c #6E7B8D",
"<. c #6D7A8E",
"1. c #6E7C8E",
"2. c #6E7C8F",
"3. c #747F8B",
"4. c #6F7E91",
"5. c #707C90",
"6. c #717F91",
"7. c #707E92",
"8. c #717F92",
"9. c #75808D",
"0. c #77818E",
"q. c #78828F",
"w. c #728093",
"e. c #728193",
"r. c #738194",
"t. c #738295",
"y. c #748295",
"u. c #758397",
"i. c #758497",
"p. c #7A8592",
"a. c #768498",
"s. c #778498",
"d. c #778598",
"f. c #778599",
"g. c #77869A",
"h. c #788599",
"j. c #79869A",
"k. c #78879B",
"l. c #7A879B",
"z. c #78889C",
"x. c #79889C",
"c. c #7B8B9E",
"v. c #7D8BA0",
"b. c #7E8BA1",
"n. c #7D8DA0",
"m. c #7F8DA1",
"M. c #7F8CA2",
"N. c #7F8EA2",
"B. c #7F8EA4",
"V. c #818B98",
"C. c #87919E",
"Z. c #818FA3",
"A. c #818FA4",
"S. c #8090A5",
"D. c #8190A5",
"F. c #8291A5",
"G. c #8392A7",
"H. c #8B95A2",
"J. c #8C96A3",
"K. c #8D98A4",
"L. c #8E98A5",
"P. c #8F9AA6",
"I. c #8493A8",
"U. c #929DA9",
"Y. c #96A0AD",
"T. c #9DA7B4",
"R. c #A0ABB7",
"E. c #A4AEBA",
"W. c #A5AFBC",
"Q. c #A6B0BC",
"!. c #ADB7C3",
"~. c #B4BECA",
"^. c #B5BFCB",
"/. c #BAC4D1",
"(. c #BCC6D2",
"). c #BFC9D5",
"_. c #C1CBD7",
"`. c #C3CDD9",
/* pixels */
"                                                                                                                                                                                                                                    ",
"            % x M M M M M M M M M M M M M M M M M M M M M M M M M M M M M M M M M M M M M M M M M M M M M M M M M M M M M M M M M M M M M M M M M M M M M M M M M M M M M M M M M M M M M M M M M M M M M M M M M M M d O           ",
"        & V.`.Q.T.T.T.T.T.T.T.T.T.T.T.T.T.T.T.T.T.T.T.T.T.T.T.T.T.T.T.T.T.T.T.T.T.T.T.T.T.T.T.T.T.T.T.T.T.T.T.T.T.T.T.T.T.T.T.T.T.T.T.T.T.T.T.T.T.T.T.T.T.T.T.T.T.T.T.T.T.T.T.T.T.T.T.T.T.T.T.T.T.T.T.T.T.T.T.T.T.T.T.!._.[ .       ",
"        U.H.;                                                                                                                                                                                                           r W.#.      ",
"      M !.+                                                                                                                                                                                                               9 ).-     ",
"      $.q.                                                                                                                                                                                                                  R.M     ",
"      p.]                                                                                                                                                                                                                   L.K     ",
"      p.]                                                                                                                                                                                                                   K.K     ",
"      p.]                                                                                                                                                                                                                   K.K     ",
"      p.]                                                               % 6 $       % 6 O       , >       # 6 6 *       $ 6 5 o       5 6 <       . 6 6 6 6 -                                                               K.K     ",
"      p.]                                                               N I.T       Q I.6     X k.2.      z F.1.c.,.%   m Z.w.c.)     S.7.j.u.f   . I.5.>.>.V                                                               K.K     ",
"      p.]                                                               N n.s..   X i.A.6     v g.G.e     z x.  o f.A   m i.  q G.8   S.t   _ o.  . I.7                                                                     K.K     ",
"      p.]                                                               N &.v.a   z X.M.6     o.H ;.!     z x.  X j.C   m i.  a b.@   S.t   ' |   . I.7                                                                     K.K     ",
"      p.]                                                               N O.) (   { n M.6   < b.* V c.+   z n.U <.%.%   m N.:.l.w     S.Q  .t.t   . I.4.:.o.                                                                K.K     ",
"      p.]                                                               N O.g c.= f.O M.6   I -.g k B.B   z m.Y m.j     m h.p ~ r.,   S./ e.R     . I.h 4 2                                                                 K.K     ",
"      p.]                                                               N O.. h.| ~   M.6 . f.o.} } 6.*.  z x.  S z.-   m i.  . r.J   S.t w N.h   . I.7                                                                     K.K     ",
"      p.]                                                               N O.  E I.u   M.6 z t..     w G.4 z x.  . =.}   m d.: l D.b   S.t   J j.= . I.w O O o                                                               K.K     ",
"      p.]                                                               c ^   < n     8.3 E Z         ..Z s :.    3 y.k l a.a.=.P .   r.0   X +.Y . a.a.a.a.(                                                               K.K     ",
"      p.]                                                                                                                                                                                                                   K.K     ",
"      p.]                                                                                                                                                                                                                   K.K     ",
"      p.]                                                                                                                                                                                                                   K.K     ",
"      p.]                                                                                                                                                                                                                   K.K     ",
"      0.#.                                                                                                                                                                                                                  U.G     ",
"      W J.                                                                                                                                                                                                                . ~.y     ",
"      1 /.x                                                                                                                                                                                                               ` E..     ",
"        F (.9.D M M M M M M M M M M M M M M M M M M M M M M M M M M M M M M M M M M M M M M M M M M M M M M M M M M M M M M M M M M M M M M M M M M M M M M M M M M M M M M M M M M M M M M M M M M M M M M M M M M M L C.^.i       ",
"          r 3.Y.T.T.T.T.T.T.T.T.T.T.T.T.T.T.T.T.T.T.T.T.T.T.T.T.T.T.T.T.T.T.T.T.T.T.T.T.T.T.T.T.T.T.T.T.T.T.T.T.T.T.T.T.T.T.T.T.T.T.T.T.T.T.T.T.T.T.T.T.T.T.T.T.T.T.T.T.T.T.T.T.T.T.T.T.T.T.T.T.T.T.T.T.T.T.T.T.T.T.T.P.@.-         ",
"                                                                                                                                                                                                                                    "
};
