/* XPM */
static char *_c9e8042a7b24913ce636913e39353ec[] = {
/* columns rows colors chars-per-pixel */
"110 29 212 2 ",
"   c #16212F",
".  c #172230",
"X  c #182230",
"o  c #182331",
"O  c #192432",
"+  c #1A2533",
"@  c #1B2533",
"#  c #1B2634",
"$  c #1C2735",
"%  c #1D2735",
"&  c #1D2836",
"*  c #1E2937",
"=  c #1F2937",
"-  c #1F2A38",
";  c #202B39",
":  c #212C3A",
">  c #222D3B",
",  c #232D3B",
"<  c #232E3B",
"1  c #232E3C",
"2  c #242E3C",
"3  c #242F3D",
"4  c #25303E",
"5  c #26303E",
"6  c #26313F",
"7  c #283240",
"8  c #293341",
"9  c #293442",
"0  c #2A3443",
"q  c #2B3543",
"w  c #2B3644",
"e  c #2C3644",
"r  c #2C3745",
"t  c #2D3846",
"y  c #2E3847",
"u  c #2E3947",
"i  c #2F3947",
"p  c #2F3A48",
"a  c #303A48",
"s  c #303B49",
"d  c #313B4A",
"f  c #313C4A",
"g  c #323C4B",
"h  c #323D4B",
"j  c #333E4C",
"k  c #343F4D",
"l  c #35404F",
"z  c #36404E",
"x  c #36404F",
"c  c #37424F",
"v  c #374250",
"b  c #374251",
"n  c #384351",
"m  c #384352",
"M  c #394452",
"N  c #394453",
"B  c #3A4552",
"V  c #3A4553",
"C  c #3B4655",
"Z  c #3D4755",
"A  c #3C4756",
"S  c #3D4857",
"D  c #3E4958",
"F  c #3F4A59",
"G  c #404B5B",
"H  c #414C5B",
"J  c #414C5C",
"K  c #424D5C",
"L  c #424D5D",
"P  c #434E5D",
"I  c #434E5E",
"U  c #455060",
"Y  c #455160",
"T  c #465161",
"R  c #465261",
"E  c #475262",
"W  c #485360",
"Q  c #485363",
"!  c #495464",
"~  c #495565",
"^  c #4A5666",
"/  c #4C5868",
"(  c #4D5969",
")  c #4E5A6A",
"_  c #4F5B6B",
"`  c #505A68",
"'  c #515C69",
"]  c #505B6C",
"[  c #525E6F",
"{  c #535E6F",
"}  c #545E6C",
"|  c #535F70",
" . c #55606D",
".. c #546070",
"X. c #546071",
"o. c #556171",
"O. c #556172",
"+. c #566273",
"@. c #576374",
"#. c #576475",
"$. c #596371",
"%. c #5B6573",
"&. c #596576",
"*. c #596677",
"=. c #5C6774",
"-. c #5B6779",
";. c #5C6879",
":. c #5C687A",
">. c #5C697A",
",. c #5D6A7B",
"<. c #5E6A7C",
"1. c #5E6B7C",
"2. c #5E6C7E",
"3. c #5F6D7F",
"4. c #606D7E",
"5. c #616D7F",
"6. c #616E7F",
"7. c #67727F",
"8. c #626E80",
"9. c #626F81",
"0. c #646F82",
"q. c #637081",
"w. c #637082",
"e. c #647083",
"r. c #647184",
"t. c #657284",
"y. c #667386",
"u. c #677486",
"i. c #677487",
"p. c #687587",
"a. c #6E7885",
"s. c #677488",
"d. c #697789",
"f. c #6A768A",
"g. c #6B798C",
"h. c #6D7A8C",
"j. c #6C7A8D",
"k. c #6E7B8D",
"l. c #6D7A8E",
"z. c #6D7B8E",
"x. c #6F7D8F",
"c. c #6F7D90",
"v. c #6F7E91",
"b. c #707D91",
"n. c #717F92",
"m. c #727F94",
"M. c #718092",
"N. c #728093",
"B. c #728193",
"V. c #738194",
"C. c #738295",
"Z. c #748395",
"A. c #7C8693",
"S. c #7D8894",
"D. c #768498",
"F. c #778498",
"G. c #778599",
"H. c #788599",
"J. c #79869A",
"K. c #78879B",
"L. c #7A879B",
"P. c #78889C",
"I. c #79889C",
"U. c #7A889C",
"Y. c #7A899D",
"T. c #7B899D",
"R. c #7A8A9E",
"E. c #7B8B9E",
"W. c #7C8A9F",
"Q. c #7C8B9F",
"!. c #7F8CA2",
"~. c #7E8DA2",
"^. c #7F8EA2",
"/. c #7F8EA3",
"(. c #7F8EA4",
"). c #848E9B",
"_. c #86909D",
"`. c #87919E",
"'. c #808FA3",
"]. c #818FA4",
"[. c #8090A5",
"{. c #8190A5",
"}. c #8291A5",
"|. c #8291A6",
" X c #8A94A1",
".X c #8B96A2",
"XX c #8F9AA6",
"oX c #8493A8",
"OX c #929CA8",
"+X c #949EAB",
"@X c #9BA5B1",
"#X c #9BA6B2",
"$X c #A0ABB7",
"%X c #A4AFBB",
"&X c #A6B0BC",
"*X c #A7B1BD",
"=X c #A9B3BF",
"-X c #ABB5C1",
";X c #ADB7C3",
":X c #AEB8C4",
">X c #B0BAC6",
",X c #B0BBC7",
"<X c #B1BBC8",
"1X c #B5BFCB",
"2X c #BAC4D0",
"3X c #BAC4D1",
"4X c #BCC6D2",
"5X c #BCC6D3",
"6X c #BDC7D3",
"7X c #C1CBD7",
"8X c #C2CCD8",
"9X c #C3CDD9",
/* pixels */
"                                . .   . .                                       . .   . .                           .           . .   . .                                                                                   ",
"       .OX:X,X,X,X,X,X,X,X,X,X,X<X:X:X<X<X:X,X,X,X,X,X,X,X,X,X,X,X,X,X,X,X,X,X,X>X>X>X>X>X>X>X>X>X<X<X<X<X<X<X,X,X,X<X<X,X,X,X,X<X:X:X<X,X,X,X,X,X,X,X,X,X,X,X,X,X,X,X,X,X,X,X,X,X,X,X,X,X,X,X,X,X,X,X,X,X,X,X,X,X#Xa.=     ",
"    _.=X} j p p p p p p p p p p p p p p s p p p p p p p p p p p p p p p p p p p p p p p p p p p u s u u s u u s u u u u u u u u p p p p p p p p p p p p p p p p p p p p p p p p p p p p p p p p p p p p p p p p a E  X;X>   ",
"  ' -X$                                 .                                               .                           . . .   . .                                                                                       S.).  ",
"   X%.                                                                                                                  .                                                                                             7 2X  ",
"  %XZ                                                                                                                                                                                                                   6X3 ",
"  *XM                                                                                                                                                                                                                   2X4 ",
"  *XM                                                                                                                                                                                                                   2X4 ",
"  *XM                                                                   . .             . .   .     . .       .           .                               . . .                                                         2X7 ",
"  *XM                               U z.a       ( g.    X { m.G.d.j   F z.z.z.z.l.l.J E |     3 9.G.C.,.&     >._       X.N         9 z.z.2.H     9.n     . + l.1   . M #.  Z z.l.9.G                                   2X4 ",
"  *XM                               | |.,.    . H.|..   4.k.3 X L !.p & 7 7 4.e.7 7 = #.t.  * U...$ & 2.C..   v.(.h .   y.I         a |.p ( |.w   F.H       + oX7     L s.. Y C.r ~ ].r                                 2X7 ",
"  *XM                               { z.!..   C z.|.. r oXM     . d.s..   . ;.4.X     | t.  | T..   . & |.Y . v.z.M.. . y.L         a (.  X !.b   F.L       + oX7 . . L s.. E n.. . U.U                                 2X4 ",
"  *XM                               { &.F.F . 9.Q |.. Y ^.#       ( U.      ;.4.X     #.e.  d.9.        k.>.. v.M G.... y.I .       p |.L t.,..   F.F .     + oX7     L s.. Q m.3 ] ~.; .                               2X7 ",
"  *XM                               { &.#.0.$ F.4 |.. ( H.        L ^.      ;.4.      @.t.  l.@.        q.q.. v.l M /.r y.I         a |.;.C.#.+   F.L .     + oX7   . L s.  Y ].U.|.7                                   2X4 ",
"  *XM                               { &.y (./ -.1 |.  Z oX6       ,.C..     ;.4.      | t.  8.n.      . E.X.  v.l   1.k.s.I         p |.. . G._   D.L       X ^.s .   ~ 9.  Y v.X z.;.                                  2X7 ",
"  *XM                               { &.. n.^.a 3 |.. + H.(     + G.( .     ;.4.      #.t.  b ].7     l |.9   M.l   - P./.L       . p (.. . k.>.  G.H     . . s.( .   2.Y . Y C.  9 ^.S                                 2X4 ",
"  *XM                               { &.  Y 4.  > |.    n P.4.&.C.9.X       ;.4.      #.t.    { H.&.;.U.E .   v.l     F oXI         p (.p.B.G.r   G.k.q.9.;.. F U.9.t.C.> . Y m.    / U.1                               2X4 ",
"  *XM                               7 9         # b       ; F ! a . .     . 9 q       7 r       r Y L 7       f =       j >         $ M M w       j M b M j .   # G j X   . 3 a   . X n 3                               2X4 ",
"  *XM                                                           X .                     . .         .                                                                                   .                               2X4 ",
"  *XM                                                                                                                                                                                                                   2X7 ",
"  *XM                                                                                                                                                                                                                   2X4 ",
"  *XM                                                                                                                                                                                                                   2X4 ",
"  +X`                                                                                                                                                                                                                 = 9X# ",
"  7.XX                                                                                                                                                                                                                %.#X  ",
"  # -XA.>                                                                                                                                                           . .   . .                                     + %.2Xl   ",
"    < _.7X1X,X,X,X,X,X,X,X,X,X,X,X,X,X,X,X,X,X,X,X,X,X,X,X,X,X,X,X,X,X,X,X,X,X,X,X,X,X,X,X,X,X,X,X,X,X,X,X,X,X,X,X,X,X,X,X,X,X,X,X,X,X,X,X,X,X,X,X,X,X,X,X,X,X<X>X:X<X:X:X<X<X:X,X,X,X,X,X,X,X,X,X,X,X,X,X,X,X,X<X9X$XM     ",
"        . r p a p p p p p p p p p p p p p p p p p p p p p p p p p p p p p p p p p p p p p p p p p p p p p p p p a p p p p p p p p p p p p p p p p p p p p p p p p p p p p p s p p p p p p p p p p p p p p p p p r $         ",
"                                                                                                                                                                . . .                                           .           ",
"                                                                                                                                                                                                                            "
};
