/* XPM */
static char *_14146dc0c7c4fc89ebe1908ba0206af[] = {
/* columns rows colors chars-per-pixel */
"110 29 190 2 ",
"   c #16212F",
".  c #172230",
"X  c #182230",
"o  c #192431",
"O  c #192432",
"+  c #1A2432",
"@  c #1C2634",
"#  c #1C2735",
"$  c #1D2735",
"%  c #1F2936",
"&  c #202A37",
"*  c #212B38",
"=  c #222C39",
"-  c #252E3B",
";  c #26303C",
":  c #27313D",
">  c #28323E",
",  c #2A333F",
"<  c #2A3542",
"1  c #2C3541",
"2  c #2C3745",
"3  c #313A46",
"4  c #333C48",
"5  c #343D49",
"6  c #353E4A",
"7  c #363F4B",
"8  c #38414C",
"9  c #39424D",
"0  c #3A434E",
"q  c #3B444F",
"w  c #3B4653",
"e  c #3C4550",
"r  c #3D4551",
"t  c #3E4652",
"y  c #3F4753",
"u  c #424A55",
"i  c #424B56",
"p  c #414B59",
"a  c #454D59",
"s  c #48505B",
"d  c #49525D",
"f  c #4B535E",
"g  c #4D5560",
"h  c #4D5661",
"j  c #4E5762",
"k  c #4F5763",
"l  c #515964",
"z  c #525B66",
"x  c #535B66",
"c  c #555D68",
"v  c #555E69",
"b  c #58606B",
"n  c #59616C",
"m  c #59626D",
"M  c #5A626D",
"N  c #5B636E",
"B  c #596371",
"V  c #5B6673",
"C  c #5C6570",
"Z  c #5D6875",
"A  c #616974",
"S  c #626A75",
"D  c #646C77",
"F  c #616B79",
"G  c #646D78",
"H  c #656D78",
"J  c #666E79",
"K  c #676F7A",
"L  c #67707B",
"P  c #69727D",
"I  c #6A727D",
"U  c #6B747F",
"Y  c #6B7582",
"T  c #6D7580",
"R  c #6E7681",
"E  c #6E7782",
"W  c #6F7782",
"Q  c #6E7986",
"!  c #707883",
"~  c #707984",
"^  c #727A85",
"/  c #727B86",
"(  c #737B86",
")  c #747C87",
"_  c #747D88",
"`  c #767F8A",
"'  c #777F8A",
"]  c #78808B",
"[  c #78818C",
"{  c #7A828D",
"}  c #78838F",
"|  c #7A838E",
" . c #7B838E",
".. c #798490",
"X. c #7C8590",
"o. c #7F8792",
"O. c #7F8893",
"+. c #808994",
"@. c #828B96",
"#. c #838B96",
"$. c #838C97",
"%. c #808B98",
"&. c #848D98",
"*. c #858E99",
"=. c #868F9A",
"-. c #87909B",
";. c #87929E",
":. c #88919C",
">. c #89929D",
",. c #8A939E",
"<. c #8A94A0",
"1. c #8B95A1",
"2. c #8E96A1",
"3. c #8E97A2",
"4. c #8F98A3",
"5. c #9099A4",
"6. c #919AA5",
"7. c #929BA6",
"8. c #939CA7",
"9. c #929CA8",
"0. c #959EA9",
"q. c #959FAB",
"w. c #969FAB",
"e. c #96A1AD",
"r. c #98A1AC",
"t. c #99A2AD",
"y. c #9AA3AE",
"u. c #9AA4AF",
"i. c #9BA4AF",
"p. c #9AA4B0",
"a. c #9BA6B2",
"s. c #9CA5B0",
"d. c #9CA5B1",
"f. c #9EA8B3",
"g. c #9FA8B3",
"h. c #A0A9B4",
"j. c #A0A9B5",
"k. c #A1AAB5",
"l. c #A1AAB6",
"z. c #A2ABB6",
"x. c #A4ADB8",
"c. c #A5AEBA",
"v. c #A6AFBA",
"b. c #A6B0BB",
"n. c #A7B0BC",
"m. c #A8B1BD",
"M. c #AAB3BE",
"N. c #AAB4BF",
"B. c #ABB4C0",
"V. c #ABB5C0",
"C. c #ACB5C1",
"Z. c #ACB6C1",
"A. c #ADB6C2",
"S. c #AEB7C3",
"D. c #AFB8C3",
"F. c #AFB9C5",
"G. c #B0B9C5",
"H. c #B1BAC6",
"J. c #B2BBC7",
"K. c #B2BCC7",
"L. c #B3BCC8",
"P. c #B3BDC8",
"I. c #B4BECA",
"U. c #B5BFCB",
"Y. c #B6C0CB",
"T. c #B7C0CC",
"R. c #B8C1CD",
"E. c #B8C2CD",
"W. c #B9C2CE",
"Q. c #B9C3CE",
"!. c #B9C3CF",
"~. c #BAC3CF",
"^. c #BAC4D0",
"/. c #BBC4D0",
"(. c #BCC5D1",
"). c #BCC6D3",
"_. c #BDC7D3",
"`. c #BEC8D3",
"'. c #BEC8D4",
"]. c #BFC9D4",
"[. c #BFC9D5",
"{. c #C0CAD5",
"}. c #C2CCD8",
"|. c #C3CDD9",
" X c #C4CEDA",
".X c #C5CFDB",
"XX c #C6D0DC",
"oX c #C7D1DD",
"OX c #C8D2DE",
"+X c #C9D3DF",
/* pixels */
"                                                                                                                                                                                                                            ",
"      2 Y e.a.a.a.a.a.a.a.a.a.a.a.a.a.a.a.a.a.a.a.a.a.a.a.a.a.a.a.a.a.a.a.a.a.a.a.a.a.a.a.a.a.a.a.a.a.a.a.a.a.a.a.a.a.a.a.a.a.a.a.a.a.a.a.a.a.a.a.a.a.a.a.a.a.a.a.a.a.a.a.a.a.a.a.u.a.a.a.a.a.a.a.a.a.a.a.a.a.a.a.| p       ",
"    V +X+X+X+X+X+X+X+X+X+X+X+X+X+X+X+X+X+X+X+X+X+X+X+X+X+X+X+X+X+X+X+X+X+X+X+X+X+X+X+X+X+X+X+X+X+X+X+X+X+X+X+X+X+X+X+X+X+X+X+X+X+X+X+X+X+X+X+X+X+X+X+X+X+X+X+X+X+X+X+X+X+X+X+X+X+X+X+X+X+X+X+X+X+X+X+X+X+X+X+X+XXX+X+Xe..   ",
"  < +X+X+X+X+X+X+X+X+X+X+X+X+X+X+X+X+X+X+X+X+X+X+X+X+X+X+X+X+X+X+X+X+X+X+X+X+X+X+X+X+X+X+X+X+X+X+X+X+X+X+X+X+X+X+X+X+X+X+X+X+X+X+X+X+X+X+X+X+X+X+X+X+X+X+X+X+X+X+X+X+X+X+X+X+X+X+X+X+X+X+X+X+X+X+X+X+X+X+X+X+X+X+X+X+X+XB   ",
"  F +X+X+X+X+X+X+X+X+X+X+X+X+X+X+X+X+X+X+X+X+X+X+X+X+X+X+X+X+X+X+X+X+X+X+X+X+X+X+X+X+X+X+X+X+X+X+X+X+X+X+X+X+X+X+X+X+X+X+X+X+X+X+X+X+X+X+X+X+X+X+X+X+X+X+X+X+X+X+X+X+X+X+X+X+X+X+X+X+X+X+X+X+X+X+X+X+X+X+X+X+X+X+X+X+X+XD.. ",
"  ;.+X+X+X+X+X+X+X+X+X+X+X+X+X+X+X+X+X+X+X+X+X+X+X+X+X+X+X+X+X+X+X+X+X+X+X+X+X+X+X+X+X+X+X+X+X+X+X+X+X+X+X+X+X+X+X+X+X+X+X+X+X+X+X+X+X+X+X+X+X+X+X+X+X+X+X+X+X+X+X+X+X+X+X+X+X+X+X+X+X+X+X+X+X+X+X+X+X+X+X+X+X+X+X+X+X+X+X. ",
"  1.+X+X+X+X+X+X+X+X+X+X+X+X+X+X+X+X+X+X+X+X+X+X+X+X+X+X+X+X+X+X+X+X+X+X+X+X+X+X+X+X+X+X+X+X+X+X+X+X+X+X+X+X+X+X+X+X+X+X+X+X+X+X+X+X+X+X+X+X+X+X+X+X+X+X+X+X+X+X+X+X+X+X+X+X+X+X+X+X+X+X+X+X+X+X+X+X+X+X+X+X+X+X+X+X+X+X+X. ",
"  1.+X+X+X+X+X+X+X+X+X+X+X+X+X+X+X+X+X+X+X+X+X+X+X+X+X+X+X+X+X+X+X+X+X+X+X+X+X+X+X+X+X+X+X+X+X+X+X+X+X+X+X+X+X+X+X+X+X+X+X+X+X+X+X+X+X+X+X+X+X+X+X+X+X+X+X+X+X+X+X+X+X+X+X+X+X+X+X+X+X+X+X+X+X+X+X+X+X+X+X+X+X+X+X+X+X+X+X. ",
"  1.+X+X+X+X+X+X+X+X+X+X+X+X+X+X+X+X+X+X+X+X+X+X+X+X+X+X+X+X+X+X+X+X+X+X+X+X+X+X+X+X+X+X+X+X+X+X+X+X+X+X+X+X+X+X+X+X+X+X+X+X+X+X+X+X+X+X+X+X+X+X+X+X+X+X+X+X+X+X+X+X+X+X+X+X+X+X+X+X+X+X+X+X+X+X+X+X+X+X+X+X+X+X+X+X+X+X+X. ",
"  1.+X+X+X+X+X+X+X+X+X+X+X+X+X+X+X+Xs.n L.+X+X+X9.C +X+X+X>.h i A K.+Xx.n n n n N n z.e.-.+X+X`.R a s ` }.+X+X| 3.+X+X+X*.V.+X+X+X+X~.n n ^ k.+X+XQ V.+X+X+XXXn ].+X+XB.#.+Xn.n n ! k.+X+X+X+X+X+X+X+X+X+X+X+X+X+X+X+X+X+X. ",
"  1.+X+X+X+X+X+X+X+X+X+X+X+X+X+X+X+X>.O | +X+X+Xq $ +X+X^ n (.XXf.1 L.}.!.(.^ U ^.^.}.*.P +X}.9 -. X X` f +X+Xx $ L.+X+XL f.+X+X+X+XU.* T.9.$ !.+Xa k.+X+X+X XX (.+X+Xs.D +Xr.f U.q.$ !.+X+X+X+X+X+X+X+X+X+X+X+X+X+X+X+X+X. ",
"  1.+X+X+X+X+X+X+X+X+X+X+X+X+X+X+X+X>.n 5 XX+Xm.N $ +XU.X Z.+X+X+XA J +X+X+XX.) +X+X+X*.P +X>.6 +X+X+X}.& r.+Xx n h XX+XL f.+X+X+X+XL.* +XXX3 V.+Xa k.+X+X+X X  (.+X+Xf.D +Xi.l +X+Xr s.+X+X+X+X+X+X+X+X+X+X+X+X+X+X+X+X+X. ",
"  1.+X+X+X+X+X+X+X+X+X+X+X+X+X+X+X+X>.o.u x.+XW r.$ +Xi., +X+X+X+X9.9 +X+X+X .) +X+X+X&.P +XJ R +X+X+X+Xb | +Xx m.i ,.+XL f.+X+X+X+XL.& s.T ' +X+Xa k.+X+X+X X  (.+X+Xf.J +Xi.z (.4.6 }.+X+X+X+X+X+X+X+X+X+X+X+X+X+X+X+X+X. ",
"  1.+X+X+X+X+X+X+X+X+X+X+X+X+X+X+X+X>.o.#.U  Xi (.% +X9.i +X+X+X+Xf.> +X+X+X .) +X+X+X&.P +Xn O.+X+X+X+XU W +Xx D.V.- T.L f.+X+X+X+XU.+  .f &. X+Xa j.+X+X+X X  (.+X+Xs.D +Xr.& 9 & (.+X+X+X+X+X+X+X+X+X+X+X+X+X+X+X+X+X+X. ",
"  1.+X+X+X+X+X+X+X+X+X+X+X+X+X+X+X+X>.o.U., 8.X.{.$ +Xx.. (.+X+X+X] f +X+X+X| ) +X+X+X&.P +X^ z +X+X+X+X6 >.+Xx D.+X] v J f.+X+X+X+XU.* +X+Xa 4.+Xa j.+X+X+X+X, L.+X+Xq.! +Xr.z +Xb X.+X+X+X+X+X+X+X+X+X+X+X+X+X+X+X+X+X+X. ",
"  1.+X+X+X+X+X+X+X+X+X+X+X+X+X+X+X+X>.o.+Xh , J.{.$ +XXXr 4.+X+XXXi 3.+X+X+X| ) +X+X+X*.P +XZ.% (.+X+XZ.& !.+Xz S.+X}.9 > f.+X+X+X+XU.* +X+Xx | +Xa j.+X+X+X+XJ 9.+X+X_ u.+Xu.z +X!., x.+X+X+X+X+X+X+X+X+X+X+X+X+X+X+X+X+X. ",
"  1.+X+X+X+X+X+X+X+X+X+X+X+X+X+X+X+X>.O.+Xs.) +X].$ +X+XZ.r ^ $.f ! XX+X+X+X| _ +X+X+X*.P +XXX1.r #.| 7 r.+X+Xx Z.+X+Xx.X s.+X+X+X+XL.O L k u U.+Xa b U U  .+Xk.r ^ P s ].+Xr.z +X+X9.8 ].+X+X+X+X+X+X+X+X+X+X+X+X+X+X+X+X. ",
"  1.+X+X+X+X+X+X+X+X+X+X+X+X+X+X+X+X(.^.+X+X+X+XXXZ.+X+X+X}.x.r.K.+X+X+X+X+X!.T.+X+X+X^.T.+X+X+X!.r.k.(.+X+X+XL. X+X+X+XH.}.+X+X+X+X.XV.N.!.+X+X+XH.Z.Z.Z.H.+X+XXXx.A.+X+X+X].K.+X+XXXA.].+X+X+X+X+X+X+X+X+X+X+X+X+X+X+X+X. ",
"  1.+X+X+X+X+X+X+X+X+X+X+X+X+X+X+X+X+X+X+X+X+X+X+X+X+X+X+X+X+X+X+X+X+X+X+X+X+X+X+X+X+X+X+X+X+X+X+X+X+X+X+X+X+X+X+X+X+X+X+X+X+X+X+X+X+X+X+X+X+X+X+X+X+X+X+X+X+X+X+X+X+X+X+X+X+X+X+X+X+X+XXX+X+X+X+X+X+X+X+X+X+X+X+X+X+X+X+X. ",
"  1.+X+X+X+X+X+X+X+X+X+X+X+X+X+X+X+X+X+X+X+X+X+X+X+X+X+X+X+X+X+X+X+X+X+X+X+X+X+X+X+X+X+X+X+X+X+X+X+X+X+X+X+X+X+X+X+X+X+X+X+X+X+X+X+X+X+X+X+X+X+X+X+X+X+X+X+X+X+X+X+X+X+X+X+X+X+X+X+X+X+X+X+X+X+X+X+X+X+X+X+X+X+X+X+X+X+X+X. ",
"  1.+X+X+X+X+X+X+X+X+X+X+X+X+X+X+X+X+X+X+X+X+X+X+X+X+X+X+X+X+X+X+X+X+X+X+X+X+X+X+X+X+X+X+X+X+X+X+X+X+X+X+X+X+X+X+X+X+X+X+X+X+X+X+X+X+X+X+X+X+X+X+X+X+X+X+X+X+X+X+X+X+X+X+X+X+X+X+X+X+X+X+X+X+X+X+X+X+X+X+X+X+X+X+X+X+X+X+X. ",
"  1.+X+X+X+X+X+X+X+X+X+X+X+X+X+X+X+X+X+X+X+X+X+X+X+X+X+X+X+X+X+X+X+X+X+X+X+X+X+X+X+X+X+X+X+X+X+X+X+X+X+X+X+X+X+X+X+X+X+X+X+X+X+X+X+X+X+X+X+X+X+X+X+X+X+X+X+X+X+X+X+X+X+X+X+X+X+X+X+X+X+X+X+X+X+X+X+X+X+X+X+X+X+X+X+X+X+X+X. ",
"  Q +X+X+X+X+X+X+X+X+X+X+X+X+X+X+X+X+X+X+X+X+X+X+X+X+X+X+X+X+X+X+X+X+X+X+X+X+X+X+X+X+X+X+X+X+X+X+X+X+X+X+X+X+X+X+X+X+X+X+X+X+X+X+X+X+X+X+X+X+X+X+X+X+X+X+X+X+X+X+X+X+X+X+X+X+X+X+X+X+X+X+X+X+X+X+X+X+X+X+X+X+X+X+X+X+X+X).. ",
"  w +X+X+X+X+X+X+X+X+X+X+X+X+X+X+X+X+X+X+X+X+X+X+X+X+X+X+X+X+X+X+X+X+X+X+X+X+X+X+X+X+X+X+X+X+X+X+X+X+X+X+X+X+X+X+X+X+X+X+X+X+X+X+X+X+X+X+X+X+X+X+X+X+X+X+X+X+X+X+X+X+X+X+X+X+X+X+X+X+X+X+X+X+X+X+X+X+X+X+X+X+X+X+X+X+X+X}   ",
"    9.+X+X+X+X+X+X+X+X+X+X+X+X+X+X+X+X+X+X+X+X+X+X+X+X+X+X+X+X+X+X+X+X+X+X+X+X+X+X+X+X+X+X+X+X+X+X+X+X+X+X+X+X+X+X+X+X+X+X+X+X+X+X+X+X+X+X+X+X+X+X+X+X+X+X+X+X+X+X+X+X+X+X+X+X+X+X+X+X+X+X+X+X+X+X+X+X+X+X+X+X+X+X+X+X].+ . ",
"      Z !.+X+X+X+X+X+X+X+X+X+X+X+X+X+X+X+X+X+X+X+X+X+X+X+X+X+X+X+X+X+X+X+X+X+X+X+X+X+X+X+X+X+X+X+X+X+X+X+X+X+X+X+X+X+X+X+X+X+X+X+X+X+X+X+X+X+X+X+X+X+X+X+X+X+X+X+X+X+X+X+X+X+X+X+X+X+X+X+X+X+X+X+X+X+X+X+XXX+X+X+XXX*.+     ",
"          O O O O O O O O O O O O O O O O O O O O O O O O O O O O O O O O O O O . O O . O . O . O O . O O O . O X X + X O . + + O O O O O O O O O O O O O O O O O O O O O O O O O O O O O O O O O . X O O O O . O           ",
"                                                                                  . .   . . . . . .     . .     . . . . .   . .                                                                 .   . .   . .   .           ",
"                                                                                                                        .                                                                       .                           "
};
