/* XPM */
static char *qa4hz_vmucf[] = {
/* columns rows colors chars-per-pixel */
"114 28 163 2 ",
"   c #16212F",
".  c #172230",
"X  c #182230",
"o  c #192431",
"O  c #1A2532",
"+  c #1A2533",
"@  c #1B2634",
"#  c #1C2735",
"$  c #1D2735",
"%  c #1F2936",
"&  c #1E2937",
"*  c #212B38",
"=  c #222D3B",
"-  c #232E3B",
";  c #242D3A",
":  c #252E3B",
">  c #25303D",
",  c #27313D",
"<  c #28323E",
"1  c #2A333F",
"2  c #2B3440",
"3  c #2A3442",
"4  c #2A3542",
"5  c #2A3543",
"6  c #2D3642",
"7  c #2E3743",
"8  c #303945",
"9  c #313A46",
"0  c #323B47",
"q  c #333C48",
"w  c #333D4B",
"e  c #343D49",
"r  c #353E4A",
"t  c #363F4B",
"y  c #35404D",
"u  c #38414C",
"i  c #39424D",
"p  c #3A434E",
"a  c #3B444F",
"s  c #384351",
"d  c #3C4550",
"f  c #3E4652",
"g  c #3F4753",
"h  c #3C4754",
"j  c #404854",
"k  c #424A55",
"l  c #424B56",
"z  c #434C57",
"x  c #474F5A",
"c  c #48505B",
"v  c #48515C",
"b  c #4A525E",
"n  c #4D5661",
"m  c #4C5764",
"M  c #4D5765",
"N  c #4D5865",
"B  c #4E5966",
"V  c #505863",
"C  c #525B66",
"Z  c #555E69",
"A  c #565F6A",
"S  c #575F6A",
"D  c #59626D",
"F  c #5A626D",
"G  c #5B636E",
"H  c #5C646F",
"J  c #5E6671",
"K  c #606873",
"L  c #616974",
"P  c #626B76",
"I  c #646D78",
"U  c #676F7A",
"Y  c #656F7C",
"T  c #67707B",
"R  c #68707B",
"E  c #69717C",
"W  c #6B737E",
"Q  c #6C757F",
"!  c #6E7782",
"~  c #707883",
"^  c #707984",
"/  c #717984",
"(  c #727B86",
")  c #737D8B",
"_  c #757D88",
"`  c #767E89",
"'  c #78808B",
"]  c #7A828D",
"[  c #7A838E",
"{  c #7C8590",
"}  c #7D8590",
"|  c #7F8893",
" . c #808994",
".. c #838B96",
"X. c #848C97",
"o. c #828C99",
"O. c #848D98",
"+. c #858E99",
"@. c #87909B",
"#. c #88919C",
"$. c #8A939E",
"%. c #8B939E",
"&. c #8B949F",
"*. c #8C95A0",
"=. c #9199A5",
"-. c #919AA5",
";. c #929BA6",
":. c #939DA9",
">. c #949CA8",
",. c #969FAA",
"<. c #969FAB",
"1. c #98A1AC",
"2. c #9AA3AE",
"3. c #9AA4AF",
"4. c #9CA5B0",
"5. c #9CA5B1",
"6. c #9DA6B1",
"7. c #9FA8B3",
"8. c #9FA9B6",
"9. c #A0A9B4",
"0. c #A2ABB6",
"q. c #A2ACB7",
"w. c #A2ABB8",
"e. c #A4ADB9",
"r. c #A5AEB9",
"t. c #A6B0BB",
"y. c #A7B0BC",
"u. c #A8B1BD",
"i. c #A9B2BD",
"p. c #AAB3BE",
"a. c #AAB4C0",
"s. c #ABB4C0",
"d. c #AFB9C5",
"f. c #B1BAC6",
"g. c #B2BCC7",
"h. c #B3BCC8",
"j. c #B4BDC9",
"k. c #B6C0CB",
"l. c #B7C0CC",
"z. c #B7C1CC",
"x. c #B7C2CD",
"c. c #B8C1CD",
"v. c #B8C2CD",
"b. c #B9C2CE",
"n. c #B9C3CE",
"m. c #BAC3CF",
"M. c #BAC4D0",
"N. c #BBC5D1",
"B. c #BCC5D1",
"V. c #BDC7D3",
"C. c #BEC8D4",
"Z. c #BFC9D4",
"A. c #C0CAD6",
"S. c #C1CBD7",
"D. c #C1CCD8",
"F. c #C2CCD8",
"G. c #C3CDD9",
"H. c #C4CEDA",
"J. c #C6CFDB",
"K. c #C6D0DC",
"L. c #C7D1DD",
"P. c #C8D2DE",
"I. c #C9D3DF",
/* pixels */
"                                                                                                                                                                                                                                    ",
"                . . . . . . . . . . . . . . . . . . . . . . . . . . . . . . . . . . . . . . . . . . . . . . . . . . . . . . . . . . . . . . . . . . . . . . . . . . . . . . . . . . . . . . . . . . . . . . . . . . .               ",
"          w :.K.I.I.I.I.I.I.I.I.I.I.I.I.I.I.I.I.I.I.I.I.I.I.I.I.I.I.I.I.I.I.I.I.I.I.I.I.I.I.I.I.I.I.I.I.I.I.I.I.I.I.I.I.I.I.I.I.I.I.I.I.I.I.I.I.I.I.I.I.I.I.I.I.I.I.I.I.I.I.I.I.I.I.I.I.I.I.I.I.I.I.I.I.I.I.I.I.I.I.I.V.o.=         ",
"        m I.I.I.I.I.I.I.I.I.I.I.I.I.I.I.I.I.I.I.I.I.I.I.I.I.I.I.I.I.I.I.I.I.I.I.I.I.I.I.I.I.I.I.I.I.I.I.I.I.I.I.I.I.I.I.I.I.I.I.I.I.I.I.I.I.I.I.I.I.I.I.I.I.I.I.I.I.I.I.I.I.I.I.I.I.I.I.I.I.I.I.I.I.I.I.I.I.I.I.I.I.I.I.I.L.3       ",
"      # L.I.I.I.I.I.I.I.I.I.I.I.I.I.I.I.I.I.I.I.I.I.I.I.I.I.I.I.I.I.I.I.I.I.I.I.I.I.I.I.I.I.I.I.I.I.I.I.I.I.I.I.I.I.I.I.I.I.I.I.I.I.I.I.I.I.I.I.I.I.I.I.I.I.I.I.I.I.I.I.I.I.I.I.I.I.I.I.I.I.I.I.I.I.I.I.I.I.I.I.I.I.I.I.I.I.d.      ",
"      s I.I.I.I.I.I.I.I.I.I.I.I.I.I.I.I.I.I.I.I.I.I.I.I.I.I.I.I.I.I.I.I.I.I.I.I.I.I.I.I.I.I.I.I.I.I.I.I.I.I.I.I.I.I.I.I.I.I.I.I.I.I.I.I.I.I.I.I.I.I.I.I.I.I.I.I.I.I.I.I.I.I.I.I.I.I.I.I.I.I.I.I.I.I.I.I.I.I.I.I.I.I.I.I.I.I.I.&     ",
"      N I.I.I.I.I.I.I.I.I.I.I.I.I.I.I.I.I.I.I.I.I.I.I.I.I.I.I.I.I.I.I.I.I.I.I.I.I.I.I.I.I.I.I.I.I.I.I.I.I.I.I.I.I.I.I.I.I.I.I.I.I.I.I.I.I.I.I.I.I.I.I.I.I.I.I.I.I.I.I.I.I.I.I.I.I.I.I.I.I.I.I.I.I.I.I.I.I.I.I.I.I.I.I.I.I.I.I.3     ",
"      B I.I.I.I.I.I.I.I.I.I.I.I.I.I.I.I.I.I.I.I.I.I.I.I.I.I.I.I.I.I.I.I.I.I.I.I.I.I.I.I.I.I.I.I.I.I.I.I.I.I.I.I.I.I.I.I.I.I.I.I.I.I.I.I.I.I.I.I.I.I.I.I.I.I.I.I.I.I.I.I.I.I.I.I.I.I.I.I.I.I.I.I.I.I.I.I.I.I.I.I.I.I.I.I.I.I.I.5     ",
"      B I.I.I.I.I.I.I.I.I.I.I.I.I.I.I.I.I.I.I.I.I.I.I.I.I.I.I.I.I.I.I.I.I.I.I.I.I.I.I.I.I.I.I.I.I.I.I.I.I.I.I.I.I.I.I.I.I.I.I.I.I.I.I.I.I.I.I.I.I.I.I.I.I.I.I.I.I.I.I.I.I.I.I.I.I.I.I.I.I.I.I.I.I.I.I.I.I.I.I.I.I.I.I.I.I.I.I.5     ",
"      B I.I.I.I.I.I.I.I.I.I.I.I.I.I.I.I.I.I.I.I.I.I.I.I.I.I.I.I.I.I.I.I.I.I.I.I.I.I.I.I.I.I.I.I.I.I.I.I.I.I.I.I.I.I.I.I.I.I.I.I.I.I.I.G.G.I.I.I.I.I.I.I.I.I.I.I.I.I.I.I.I.I.I.I.I.I.I.I.I.I.I.I.I.I.I.I.I.I.I.I.I.I.I.I.I.I.I.5     ",
"      B I.I.I.I.I.I.I.I.I.I.I.I.I.I.I.I.I.I.I.I.I.I.I.I.I.I.I.I.I.c.6 j j ` G.I.I.I.l.6 7.I.I.I.] A L.I.I.$.%.I.*.e j a Z ,.P.I.I.h.V c v n f.I.I.W 0 S.I.I.I.C L I.I.I.I.I.I.I.I.I.I.I.I.I.I.I.I.I.I.I.I.I.I.I.I.I.I.I.I.I.I.5     ",
"      B I.I.I.I.I.I.I.I.I.I.I.I.I.I.I.I.I.I.I.I.I.I.I.I.I.I.I.I.I.l.$ I.B.z -.I.I.I.} 7 J I.I.I.(   &.I.I.O.+.I.@.U I.K.u.t =.I.S.8 1.I.I.6.2 Z.I.P * >.I.I.f.* A I.I.I.I.I.I.I.I.I.I.I.I.I.I.I.I.I.I.I.I.I.I.I.I.I.I.I.I.I.I.5     ",
"      B I.I.I.I.I.I.I.I.I.I.I.I.I.I.I.I.I.I.I.I.I.I.I.I.I.I.I.I.I.l.$ I.I.K ..I.I.K.q r.O M.I.I.( ~ : z.I.O.+.I.@.U I.I.I.@.Z I.%.8 P.I.I.P.u X.I.P U A I.I.[ E A I.I.I.I.I.I.I.I.I.I.I.I.I.I.I.I.I.I.I.I.I.I.I.I.I.I.I.I.I.I.5     ",
"      B I.I.I.I.I.I.I.I.I.I.I.I.I.I.I.I.I.I.I.I.I.I.I.I.I.I.I.I.I.l.O i...d z.I.I.5.H I.A X.I.I.( ,._ S P.O.+.I.@.U I.I.I.j.o C.! E I.I.I.I.^ T I.P 3.; m.L.k 2.A I.I.I.I.I.I.I.I.I.I.I.I.I.I.I.I.I.I.I.I.I.I.I.I.I.I.I.I.I.I.5     ",
"      B I.I.I.I.I.I.I.I.I.I.I.I.I.I.I.I.I.I.I.I.I.I.I.I.I.I.I.I.I.l.X U : t.I.I.I.G 3.K.<.p P.I.( ,.F.i ;.O.+.I.@.U I.I.I.h.  V.Q Q I.I.I.I.( I I.P q.U @.q./ 7.A I.I.I.I.I.I.I.I.I.I.I.I.I.I.I.I.I.I.I.I.I.I.I.I.I.I.I.I.I.I.5     ",
"      B I.I.I.I.I.I.I.I.I.I.I.I.I.I.I.I.I.I.I.I.I.I.I.I.I.I.I.I.I.l.$ I.=.l H.I.v.: x x x * r.I.( ,.I.e.< ( +.I.@.U I.I.I.#.9 P.@.e P.I.I.I.f  .I.P q.9.x R p.7.A I.I.I.I.I.I.I.I.I.I.I.I.I.I.I.I.I.I.I.I.I.I.I.I.I.I.I.I.I.I.5     ",
"      B I.I.I.I.I.I.I.I.I.I.I.I.I.I.I.I.I.I.I.I.I.I.I.I.I.I.I.I.I.l.$ I.P.D ( I.| { I.I.I.' U I.( ,.I.I.! o +.I.@.U I.I.l.j ;.I.C.1 0.I.I.u.; N.I.P q.K.6 k P.7.A I.I.I.I.I.I.I.I.I.I.I.I.I.I.I.I.I.I.I.I.I.I.I.I.I.I.I.I.I.I.5     ",
"      B I.I.I.I.I.I.I.I.I.I.I.I.I.I.I.I.I.I.I.I.I.I.I.I.I.I.I.I.I.l.$ I.I.n., 6.r k.I.I.I.g.% Z.( ,.I.I.A.q +.I.@.< x j b 2.P.I.I.s.j D F g y.I.I.P q.I.4.0.I.7.A I.I.I.I.I.I.I.I.I.I.I.I.I.I.I.I.I.I.I.I.I.I.I.I.I.I.I.I.I.I.5     ",
"      B I.I.I.I.I.I.I.I.I.I.I.I.I.I.I.I.I.I.I.I.I.I.I.I.I.I.I.I.I.P.K.I.I.I.K.J.K.I.I.I.I.I.K.P.L.L.I.I.I.L.L.I.L.K.K.P.I.I.I.I.I.I.P.v.b.P.I.I.I.K.P.I.I.I.I.P.K.I.I.I.I.I.I.I.I.I.I.I.I.I.I.I.I.I.I.I.I.I.I.I.I.I.I.I.I.I.I.5     ",
"      B I.I.I.I.I.I.I.I.I.I.I.I.I.I.I.I.I.I.I.I.I.I.I.I.I.I.I.I.I.I.I.I.I.I.I.I.I.I.I.I.I.I.I.I.I.I.I.I.I.I.I.I.I.I.I.I.I.I.I.I.I.I.I.I.I.I.I.I.I.I.I.I.I.I.I.I.I.I.I.I.I.I.I.I.I.I.I.I.I.I.I.I.I.I.I.I.I.I.I.I.I.I.I.I.I.I.I.5     ",
"      B I.I.I.I.I.I.I.I.I.I.I.I.I.I.I.I.I.I.I.I.I.I.I.I.I.I.I.I.I.I.I.I.I.I.I.I.I.I.I.I.I.I.I.I.I.I.I.I.I.I.I.I.I.I.I.I.I.I.I.I.I.I.I.I.I.I.I.I.I.I.I.I.I.I.I.I.I.I.I.I.I.I.I.I.I.I.I.I.I.I.I.I.I.I.I.I.I.I.I.I.I.I.I.I.I.I.I.5     ",
"      B I.I.I.I.I.I.I.I.I.I.I.I.I.I.I.I.I.I.I.I.I.I.I.I.I.I.I.I.I.I.I.I.I.I.I.I.I.I.I.I.I.I.I.I.I.I.I.I.I.I.I.I.I.I.I.I.I.I.I.I.I.I.I.I.I.I.I.I.I.I.I.I.I.I.I.I.I.I.I.I.I.I.I.I.I.I.I.I.I.I.I.I.I.I.I.I.I.I.I.I.I.I.I.I.I.I.I.5     ",
"      M I.I.I.I.I.I.I.I.I.I.I.I.I.I.I.I.I.I.I.I.I.I.I.I.I.I.I.I.I.I.I.I.I.I.I.I.I.I.I.I.I.I.I.I.I.I.I.I.I.I.I.I.I.I.I.I.I.I.I.I.I.I.I.I.I.I.I.I.I.I.I.I.I.I.I.I.I.I.I.I.I.I.I.I.I.I.I.I.I.I.I.I.I.I.I.I.I.I.I.I.I.I.I.I.I.I.I.4     ",
"      y I.I.I.I.I.I.I.I.I.I.I.I.I.I.I.I.I.I.I.I.I.I.I.I.I.I.I.I.I.I.I.I.I.I.I.I.I.I.I.I.I.I.I.I.I.I.I.I.I.I.I.I.I.I.I.I.I.I.I.I.I.I.I.I.I.I.I.I.I.I.I.I.I.I.I.I.I.I.I.I.I.I.I.I.I.I.I.I.I.I.I.I.I.I.I.I.I.I.I.I.I.I.I.I.I.I.I.#     ",
"      + D.I.I.I.I.I.I.I.I.I.I.I.I.I.I.I.I.I.I.I.I.I.I.I.I.I.I.I.I.I.I.I.I.I.I.I.I.I.I.I.I.I.I.I.I.I.I.I.I.I.I.I.I.I.I.I.I.I.I.I.I.I.I.I.I.I.I.I.I.I.I.I.I.I.I.I.I.I.I.I.I.I.I.I.I.I.I.I.I.I.I.I.I.I.I.I.I.I.I.I.I.I.I.I.I.I.w.      ",
"        h I.I.I.I.I.I.I.I.I.I.I.I.I.I.I.I.I.I.I.I.I.I.I.I.I.I.I.I.I.I.I.I.I.I.I.I.I.I.I.I.I.I.I.I.I.I.I.I.I.I.I.I.I.I.I.I.I.I.I.I.I.I.I.I.I.I.I.I.I.I.I.I.I.I.I.I.I.I.I.I.I.I.I.I.I.I.I.I.I.I.I.I.I.I.I.I.I.I.I.I.I.I.I.I.C.-       ",
"          > ) a.x.x.x.x.x.x.x.x.x.x.x.x.x.x.x.x.x.x.x.x.x.x.x.x.x.x.x.x.x.x.x.x.x.x.x.x.x.x.x.x.x.x.x.x.x.x.x.x.x.x.x.x.x.x.x.x.x.x.x.x.x.x.x.x.x.x.x.x.x.x.x.x.x.x.x.x.x.x.x.x.x.x.x.x.x.x.x.x.x.x.x.x.x.x.x.x.x.x.x.8.Y @         ",
"                                                                                                                                                                                                                                    "
};
