/* XPM */
static char *_s0y8_oegf7[] = {
/* columns rows colors chars-per-pixel */
"114 28 186 2 ",
"   c #16212F",
".  c #172230",
"X  c #182230",
"o  c #182331",
"O  c #192432",
"+  c #1A2432",
"@  c #1A2533",
"#  c #1B2533",
"$  c #1B2634",
"%  c #1D2836",
"&  c #1E2937",
"*  c #1F2937",
"=  c #1F2A38",
"-  c #202B39",
";  c #212B39",
":  c #212C3A",
">  c #222D3A",
",  c #232E3B",
"<  c #242E3C",
"1  c #252F3D",
"2  c #26303E",
"3  c #283240",
"4  c #283341",
"5  c #293442",
"6  c #2A3542",
"7  c #2A3443",
"8  c #2B3543",
"9  c #2B3644",
"0  c #2C3644",
"q  c #2C3745",
"w  c #2D3746",
"e  c #2D3846",
"r  c #2E3847",
"t  c #303B49",
"y  c #313C4A",
"u  c #323C4B",
"i  c #333E4C",
"p  c #36414F",
"a  c #384350",
"s  c #394452",
"d  c #3A4553",
"f  c #3B4655",
"g  c #3C4754",
"h  c #3C4756",
"j  c #3D4857",
"k  c #3F4957",
"l  c #3E4958",
"z  c #3F4A59",
"x  c #404B5A",
"c  c #404B5B",
"v  c #424D5D",
"b  c #434E5D",
"n  c #444E5C",
"m  c #444F5E",
"M  c #45505D",
"N  c #45505F",
"B  c #47525F",
"V  c #455060",
"C  c #455160",
"Z  c #465261",
"A  c #475262",
"S  c #4A5562",
"D  c #495464",
"F  c #495565",
"G  c #4A5565",
"H  c #4C5767",
"J  c #4D5869",
"K  c #4D5969",
"L  c #4E5969",
"P  c #505A68",
"I  c #515C69",
"U  c #525C6A",
"Y  c #525D6A",
"T  c #515D6D",
"R  c #515D6E",
"E  c #525E6E",
"W  c #525E6F",
"Q  c #535F70",
"!  c #546070",
"~  c #546071",
"^  c #556172",
"/  c #566273",
"(  c #576374",
")  c #596576",
"_  c #5E6875",
"`  c #5B6778",
"'  c #5B6779",
"]  c #5C687A",
"[  c #5C697A",
"{  c #5E6A7C",
"}  c #5F6B7D",
"|  c #5F6C7D",
" . c #606B78",
".. c #616D7F",
"X. c #646E7C",
"o. c #656F7C",
"O. c #65707D",
"+. c #67717E",
"@. c #67727F",
"#. c #616E80",
"$. c #626E80",
"%. c #626F81",
"&. c #637081",
"*. c #647183",
"=. c #657283",
"-. c #657285",
";. c #667385",
":. c #667386",
">. c #677486",
",. c #687380",
"<. c #687587",
"1. c #687589",
"2. c #6A768A",
"3. c #6A778A",
"4. c #6A788B",
"5. c #6C7A8B",
"6. c #6D7A8C",
"7. c #6C7A8D",
"8. c #6D7A8E",
"9. c #6E7C8E",
"0. c #6E7C8F",
"q. c #6F7D8F",
"w. c #707D91",
"e. c #717F91",
"r. c #727F94",
"t. c #748295",
"y. c #748395",
"u. c #758396",
"i. c #758397",
"p. c #788390",
"a. c #798390",
"s. c #7A8491",
"d. c #7A8592",
"f. c #7F8996",
"g. c #778498",
"h. c #778598",
"j. c #778599",
"k. c #77869A",
"l. c #788599",
"z. c #78879B",
"x. c #7A879B",
"c. c #78889C",
"v. c #79889C",
"b. c #7A889C",
"n. c #7A899D",
"m. c #7B899D",
"M. c #7A8A9E",
"N. c #7B8B9E",
"B. c #7C8A9F",
"V. c #7C8B9F",
"C. c #7D8B9F",
"Z. c #7D8BA0",
"A. c #7E8BA1",
"S. c #7D8DA0",
"D. c #7F8DA1",
"F. c #7E8DA2",
"G. c #7F8EA2",
"H. c #7F8EA3",
"J. c #7F8EA4",
"K. c #838D9A",
"L. c #818FA3",
"P. c #818FA4",
"I. c #8190A5",
"U. c #8291A6",
"Y. c #8392A7",
"T. c #8D97A4",
"R. c #8D98A4",
"E. c #8F99A6",
"W. c #8F9AA6",
"Q. c #8493A8",
"!. c #97A1AE",
"~. c #A1ABB8",
"^. c #A5AFBC",
"/. c #A7B1BE",
"(. c #ACB6C2",
"). c #B3BDC9",
"_. c #B4BECA",
"`. c #B7C1CD",
"'. c #B7C2CE",
"]. c #B9C3CF",
"[. c #BAC4D1",
"{. c #BBC5D1",
"}. c #BCC6D2",
"|. c #C0CAD6",
" X c #C3CDD9",
".X c #C5CFDB",
/* pixels */
"                                                                                                                                                                                                                                    ",
"              $ - - - - - - - - - - - - - - - - - - - - - - - - - - - - - - - - - - - - - - - - - - - - - - - - - - - - - - - - - - - - - - - - - - - - - - - - - - - - - - - - - - - - - - - - - - - - - - - - - - - O             ",
"          _ (..X|.|.|.|.|.|.|.|.|.|.|.|.|.|.|.|.|.|.|.|.|.|.|.|.|.|.|.|.|.|.|.|.|.|.|.|.|.|.|.|.|.|.|.|.|.|.|.|.|.|.|.|.|.|.|.|.|.|.|.|.|.|.|.|.|.|.|.|.|.|.|.|.|.|.|.|.|.|.|.|.|.|.|.|.|.|.|.|.|.|.|.|.|.|.|.|.|.|.|. X~.n         ",
"        p.^.k +                                                                                                                                                                                                       & P `.U       ",
"      p '.,                                                                                                                                                                                                               g [.$     ",
"      o.f.                                                                                                                                                                                                                  /.g     ",
"      s.+.                                                                                                                                                                                                                  E.U     ",
"      d.O.                                                                                                                                                                                                                  R.Y     ",
"      d.O.                                                                                                                                                                                                                  R.Y     ",
"      d.O.                                                                                                                            & *                                                                                   R.Y     ",
"      d.O.                                                        q S.k.k.} *       e S.b       [ 0.o     W E   T B.k.x.q.G .     y e.y.u.r.i     =.C.:       w.2.                                                          R.Y     ",
"      d.O.                                                        e U.  3 h.K       ` A.4.      ..Q.R     / ^   ~ >.  @ f M.L   ; Z.D     N D.<   1.P.H     i P.0.                                                          R.Y     ",
"      d.O.                                                        e U.    3.(     # N.l Y.5     ..%.J.w   / ^   ~ >.      ~ q.  E Z.X     . n./   1.>.0.    ] -.0.                                                          R.Y     ",
"      d.O.                                                        e Y.f ( c.w     V 5.  0./     ..G | 9.. / ^   ~ >.      t U.1 &.-.        $.:.  1.Z L.7 O j.A 0.                                                          R.Y     ",
"      d.O.                                                        e Q.>.J.j       7.Z @ F v.X   ..G = b.J / ^   ~ >.      y Q.2 *.*.        ..<.  1.x >.! x #.b 0.                                                          R.Y     ",
"      d.O.                                                        e U.  L g.%   0 J.i.i.i.P.l   ..G   z G...^   ~ >.      Q V.. ~ B..       z.)   1.x v i.;.d b 0.                                                          R.Y     ",
"      d.O.                                                        e U.  . 8...  ) '       { >.  ..G     &.U.^   ~ >.    e k.J   1 F.c     f L.4   1.x # S.j.. b 0.                                                          R.Y     ",
"      d.O.                                                        e U.    8 H.m m.r       u I.< ..G     > N.^   ~ G.i.k.t.A .     s k.8.6.l.h     1.x   C c   b 0.                                                          R.Y     ",
"      d.O.                                                        . #       @ $ #           # X O o       O o   o # # X             . 0 9 .       @ X         X @                                                           R.Y     ",
"      d.O.                                                                                                                                                                                                                  R.Y     ",
"      d.O.                                                                                                                                                                                                                  R.Y     ",
"      d.O.                                                                                                                                                                                                                  R.Y     ",
"      a.@.                                                                                                                                                                                                                  W.I     ",
"       .K.                                                                                                                                                                                                                  (.a     ",
"      t {.6                                                                                                                                                                                                               B _.O     ",
"        ,.).Y 6 - - - - - - - - - - - - - - - - - - - - - - - - - - - - - - - - - - - - - - - - - - - - - - - - - - - - - - - - - - - - - - - - - - - - - - - - - - - - - - - - - - - - - - - - - - - - - - - - - - - t X.}.M       ",
"          S !.].|.|.|.|.|.|.|.|.|.|.|.|.|.|.|.|.|.|.|.|.|.|.|.|.|.|.|.|.|.|.|.|.|.|.|.|.|.|.|.|.|.|.|.|.|.|.|.|.|.|.|.|.|.|.|.|.|.|.|.|.|.|.|.|.|.|.|.|.|.|.|.|.|.|.|.|.|.|.|.|.|.|.|.|.|.|.|.|.|.|.|.|.|.|.|.|.|.|.|.).T.i         ",
"                                                                                                                                                                                                                                    "
};
