/* XPM */
static char *dbc9a0d6a6064ecab6f970429cd22281[] = {
/* columns rows colors chars-per-pixel */
"110 29 126 2 ",
"   c #16212F",
".  c #172230",
"X  c #182230",
"o  c #182331",
"O  c #1A2432",
"+  c #1A2533",
"@  c #1B2533",
"#  c #1B2634",
"$  c #1C2735",
"%  c #1D2735",
"&  c #202B39",
"*  c #212B39",
"=  c #222D3A",
"-  c #232E3B",
";  c #232E3C",
":  c #242E3C",
">  c #252F3D",
",  c #25303E",
"<  c #26303E",
"1  c #26313F",
"2  c #273140",
"3  c #283240",
"4  c #293341",
"5  c #2A3543",
"6  c #2B3543",
"7  c #2B3644",
"8  c #2D3846",
"9  c #2F3947",
"0  c #2F3A48",
"q  c #303B49",
"w  c #333E4C",
"e  c #343E4D",
"r  c #343F4D",
"t  c #353F4E",
"y  c #394452",
"u  c #394453",
"i  c #3A4553",
"p  c #3B4553",
"a  c #3B4655",
"s  c #3D4857",
"d  c #3E4958",
"f  c #404B5A",
"g  c #424D5D",
"h  c #434E5D",
"j  c #434E5E",
"k  c #444F5E",
"l  c #444F5F",
"z  c #455160",
"x  c #475262",
"c  c #485363",
"v  c #495464",
"b  c #4B5666",
"n  c #4B5767",
"m  c #4C5868",
"M  c #4D5869",
"N  c #4E5A6A",
"B  c #515D6D",
"V  c #545F6C",
"C  c #535F70",
"Z  c #546071",
"A  c #556172",
"S  c #576374",
"D  c #586475",
"F  c #5D6875",
"G  c #5B6778",
"H  c #5C687A",
"J  c #5C697A",
"K  c #5E6B7C",
"L  c #5F6D7F",
"P  c #657285",
"I  c #677487",
"U  c #6C7683",
"Y  c #6E7885",
"T  c #6E7986",
"R  c #677488",
"E  c #697688",
"W  c #6A788B",
"Q  c #6B788B",
"!  c #6D7A8C",
"~  c #6C7A8D",
"^  c #727C89",
"/  c #6F7D90",
"(  c #707D91",
")  c #717F91",
"_  c #707E92",
"`  c #738194",
"'  c #738295",
"]  c #748395",
"[  c #758497",
"{  c #768498",
"}  c #778498",
"|  c #778598",
" . c #77869A",
".. c #788599",
"X. c #79869A",
"o. c #78889C",
"O. c #7B889C",
"+. c #7A899D",
"@. c #7B899D",
"#. c #7D8B9F",
"$. c #7F8EA2",
"%. c #87919E",
"&. c #88929F",
"*. c #808FA3",
"=. c #818FA3",
"-. c #8090A5",
";. c #8190A5",
":. c #8291A6",
">. c #8F99A6",
",. c #909AA7",
"<. c #949EAB",
"1. c #9BA5B1",
"2. c #9BA6B2",
"3. c #9DA8B4",
"4. c #A6B0BC",
"5. c #A7B1BD",
"6. c #AAB4C1",
"7. c #ABB5C1",
"8. c #B4BECA",
"9. c #B5BFCB",
"0. c #B9C3CF",
"q. c #BAC4D0",
"w. c #BBC5D1",
"e. c #C0CAD6",
"r. c #C7D1DD",
"t. c #C9D3DF",
/* pixels */
"                                                                                                                                                                                                                            ",
"                                                                                                                                                                                                                            ",
"    O T 7.t.t.t.t.t.t.t.t.t.t.t.t.t.t.t.t.t.t.t.t.t.t.t.t.t.t.t.t.t.t.t.t.t.t.t.t.t.t.t.t.t.t.t.t.t.t.t.t.t.t.t.t.t.t.t.t.t.t.t.t.t.t.t.t.t.t.t.t.t.t.t.t.t.t.t.t.t.t.t.t.t.t.t.t.t.t.t.t.t.t.t.t.t.t.t.t.t.t.t.t.0.%.1     ",
"  . 2.<.p O                                                                                                                                                                                                       8 ^ 0.6   ",
"  F 3.                                                                                                                                                                                                              . U ,.  ",
"  >.V                                                                                                                                                                                                                 = e.. ",
"  5.i                                                                                                                                                                                                                   q.1 ",
"  5.y                                                                                               t 6                                                                                                                 q.1 ",
"  5.y                                                                                             i / &                                                                                                                 q.1 ",
"  5.y                                                                               . O .         x &         .       .                                                                                                 q.1 ",
"  5.y                                                                             > R [ +.Z   j o.{ { { ; x  . .W B   f W       2 +.j                                                                                   q.1 ",
"  5.y                                                                             S H   O 6   v (       . n ~ O i :.w j `       A $.~                                                                                   q.1 ",
"  5.y                                                                             K E O .     v ( . .   . n ~ . .  .M l ` . . . +.j :.6                                                                                 q.1 ",
"  5.y                                                                             6 ] ` r   . v +.A S p . m ~ & N $.8 l ` . . s (   ! S                                                                                 q.1 ",
"  5.y                                                                               % H $.x . v  .x c t . m $.` H w   j `     I b   x o.. .                                                                             q.1 ",
"  5.y                                                                                   m $.. v /   . . . m ~   . . . z `   1 $...} ..:.s                                                                               q.1 ",
"  5.y                                                                           . = . . a { X c _ . . .   M ~         l ` . C L       H R .                                                                             q.1 ",
"  5.y                                                                             / { P ` j . c $.( / / a n ~         l ` .  .w       0 :.>                                                                             q.1 ",
"  5.y                                                                             . 7 w . .   % > ; ; > @ % &         # & . >           ; X .                                                                           q.1 ",
"  5.y                                                                             .       .                             .               .   . .                                                                         q.1 ",
"  5.y                                                                                                                   .                                                                                               q.1 ",
"  5.y                                                                                                                                                                                                                   q.1 ",
"  4.i                                                                                                                                                                                                                 . q.1 ",
"  >.V                                                                                                                                                                                                                 1 w.. ",
"  F 3.X .                                                                                                                                                                                                             U >.. ",
"    2.<.p X                                                                                                                                                                                                     . 0 ^ 0.6   ",
"    X T 7.t.t.t.t.t.t.t.t.t.t.t.t.t.t.t.t.t.t.t.t.t.t.t.t.t.t.t.t.t.t.t.t.t.t.t.t.t.t.t.t.t.t.t.t.t.t.t.t.t.t.t.t.t.t.t.t.t.t.t.t.t.t.t.t.t.t.t.t.t.t.t.t.t.t.t.t.t.t.t.t.t.t.t.t.t.t.t.t.t.t.t.t.t.t.t.t.t.t.t.t.8.%.3     ",
"                                                                                                                                                                                                                            ",
"                                                                                                                                                                                                                            "
};
