/* XPM */
static char *c2e13a6342d94a95e935674979c537bf[] = {
/* columns rows colors chars-per-pixel */
"110 29 200 2 ",
"   c #16212F",
".  c #172230",
"X  c #182230",
"o  c #182331",
"O  c #1C2634",
"+  c #1D2735",
"@  c #1F2936",
"#  c #1E2937",
"$  c #212B38",
"%  c #212C3A",
"&  c #242D3A",
"*  c #232E3C",
"=  c #25303D",
"-  c #27313D",
";  c #28323E",
":  c #2D3642",
">  c #2E3743",
",  c #2F3844",
"<  c #303945",
"1  c #313A46",
"2  c #333C48",
"3  c #353E4A",
"4  c #35404D",
"5  c #37404C",
"6  c #3A434E",
"7  c #3B444F",
"8  c #3F4753",
"9  c #404854",
"0  c #424B56",
"q  c #434C57",
"w  c #414B59",
"e  c #444D58",
"r  c #454D59",
"t  c #48505B",
"y  c #48515C",
"u  c #49525D",
"i  c #4A525E",
"p  c #4B535E",
"a  c #4C545F",
"s  c #4B5663",
"d  c #4D5560",
"f  c #4D5661",
"g  c #4E5762",
"h  c #4F5763",
"j  c #505863",
"k  c #515964",
"l  c #525A65",
"z  c #505A67",
"x  c #525B66",
"c  c #535B66",
"v  c #555E69",
"b  c #575F6A",
"n  c #59626D",
"m  c #596371",
"M  c #5D6570",
"N  c #5E6671",
"B  c #5F6772",
"V  c #5C6774",
"C  c #5F6873",
"Z  c #616974",
"A  c #626A75",
"S  c #636B76",
"D  c #666E79",
"F  c #676F7A",
"G  c #67707B",
"H  c #65707D",
"J  c #68707B",
"K  c #69717C",
"L  c #69727D",
"P  c #6A727D",
"I  c #6B747F",
"U  c #6D7580",
"Y  c #6E7681",
"T  c #707883",
"R  c #707984",
"E  c #717984",
"W  c #727B86",
"Q  c #737B86",
"!  c #747C87",
"~  c #717B89",
"^  c #717C89",
"/  c #757D88",
"(  c #767E89",
")  c #767F8A",
"_  c #777F8A",
"`  c #78818C",
"'  c #79818C",
"]  c #7A828D",
"[  c #7A838E",
"{  c #7D8590",
"}  c #7D8691",
"|  c #7F8893",
" . c #808994",
".. c #818994",
"X. c #818A95",
"o. c #808A97",
"O. c #838B96",
"+. c #838C97",
"@. c #848C97",
"#. c #808B98",
"$. c #838D99",
"%. c #858E99",
"&. c #848F9B",
"*. c #868F9A",
"=. c #848F9C",
"-. c #87909B",
";. c #86909D",
":. c #88919C",
">. c #89919D",
",. c #89929D",
"<. c #8B939E",
"1. c #8B949F",
"2. c #8B95A1",
"3. c #8C95A0",
"4. c #8D96A1",
"5. c #8E96A1",
"6. c #8F98A3",
"7. c #9099A4",
"8. c #9199A5",
"9. c #919AA5",
"0. c #929BA6",
"q. c #939CA7",
"w. c #949CA8",
"e. c #949DA8",
"r. c #959EA9",
"t. c #969FAA",
"y. c #97A0AB",
"u. c #97A1AF",
"i. c #98A1AC",
"p. c #99A2AD",
"a. c #9AA3AE",
"s. c #9AA4AF",
"d. c #9BA4AF",
"f. c #9CA5B0",
"g. c #9CA5B1",
"h. c #9DA6B1",
"j. c #9DA6B2",
"k. c #9EA7B2",
"l. c #9DA8B3",
"z. c #9EA8B3",
"x. c #9FA8B3",
"c. c #A0A9B4",
"v. c #A1AAB5",
"b. c #A1AAB6",
"n. c #A2ABB6",
"m. c #A4ADB8",
"M. c #A4ADB9",
"N. c #A5AEB9",
"B. c #A5AEBA",
"V. c #A6AFBA",
"C. c #A6B0BB",
"Z. c #A7B0BC",
"A. c #A7B1BC",
"S. c #A8B1BD",
"D. c #A9B2BD",
"F. c #A9B2BE",
"G. c #AAB3BE",
"H. c #AAB4C0",
"J. c #ABB4C0",
"K. c #ABB5C0",
"L. c #ACB5C1",
"P. c #ACB6C1",
"I. c #ADB7C2",
"U. c #AEB7C3",
"Y. c #AFB8C3",
"T. c #AFB8C4",
"R. c #B0B9C5",
"E. c #B0BAC5",
"W. c #B2BBC7",
"Q. c #B2BCC7",
"!. c #B3BCC8",
"~. c #B3BDC8",
"^. c #B5BFCB",
"/. c #B6C0CB",
"(. c #B7C0CC",
"). c #B7C1CC",
"_. c #B8C1CD",
"`. c #B8C2CD",
"'. c #B9C3CE",
"]. c #BAC3CF",
"[. c #BAC4D0",
"{. c #BBC5D1",
"}. c #BCC5D1",
"|. c #BCC6D2",
" X c #BDC7D3",
".X c #BEC8D3",
"XX c #BEC8D4",
"oX c #BFC9D4",
"OX c #BFC9D5",
"+X c #C0CAD5",
"@X c #C0CAD6",
"#X c #C1CBD7",
"$X c #C2CCD8",
"%X c #C3CDD9",
"&X c #C4CEDA",
"*X c #C5CFDB",
"=X c #C6D0DC",
"-X c #C7D1DD",
";X c #C8D2DE",
":X c #C9D3DF",
/* pixels */
"                                                                                                                                                                                                                            ",
"      * m o.&.&.&.&.&.&.&.&.&.&.&.&.&.&.&.&.&.&.&.&.&.&.&.&.&.&.&.&.&.&.&.&.&.&.&.&.&.&.&.&.&.&.&.&.&.&.&.&.&.&.&.&.&.&.&.&.&.&.=.=.&.&.&.&.&.&.&.&.&.&.&.&.&.&.&.&.&.&.&.&.&.&.&.&.&.&.&.&.&.&.&.&.&.&.&.&.&.&.&.L 3 .     ",
"    s :X:X:X:X:X:X:X:X:X:X:X:X:X:X:X:X:X:X:X:X:X:X:X:X:X:X:X:X:X:X:X:X:X:X:X:X:X:X:X:X:X:X:X:X:X:X:X:X:X:X:X:X:X:X:X:X:X:X:X:X:X:X:X:X:X:X:X:X:X:X:X:X:X:X:X:X:X:X:X:X:X:X:X:X:X:X:X:X:X:X:X:X:X:X:X:X:X:X:X:X:X=X:X:X=.    ",
"  = :X:X:X:X:X:X:X:X:X:X:X:X:X:X:X:X:X:X:X:X:X:X:X:X:X:X:X:X:X:X:X:X:X:X:X:X:X:X:X:X:X:X:X:X:X:X:X:X:X:X:X:X:X:X:X:X:X:X:X:X:X:X:X:X:X:X:X:X:X:X:X:X:X:X:X:X:X:X:X:X:X:X:X:X:X:X:X:X:X:X:X:X:X:X:X:X:X:X:X:X:X:X:X:X:X:Xz   ",
"  V :X:X:X:X:X:X:X:X:X:X:X:X:X:X:X:X:X:X:X:X:X:X:X:X:X:X:X:X:X:X:X:X:X:X:X:X:X:X:X:X:X:X:X:X:X:X:X:X:X:X:X:X:X:X:X:X:X:X:X:X:X:X:X:X:X:X:X:X:X:X:X:X:X:X:X:X:X:X:X:X:X:X:X:X:X:X:X:X:X:X:X:X:X:X:X:X:X:X:X:X:X:X:X:X:X:XH.  ",
"  ;.:X:X:X:X:X:X:X:X:X:X:X:X:X:X:X:X:X:X:X:X:X:X:X:X:X:X:X:X:X:X:X:X:X:X:X:X:X:X:X:X:X:X:X:X:X:X:X:X:X:X:X:X:X:X:X:X:X:X:X:X:X:X:X:X:X:X:X:X:X:X:X:X:X:X:X:X:X:X:X:X:X:X:X:X:X:X:X:X:X:X:X:X:X:X:X:X:X:X:X:X:X:X:X:X:X:X:X. ",
"  2.:X:X:X:X:X:X:X:X:X:X:X:X:X:X:X:X:X:X:X:X:X:X:X:X:X:X:X:X:X:X:X:X:X:X:X:X:X:X:X:X:X:X:X:X:X:X:X:X:X:X:X:X:X:X:X:X:X:X:X:X:X:X:X:X:X:X:X:X:X:X:X:X:X:X:X:X:X:X:X:X:X:X:X:X:X:X:X:X:X:X:X:X:X:X:X:X:X:X:X:X:X:X:X:X:X:X:X. ",
"  2.:X:X:X:X:X:X:X:X:X:X:X:X:X:X:X:X:X:X:X:X:X:X:X:X:X:X:X:X:X:X:X:X:X:X:X:X:X:X:X:X:X:X:X:X:X:X:X:X:X:X:X:X:X:X:X:X:X:X:X:X:X:X:X:X:X:X:X:X:X:X:X:X:X:X:X:X:X:X:X:X:X:X:X:X:X:X:X:X:X:X:X:X:X:X:X:X:X:X:X:X:X:X:X:X:X:X:X. ",
"  2.:X:X:X:X:X:X:X:X:X:X:X:X:X:X:X:X:X:X:X:X:X:X:X:X:X:X:X:X:X:X:X:X:X:X:X:X:X:X:X:X:X:X:X:X:X:X:X:X:X:X:X:X:X:X:X:X:X:X:X:X:X:X:X:X:X:X:X:X:X:X:X:X:X:X:X:X:X:X:X:X:X:X:X:X:X:X:X:X:X:X:X:X:X:X:X:X:X:X:X:X:X:X:X:X:X:X:X. ",
"  2.:X:X:X:X:X:X:X:X:X:X:X:X:X:X:XR.T a K +X&.K J J J J K &X] K J J 8.:X( K I r.+X:X:XE K K G a.:X:Xi.N p Y _.:X:XoXo.f Z C.:X:X}.E k h K Z.:X:Xk.Z p K !.:X:XL.K K @.B.:XQ.` :X$XK K D K D.:X:X:X:X:X:X:X:X:X:X:X:X:X:X:X. ",
"  2.:X:X:X:X:X:X:X:X:X:X:X:X:X:X:Xe k.+Xl.+X(.R.R.> r.R.R.:X0 1.E.E.].:X6 q.l.h ' :X:X, i.R.R.}.:X..a R.$Xr.1 ^.:X{ ( +XD.R.:X_.> >.oX_.k.D.:X3.0 L.$Xk.1 L.:Xf.e L.7.O !.C.7 :XoX  G.R.R.+X:X:X:X:X:X:X:X:X:X:X:X:X:X:X:X. ",
"  2.:X:X:X:X:X:X:X:X:X:X:X:X:X:X+X@ _.:X:X:X:X:X:X2 G.:X:X:X0 n.:X:X:X:X6 D.:Xr.p :X:X> L.:X:X:X{.+ B.:X:X:XZ D :Xv 6.:X:X:X:XI k :X:X:X:X:X#X= a.:X:X:XE b :Xf.f :X:Xk :.C.7 :XoX  $X:X:X:X:X:X:X:X:X:X:X:X:X:X:X:X:X:X:X. ",
"  2.:X:X:X:X:X:X:X:X:X:X:X:X:X:X:X! 1 k.:X:X:X:X:X2 G.:X:X:X0 &.V.A.&X:X7 D.^.k @.:X:X> 3.Z.C.:Xc.@ &X:X:X:X3.6 :Xl.& | &X:X:X0 &.:X:X:X:X:XH.. oX:X:X:Xf.@ :Xf.f :X).+ B.C.7 :XoX  n.Z.L.:X:X:X:X:X:X:X:X:X:X:X:X:X:X:X:X. ",
"  2.:X:X:X:X:X:X:X:X:X:X:X:X:X:X:X:X8.; E &X:X:X:X2 L.:X:X:X0 Z ( ( &X:X6 2 O _ :X:X:X> D ( ` :Xq.0 :X:X:X:XB.$ :X:XY.e p ).:X, k.:X:X:X:X=Xn.> :X:X:X:XR.  &Xf.; f k 7.:XC.7 :X X  E ( ;.:X:X:X:X:X:X:X:X:X:X:X:X:X:X:X:X. ",
"  2.:X:X:X:X:X:X:X:X:X:X:X:X:X:X:X:X:X_.7 8.:X:X:X2 G.:X:X:X0 n.:X:X:X:X6 D.f.3 +X:X:X> L.:X:X:XZ.. }.:X:X:X| e :X:X:X*XD N :Xa T :X:X:X:X:X~.  Q.:X:X:X3.1 :Xf.t +X:X:X:XC.6 :XoX  $X:X:X:X:X:X:X:X:X:X:X:X:X:X:X:X:X:X:X. ",
"  2.:X:X:X:X:X:X:X:X:X:X:X:X:X:X:X:X:X:XI &.:X:X:X2 L.:X:X:X0 n.:X:X:X:X6 D.:XJ D :X:X> Y.:X:X:X&X6 r.:X:X:Xp @.:X:X:X:Xf.h :X:.1 $X:X:X:X=X=Xy -.:X:X:Xn ( :Xf.h :X:X:X:XC.7 :X X. $X:X:X:X:X:X:X:X:X:X:X:X:X:X:X:X:X:X:X. ",
"  2.:X:X:X:X:X:X:X:X:X:X:X:X:X:XT.k +.o.3 +X:X:X:X2 G.:X:X:X0 S [ [ ;.:X7 D.:XoX, y.:X, L [ [ 6.:XD.3 { 6.n N *X:Xk ( >.q f.:X*XB 9 o...a :.:XE.6 ' 7.Z k +X:Xf.f :X:X:X:XC.7 :XoX  ` [ [ k.:X:X:X:X:X:X:X:X:X:X:X:X:X:X:Xo ",
"  2.:X:X:X:X:X:X:X:X:X:X:X:X:X:X&XB.3.n.&X:X:X:X:Xm.+X:X:X:XA.n.n.n.Z.:XZ.oX:X:X~.Z.:XM.x.n.x.H.:X:XoXi.2.D.=X:X:XR.r.r.oX:X:X:X:XD.1.i.'.:X:X:X+Xf.<.m.:X:X:X}.G.:X:X:X:X+XB.:X&Xl.n.n.n.Q.:X:X:X:X:X:X:X:X:X:X:X:X:X:X:Xo ",
"  2.:X:X:X:X:X:X:X:X:X:X:X:X:X:X:X:X:X:X:X:X:X:X:X:X:X:X:X:X:X:X=X:X:X:X:X:X:X:X:X:X:X:X:X:X:X:X:X:X:X:X:X:X:X:X:X:X:X:X:X:X:X:X:X:X:X:X:X:X:X:X:X:X:X:X:X:X:X:X:X:X:X:X:X:X:X:X:X:X:X:X=X:X:X:X:X:X:X:X:X:X:X:X:X:X:X:X:X. ",
"  2.:X:X:X:X:X:X:X:X:X:X:X:X:X:X:X:X:X:X:X:X:X:X:X:X:X:X:X:X:X:X:X:X:X:X:X:X:X:X:X:X:X:X:X:X:X:X:X:X:X:X:X:X:X:X:X:X:X:X:X:X:X:X:X:X:X:X:X:X:X:X:X:X:X:X:X:X:X:X:X:X:X:X:X:X:X:X:X:X:X:X:X:X:X:X:X:X:X:X:X:X:X:X:X:X:X:X:X. ",
"  2.:X:X:X:X:X:X:X:X:X:X:X:X:X:X:X:X:X:X:X:X:X:X:X:X:X:X:X:X:X:X:X:X:X:X:X:X:X:X:X:X:X:X:X:X:X:X:X:X:X:X:X:X:X:X:X:X:X:X:X:X:X:X:X:X:X:X:X:X:X:X:X:X:X:X:X:X:X:X:X:X:X:X:X:X:X:X:X:X:X:X:X:X:X:X:X:X:X:X:X:X:X:X:X:X:X:X:X. ",
"  2.:X:X:X:X:X:X:X:X:X:X:X:X:X:X:X:X:X:X:X:X:X:X:X:X:X:X:X:X:X:X:X:X:X:X:X:X:X:X:X:X:X:X:X:X:X:X:X:X:X:X:X:X:X:X:X:X:X:X:X:X:X:X:X:X:X:X:X:X:X:X:X:X:X:X:X:X:X:X:X:X:X:X:X:X:X:X:X:X:X:X:X:X:X:X:X:X:X:X:X:X:X:X:X:X:X:X:X. ",
"  ^ :X:X:X:X:X:X:X:X:X:X:X:X:X:X:X:X:X:X:X:X:X:X:X:X:X:X:X:X:X:X:X:X:X:X:X:X:X:X:X:X:X:X:X:X:X:X:X:X:X:X:X:X:X:X:X:X:X:X:X:X:X:X:X:X:X:X:X:X:X:X:X:X:X:X:X:X:X:X:X:X:X:X:X:X:X:X:X:X:X:X:X:X:X:X:X:X:X:X:X:X:X:X:X:X:X:XOX. ",
"  w :X:X:X:X:X:X:X:X:X:X:X:X:X:X:X:X:X:X:X:X:X:X:X:X:X:X:X:X:X:X:X:X:X:X:X:X:X:X:X:X:X:X:X:X:X:X:X:X:X:X:X:X:X:X:X:X:X:X:X:X:X:X:X:X:X:X:X:X:X:X:X:X:X:X:X:X:X:X:X:X:X:X:X:X:X:X:X:X:X:X:X:X:X:X:X:X:X:X:X:X:X:X:X:X:X:X| . ",
"  . l.:X:X:X:X:X:X:X:X:X:X:X:X:X:X:X:X:X:X:X:X:X:X:X:X:X:X:X:X:X:X:X:X:X:X:X:X:X:X:X:X:X:X:X:X:X:X:X:X:X:X:X:X:X:X:X:X:X:X:X:X:X:X:X:X:X:X:X:X:X:X:X:X:X:X:X:X:X:X:X:X:X:X:X:X:X:X:X:X:X:X:X:X:X:X:X:X:X:X:X:X:X:X:X:X*X#   ",
"    o ~ =X:X:X:X:X:X:X:X:X:X:X:X:X:X:X:X:X:X:X:X:X:X:X:X:X:X:X:X:X:X:X:X:X:X:X:X:X:X:X:X:X:X:X:X:X:X:X:X:X:X:X:X:X:X:X:X:X:X:X:X:X:X:X:X:X:X:X:X:X:X:X:X:X:X:X:X:X:X:X:X:X:X:X:X:X:X:X:X:X:X:X:X:X:X:X:X:X:X:X:X:X:Xu.%     ",
"        . # # # # # # # # # # # # # # # # # # # # # # # # # # # # # # # # # # # # # # # # # # # # # # # # # + # # + # + # + # # # # # # # # # # # # # # # # # # # # # # # # # # # # # # # # # # # # # # # # # # # .         ",
"                                                                .                                         .     .   . . .   . .                                                                                             ",
"                                                                                                                        .                                                                                                   "
};
