/* XPM */
static char *_97399f6147448b2c837e86defd567a7[] = {
/* columns rows colors chars-per-pixel */
"110 29 217 2 ",
"   c #16212F",
".  c #172230",
"X  c #182230",
"o  c #182331",
"O  c #192432",
"+  c #1A2432",
"@  c #1A2533",
"#  c #1B2634",
"$  c #1C2735",
"%  c #1D2735",
"&  c #1D2836",
"*  c #1E2937",
"=  c #1F2937",
"-  c #1F2A38",
";  c #202B39",
":  c #212B39",
">  c #222D3A",
",  c #232D3B",
"<  c #232E3C",
"1  c #242E3C",
"2  c #252F3D",
"3  c #25303E",
"4  c #26303E",
"5  c #26313F",
"6  c #273140",
"7  c #283240",
"8  c #283341",
"9  c #293442",
"0  c #2A3443",
"q  c #2A3543",
"w  c #2B3543",
"e  c #2B3644",
"r  c #2C3644",
"t  c #2C3745",
"y  c #2D3746",
"u  c #2D3846",
"i  c #2E3847",
"p  c #2E3947",
"a  c #313B4A",
"s  c #313C4A",
"d  c #323C4B",
"f  c #323D4B",
"g  c #343E4D",
"h  c #343F4D",
"j  c #353F4E",
"k  c #35404F",
"l  c #36404F",
"z  c #364150",
"x  c #374251",
"c  c #384351",
"v  c #384352",
"b  c #394452",
"n  c #3A4552",
"m  c #3A4553",
"M  c #3B4553",
"N  c #3A4554",
"B  c #3B4655",
"V  c #3D4755",
"C  c #3C4756",
"Z  c #3D4856",
"A  c #3D4857",
"S  c #3E4956",
"D  c #3E4958",
"F  c #3F4A59",
"G  c #404B5B",
"H  c #414C5B",
"J  c #424C5A",
"K  c #434E5B",
"L  c #414C5C",
"P  c #424D5D",
"I  c #434E5D",
"U  c #434E5E",
"Y  c #444F5E",
"T  c #444F5F",
"R  c #45505F",
"E  c #47525F",
"W  c #455060",
"Q  c #455160",
"!  c #465161",
"~  c #465261",
"^  c #475262",
"/  c #485363",
"(  c #495461",
")  c #4B5563",
"_  c #495464",
"`  c #4A5565",
"'  c #4A5666",
"]  c #4B5666",
"[  c #4B5767",
"{  c #4D5765",
"}  c #4C5767",
"|  c #4C5868",
" . c #4D5869",
".. c #4D5969",
"X. c #4E5969",
"o. c #4E5A6A",
"O. c #4F5B6B",
"+. c #505B6C",
"@. c #505C6C",
"#. c #515C6D",
"$. c #515D6D",
"%. c #515D6E",
"&. c #525E6E",
"*. c #535E6F",
"=. c #545F6C",
"-. c #535F70",
";. c #56616E",
":. c #546071",
">. c #556171",
",. c #556172",
"<. c #566273",
"1. c #576374",
"2. c #586475",
"3. c #596576",
"4. c #5E6976",
"5. c #5A6678",
"6. c #5B6778",
"7. c #5C687A",
"8. c #5C697A",
"9. c #5D697B",
"0. c #5D6A7B",
"q. c #5E6B7C",
"w. c #5F6B7D",
"e. c #5F6C7D",
"r. c #5F6D7F",
"t. c #606B78",
"y. c #626C7A",
"u. c #606D7E",
"i. c #616D7F",
"p. c #616E80",
"a. c #626E80",
"s. c #626F81",
"d. c #646F82",
"f. c #637082",
"g. c #647083",
"h. c #647184",
"j. c #657284",
"k. c #657285",
"l. c #667385",
"z. c #667386",
"x. c #677486",
"c. c #677487",
"v. c #6E7885",
"b. c #697688",
"n. c #697789",
"m. c #6A768A",
"M. c #6A778A",
"N. c #6A788B",
"B. c #6B788B",
"V. c #6C798C",
"C. c #6D7A8E",
"Z. c #6E7C8E",
"A. c #6F7D8F",
"S. c #6F7E91",
"D. c #707D91",
"F. c #717F91",
"G. c #707E92",
"H. c #717F92",
"J. c #727F94",
"K. c #78828F",
"L. c #718092",
"P. c #728093",
"I. c #728193",
"U. c #738194",
"Y. c #738295",
"T. c #748295",
"R. c #748395",
"E. c #758396",
"W. c #758497",
"Q. c #7C8693",
"!. c #768498",
"~. c #778498",
"^. c #778598",
"/. c #77869A",
"(. c #788599",
"). c #7A879B",
"_. c #79889C",
"`. c #7B889C",
"'. c #7B899D",
"]. c #7B8B9E",
"[. c #7C8B9F",
"{. c #7D8C9F",
"}. c #7D8BA0",
"|. c #7E8BA1",
" X c #7D8DA0",
".X c #7F8EA2",
"XX c #7F8EA3",
"oX c #848E9B",
"OX c #86919D",
"+X c #88929F",
"@X c #818FA3",
"#X c #818FA4",
"$X c #8190A5",
"%X c #8291A6",
"&X c #8D98A4",
"*X c #8493A8",
"=X c #96A0AD",
"-X c #96A1AD",
";X c #99A3AF",
":X c #A0AAB6",
">X c #A0ABB7",
",X c #A2ACB8",
"<X c #A2ADB9",
"1X c #A3ADBA",
"2X c #A4AEBA",
"3X c #A7B1BD",
"4X c #AEB8C5",
"5X c #B1BBC8",
"6X c #B2BCC8",
"7X c #B3BDC9",
"8X c #B9C3CF",
"9X c #BAC4D0",
"0X c #BAC4D1",
"qX c #BBC5D1",
"wX c #BEC8D4",
"eX c #C1CBD7",
"rX c #C3CDD9",
/* pixels */
"                                                                                                                                                                                                                    .       ",
"      E oX:X<X<X<X<X<X<X<X<X<X<X<X<X<X<X<X<X<X<X<X<X<X<X<X<X<X<X<X<X<X<X<X<X<X<X<X<X<X<X<X<X<X<X<X<X<X<X<X<X<X<X<X<X<X<X<X<X<X<X<X<X<X<X<X<X<X<X<X<X<X<X<X<X<X<X<X<X<X<X<X<X<X<X<X<X<X<X<X<X<X<X<X<X<X<X<X<X<X<X,X&Xt.+     ",
"    K.7Xy.J C S S C S C C S S C C S S S C S C S S C C S C S S C C S C S S C C S C S C B C S C S S C C S C S S C C S C S S C C S C S C C C S C S S C C S C S S C C S C S S C C S C S S C C S C S S C C S C S S C S ;.;X<X%   ",
"  ( 5X;                                                                             .                                                                                                                               . +XQ.  ",
"  OX4.                                                                                                                                                                                                                e 8X. ",
"  2XS                                                                                                                                                                                                                   wX< ",
"  3Xb                                                                                                                                                                                                                   0X3 ",
"  3Xb                                                                                         .                                                                                                                         0X6 ",
"  3Xb                                 .                           . .   . . . . .       . . . .                     . . . . .   . .   .         . .               . .             .                                     0X3 ",
"  3Xb                           . g p.U.j.< ,.j.l.l.l.j.j.% 8.j.j.j.|   q.l.p.' - . . r.j.j.j.^     ' N.T.p.y     < 1.U.b.C     9 q.S.L.j.B   . L b.U.g.s     x j.j.1.C   g w.  - j.j.j.j.B                             9X3 ",
"  3Xb                           . W.L < L > y g k {.' k k . ~.#.g g 0 . '.[ L L.9.    }._ g j 6   2.T.d ; ' .Xy   6.q.1 B g   0 .X%.3 6 ^ B   +.~.x - ^ }.k   Q W.x | *Xa C ).  < *Xb j j >                             0X3 ",
"  3Xb                           < #Xe   . . .     '.b       ~.L         '.B . [ T.    }.l   .   6 %XS       b.x.  Z.| .   . . p.F.          - .X^       p.Z.  E F.. . F.-.C ).  1 *X= .                                 0X6 ",
"  3Xb                             u.[.E           ].b       ~.,.S C $   ~.B p S.1.    }.#.C C   L @X$       | ).. L #X3.% .   W.:.        . b %X<       E XX. T J.. p %XD D ).  3 *XL S x .                             9X5 ",
"  3Xb                             . | .Xp.=       ].b       ~.b.w.w.$   _.}.%Xq..     }.z.u.w.  | ).        G %X. . j W.U.y   }.^         . L .X.       k %X- ^ .XL.F.| . C ).  1 *Xu.w.-.                              9X3 ",
"  3Xb                                 e ).|       ].b       ~.G .       _.B Q '.;     }.l       S %X6       3.~.      $ c.N.  L.p..         a *Xa       %..X  T U.<     . C ).. 3 *X-   .                               qX5 ",
"  3Xb                                   g.,.      ].b       ~.G .       _.B   k.c.+   }.l       $ '.[     . U.,.        ^ F.. -.}.-     . . + T.,.    . N.w.  E L..       C ).. 1 *X-                                   9X5 ",
"  3Xb                           j F.1.3.'.<       '.b       ~.b.7.7.-.  ).B   < {.' . }.j.8.8.| . B ).6.| C.C.%   S.w.%.).^   $ b.).1.2.U.%.  j ).8.| b.F.> . ^ F.      . D ).  1 *Xw.6.6.E                             8X3 ",
"  3Xb                           % D #.G %         D <       C L L L B   C <     a B . D L L L c     1 ^ %.B . . . j ' ' 1       . B +.' 9 .     < ^ %.G o     6 B         < B   $ L L L L d                             0X3 ",
"  3Xb                                                           .       .               . .         . .                                 .                                       .       . .                             9X3 ",
"  3Xb                                                                                               . .                                                                                                                 9X3 ",
"  3Xb                                                                                                                                                                                                                   9X5 ",
"  3Xb                                                                                                                                                                                                                   qX3 ",
"  -X{                                                                                                                                                                                                                 = rXo ",
"  v.+X                                                                                                                                                                                                                ;.:XX ",
"  = 7Xv.+                                                                                                                                                                                                         . ' 0XV   ",
"    9 -XrX3X<X<X<X<X<X<X<X<X<X<X<X<X<X<X<X<X<X<X<X<X<X<X<X<X<X<X<X,X<X<X<X<X<X<X<X<X<X<X<X<X<X<X<X<X<X<X<X<X<X<X<X<X<X<X<X<X<X<X<X<X<X<X<X<X<X<X<X<X<X<X<X<X<X<X<X<X<X<X<X<X<X<X<X<X<X<X<X<X<X<X<X<X<X<X<X<X<X<X<X0X4XK     ",
"        - b C S S C C S C S S C S C C S C S S C S C C S C S S C C C C C C S S C C S S C C S C S C S C S C S C S B S C S S C C S C S S C C S C S C S C S C S C S B S C S S C C S S C C S S C S C S S S S S S B S C 5         ",
"                                                                . .                                                                                                                                             X           ",
"                                                                                                                                                                                                                            "
};
