/* XPM */
static char *_08e165b9d824ae7a990b7265ed87b12[] = {
/* columns rows colors chars-per-pixel */
"124 37 256 2 ",
"   c #374355",
".  c #384456",
"X  c #394557",
"o  c #3A4658",
"O  c #3B4759",
"+  c #3C485A",
"@  c #3D495B",
"#  c #3E4A5C",
"$  c #3F4B5D",
"%  c #3E4B5F",
"&  c #3D4D65",
"*  c #404D5F",
"=  c #414D5F",
"-  c #424E61",
";  c #434F61",
":  c #445062",
">  c #445163",
",  c #435266",
"<  c #455264",
"1  c #465264",
"2  c #465265",
"3  c #445367",
"4  c #485466",
"5  c #495567",
"6  c #425269",
"7  c #445368",
"8  c #43546B",
"9  c #46566B",
"0  c #46576E",
"q  c #4A5668",
"w  c #4A5669",
"e  c #47586F",
"r  c #4B586A",
"t  c #4C586B",
"y  c #4C596B",
"u  c #49596F",
"i  c #4D596C",
"p  c #4E5A6C",
"a  c #4E5A6D",
"s  c #4E5B6D",
"d  c #4F5B6E",
"f  c #505D6F",
"g  c #495970",
"h  c #495A70",
"j  c #4A5A70",
"k  c #4B5B72",
"l  c #4B5C72",
"z  c #4B5C73",
"x  c #4C5C73",
"c  c #4C5D73",
"v  c #4D5D75",
"b  c #4D5E76",
"n  c #4E5F76",
"m  c #515E70",
"M  c #525E71",
"N  c #535F72",
"B  c #536072",
"V  c #536073",
"C  c #546173",
"Z  c #546174",
"A  c #556174",
"S  c #566376",
"D  c #576477",
"F  c #586477",
"G  c #50627A",
"H  c #51627A",
"J  c #52647C",
"K  c #53657D",
"L  c #54667E",
"P  c #55677E",
"I  c #56677F",
"U  c #586578",
"Y  c #596678",
"T  c #596679",
"R  c #5A6779",
"E  c #5B687B",
"W  c #5C697C",
"Q  c #5D6A7D",
"!  c #5E6B7E",
"~  c #5E6C7F",
"^  c #5F6C7F",
"/  c #576880",
"(  c #586980",
")  c #596A81",
"_  c #5A6B81",
"`  c #5B6B82",
"'  c #5B6C83",
"]  c #5F6D80",
"[  c #5C6D83",
"{  c #5D6E84",
"}  c #5E6E84",
"|  c #5F6F85",
" . c #606D81",
".. c #616E81",
"X. c #616E82",
"o. c #616F82",
"O. c #626F82",
"+. c #627083",
"@. c #637083",
"#. c #637184",
"$. c #607086",
"%. c #617186",
"&. c #627187",
"*. c #637287",
"=. c #647184",
"-. c #647185",
";. c #657285",
":. c #667386",
">. c #667387",
",. c #667487",
"<. c #647388",
"1. c #647489",
"2. c #657489",
"3. c #677488",
"4. c #677588",
"5. c #67768A",
"6. c #687589",
"7. c #69768A",
"8. c #69778A",
"9. c #69778B",
"0. c #6A788C",
"q. c #6B788C",
"w. c #6B798C",
"e. c #6B7A8D",
"r. c #6D7A8E",
"t. c #6D7B8F",
"y. c #6E7C8F",
"u. c #6E7C90",
"i. c #6F7C90",
"p. c #6F7D90",
"a. c #707E91",
"s. c #707E92",
"d. c #717F92",
"f. c #727F92",
"g. c #738093",
"h. c #728094",
"j. c #748294",
"k. c #768395",
"l. c #758397",
"z. c #788496",
"x. c #758398",
"c. c #768498",
"v. c #768599",
"b. c #78869A",
"n. c #78869B",
"m. c #78879B",
"M. c #79879B",
"N. c #7D899A",
"B. c #7E8A9B",
"V. c #79889C",
"C. c #7B899D",
"Z. c #7B899E",
"A. c #7B8A9E",
"S. c #7C8B9F",
"D. c #7D8BA0",
"F. c #7E8DA1",
"G. c #7F8DA2",
"H. c #7F8EA3",
"J. c #808C9C",
"K. c #818D9D",
"L. c #828D9E",
"P. c #828E9E",
"I. c #838F9F",
"U. c #808EA3",
"Y. c #808FA4",
"T. c #8590A0",
"R. c #8190A5",
"E. c #8291A6",
"W. c #8392A7",
"Q. c #8893A2",
"!. c #8994A3",
"~. c #8D97A6",
"^. c #8E98A6",
"/. c #8E99A7",
"(. c #8493A8",
"). c #919BA9",
"_. c #929CAA",
"`. c #939DAB",
"'. c #949EAB",
"]. c #969FAC",
"[. c #97A0AD",
"{. c #98A1AE",
"}. c #99A2AF",
"|. c #9AA3AF",
" X c #9BA4B1",
".X c #9DA5B2",
"XX c #9EA6B3",
"oX c #9FA7B3",
"OX c #A0A8B4",
"+X c #A1AAB5",
"@X c #A4ACB7",
"#X c #A5ADB8",
"$X c #A8B0BA",
"%X c #A9B0BB",
"&X c #AAB1BB",
"*X c #ADB4BE",
"=X c #AEB5BF",
"-X c #AFB6C0",
";X c #B1B7C1",
":X c #B1B8C1",
">X c #B4BAC3",
",X c #B5BBC4",
"<X c #B6BCC5",
"1X c #B8BEC6",
"2X c #B8BEC7",
"3X c #B9BFC7",
"4X c #BAC0C8",
"5X c #BCC2CA",
"6X c #BEC3CB",
"7X c #BEC4CB",
"8X c #C0C5CD",
"9X c #C3C8CF",
"0X c #C8CDD3",
"qX c #C9CDD4",
"wX c #C9CED4",
"eX c #CACED5",
"rX c #CBCFD5",
"tX c #CBCFD6",
"yX c #D1D4DA",
"uX c #D2D5DB",
"iX c #D2D6DB",
"pX c #D3D6DC",
"aX c #D7DADF",
"sX c #D8DBDF",
"dX c #D9DCE0",
"fX c #D9DCE1",
"gX c #DADDE1",
"hX c #DCDFE3",
"jX c #DDE0E4",
"kX c #DFE2E5",
"lX c #E0E2E6",
"zX c #E2E4E8",
"xX c #E3E5E9",
"cX c #E5E7EA",
"vX c #E6E8EB",
"bX c #E7E9EC",
"nX c #E8EAEC",
"mX c #E8EAED",
"MX c #E9EBED",
"NX c #EAEBEE",
"BX c #EAECEE",
"VX c #EBEDEF",
"CX c #ECEEF0",
"ZX c #EDEEF0",
"AX c #EEEFF1",
"SX c #EFF0F2",
"DX c #F0F1F3",
"FX c #F1F2F4",
"GX c #F5F5F7",
"HX c #F6F7F8",
"JX c #F7F8F9",
"KX c #F8F9FA",
"LX c #FAFBFB",
"PX c #FBFCFC",
"IX c #FDFEFE",
"UX c gray100",
/* pixels */
"& & & & & & & & & & & & & - & & & & & & & & - & & & & & - & & & & & & & & & & & & & & & & & & & & & & & & & & & & & & & & & & & & & & & & & & & & & & & & & & & & & & & & & & & & & & & & & & & & & & & & & & & & & & & & & & & & & & & & & & & & & & & ",
"& & 8 n G G G G G G G G G H G G G G G G H G H H G G G G H G J H H H H H H H H H G J G G G G G G G G G G G J G G G G G G G b z z c j j k k k k k k k k k k k k k k k k k k k k k c j j x x j c j j x x j k k k k k k k k k k k k z z z z j z z z u > & & ",
"& n K K K K K K L L J L L J J J J L J L K K K K J L J L J L J L J J J J / J J J K K K K / G J J / G / / K K K K / G J J / z z 8 3 3 3 3 3 3 3 3 3 3 3 3 3 3 3 3 3 3 3 3 3 3 3 3 3 3 3 3 6 6 4 3 3 3 6 6 3 3 3 3 3 3 3 3 3 3 3 3 , , , 8 4 , , 8 u G e & ",
"0 K K K K K K K L J L J J L J L L J L J K K K K L J L J L J L J J / J / J J J / K K K K J / / J G / G G K K K K J / / J / z 8                                                                         .                                           % G 8 ",
"G K K K K K K K L J L J L J L J J L J L J L J L J L J L J L J L / G / G J G / G K K K K K K K K / G J J J J K K K K K K / z 8                                                                                                                       u j ",
"J K K K K K K K J L J L J L J L L J L J L J L J L J L J L J L J G / G / J / G / K K K K K K K K / J / J J / K K K K K K G e 0                                                                                                                       , z ",
"J K K K K K K K L J L J L J L J J L J L J L J L J L J L J L J L / G / G / G / G K K K K K K K K J J / J J K K K K K K K K z 8                                                                                                                       > z ",
"J K K K K K K K J L J L J L J L L J L J L J L J L J L J L J L J G / G / G / G / K K K K K K K K J J J J J K K K K K K K K z 0                                                                                                                       6 z ",
"J J L J L J L J L J L J L J L J J L J L J L J L K K K K K K K K / G / G / G / / G / G K K K K K K K K K K K K K K K K K K z 0                                                                                                                       , z ",
"J L J L J L J L J L J L J L J L L J L J L J L J K K K K K K K K G / G / G / G G / G K K K K K K K K K K K K K K K K K K K z 0                                                                                                                       , z ",
"J L L J L J L J L J L J L J L J J L J L J L J L K K K K K K K K / G / G G G G / K K K K J J J J K K K K K K K K K K K K J l 0                                                                                                                       , z ",
"J J J L J L J L J L J L J L J L L J L J L J L J K K K K K K K K G / G / / G / b K K K K J / J J K K K K K K K K K K K K J l 0                                                                                                                       6 z ",
"J J L J L J L J L J L J L J L J J L J L K K K K K K K K K K K K / G / / / / / / K K / / G J J / K K K K K K K K J P P J J c 0 .                                                                                                                     , z ",
"J L J L J L J L J L J L J 2.2.$.L L L J K K K K K K K K K K K K b / { ' / b b / / H.:XG G / J J K K K K K K K K P J J J J c 9                   % @ % .               ,.T                           O O   t X.    q.=       5 d.@                   , z ",
"J J L J L J L J L J L J L PXZXHXvX{.K K K K K K K K K K K K K L / / iX@X/ / b b /  XjX/ J J J J K K K K K K J P J P J P J c 9                   S.S.M.U.B.E         T 7..       .                   h.T   S k.    W.1     @ k.4                     , z ",
"J L J L J L J L J L J L J PXL.L ;XZXL K K K K K K K K K K K K L / b ' / b / / / G  XkX/ / J J / K K K K K J P J P J J P J c 9               . . S.B   . i H.X..     O         @.0.                  O O   S k.    E.3     . .                       , z ",
"J L L J L J L J K K K K K PXL.K ).JX) K ).sXBXiXe.K $.vX^.zXlX).K K 9X{.K P ,XCXwX4XkXK P v.wXkX+XJ J P K K K K K K K K K c 0                   B.Z       ,.E..   w p.j.B . y U.U.b.4 = t.b.v.N     7.B . S v.    E.:   @ ! V.7.=                   6 z ",
"J J J L J L J L K K K K K PX'.].xX2XK K B.g./ iX*XK 5.UXhXQ.{.UX1.J sX#XK !.BXj.g.iXkXK P DXB.1.MXv.P J K K K K K K K K K c 0                   D.Z     . i W.: O H.> = U.@ . ;.q..   * i . S b.    h.E   S k.    E.4   @.3.. @.;.                  > z ",
"J J L J L J L J K K K K K PXBXHXeXK K K K K p.eX0XK 2.UX[ L L nX XK sX#XK 5X7XK K  XkXK P.DX+X+XjX$XJ K K K K K K K K K K c 8                   S.C       5 (.; C V.T T M.B   @.7.        @ F E.    f.T   S c.    E.4 . M.$.T @.M.                  8 z ",
"J L J L J L J L K K K K K PXL.L.LXN.K K ].hX2XiX0XK 2.UX[ L J hX#XK sX#XK jX$XK K  XkXK oXDX*X*X*X/.K K K K K K K K K K K c 9                   S.Z       X.E.. ^ V.^ ^ ^ y . @.7.    % c.7.X.E.    h.T   S c.    W.: . E.;.^ ^ ^                   > z ",
"J J L J L J L J K K K K K PXL.K 2XBX[ / ZXL.K ,XwXK 5.UX$.K L JXe.K sX#XK 4XwXK P 7XkXK %.JXh.J K K K K K K K K K K K K K c 9                   S.C . . @ b.;.. - H.@   .     X.t.    ;.2.  3 W.    j.T   S x.    E.:   0.X.                        > z ",
"J L J L J L J L K K K K K PXL.K ) bX9XK xXyX9XhXBXd.2.UXjX*XhXhXK K sX#XK K.JXrXBXgXkXK P 7XnX=X-X+XK K K K K K K K K K K c 9                   V.p.@.q.S.7..     p.v.! X.N   y U.E = ! B.@.d.U.B   g.E   S x.    E.: . y U.0.T 7.                  > z ",
"J L L J L J L J K K K K K XX7.K K j.OX' 5.#Xk./ %XN.5.UX$.|.OX[ K K ~.j.K K 1.$X!.g.).K K K /.-X Xh.J J K K K K K K K K K c 9                   S K Y f =           Z X.S =     y ^ % . N B . f T   c :   - M     Y @     ; E ! y                   > z ",
"J J J L J L J L K K K K K K J L K K K K K K K K K K 2.UX[ L K K K K K K K K K K K K K K K K K K P K J P K K K K K K K K K c 9                           . .                                                                                         8 z ",
"J J L J L J L J L J L J L J L J K K K K K K K K K K | rX' K K K K K K K K K K K K K K K K K K K K K K K K K K K K K K K K c 9                                                                                                                       > z ",
"J L J L J L J L J L J L J L J L K K K K K K K K K K K K K K K K K K K K K K K K K K K K K K K K K K K K K K K K K K K K K c 9                                                                                                                       > z ",
"J J L J L J L J L J L J L J L J K K K K K K K K K K K K K K K K K K K K K K K K K K K K K K K K K K K K K K K K K K K K K c 9                                                                                                                       8 z ",
"J L J L J L J L J L J L J L J L K K K K K K K K K K K K K K K K K K K K K K K K K K K K K K K K K K K K K K K K K K K K K c 9                                                                                                                       > z ",
"J L L J L J L J L J L J L J L J K K K K K K K K K K K K K K K K K K K K K K K K K K K K K K K K K K K K K K K K K K K K K c 9                                                                                                                       > z ",
"J J J L J L J L J L J L J L J L K K K K K K K K K K K K K K K K K K K K K K K K K K K K K K K K K K K K K K K K K K K K K c 9                                                                                                                       8 z ",
"J J L J L J L J L J L J L J L J K K K K K K K K K K K K K K K K K K K K K K K K K K K K K K K K K K K K K K K K K K K K K c 9                                                                                                                       6 z ",
"J L J L J L J L J L J L J L J L K K K K K K K K K K K K K K K K K K K K K K K K K K K K K K K K K K K K K K K K K K K K K c 9                                                                                                                       > z ",
"H K K K K K K K K K K K K K K K K K K K K K K K K K K K K K K K K K K K K K K K K K K K K K K K K K K K K K K K K K K K K c w                                                                                                                       3 k ",
"G K K K K K K K K K K K K K K K K K K K K K K K K K K K K K K K K K K K K K K K K K K K K K K K K K K K K K K K K K K K K c 9                                                                                                                       u u ",
"u L K K K K K K K K K K K K K K K K K K K K K K K K K K K K K K K K K K K K K K K K K K K K K K K K K K K K K K K K K K L c 9                                                                                                                     % G 6 ",
"& n K K K K K K K K K K K K K K K K K K K K K K K K K K K K K L K K K K K K K K K K K L K K K K K K K K K K K K K K K K K c c 3 3 3 3 3 3 3 3 3 3 3 3 3 3 3 3 3 3 3 3 3 3 3 3 3 3 3 3 3 3 3 3 3 3 3 3 3 3 3 3 3 3 3 3 3 3 3 3 3 3 3 3 3 3 3 3 6 j G u & ",
"& & 6 n G H H H H H H H H H H H H H H H H H H H G H H H H H H H G G G G J G G G H H H H H H H G G H H H H H H H G G G G G n k k k k k k k k k k k k k k k k k k k k k k k k k k k k k k k k k k k k k k k k k k k k k k k k k k k k k k k k k k j 6 & & "
};
