/* XPM */
static char *_abmw_3uzr5[] = {
/* columns rows colors chars-per-pixel */
"85 37 117 2 ",
"   c #374355",
".  c #384456",
"X  c #384457",
"o  c #384557",
"O  c #394557",
"+  c #394558",
"@  c #394658",
"#  c #3A4659",
"$  c #3B485B",
"%  c #3C485A",
"&  c #3C485B",
"*  c #3C495C",
"=  c #3D4A5D",
"-  c #3E4A5C",
";  c #3E4B5D",
":  c #3D4D65",
">  c #3E4D65",
",  c #3E4E66",
"<  c #3F4F66",
"1  c #3F5067",
"2  c #404D5F",
"3  c #414D5F",
"4  c #414D60",
"5  c #414E60",
"6  c #414F63",
"7  c #434F62",
"8  c #435062",
"9  c #445063",
"0  c #445163",
"q  c #425064",
"w  c #405067",
"e  c #415167",
"r  c #455164",
"t  c #455264",
"y  c #445367",
"u  c #475467",
"i  c #485567",
"p  c #415068",
"a  c #425269",
"s  c #43536A",
"d  c #445368",
"f  c #45546B",
"g  c #46556A",
"h  c #47566B",
"j  c #45556C",
"k  c #46556C",
"l  c #46566C",
"z  c #47576C",
"x  c #46566D",
"c  c #4A576A",
"v  c #47586E",
"b  c #48586E",
"n  c #49586E",
"m  c #4C596C",
"M  c #4E5B6D",
"N  c #4E5B6E",
"B  c #4F5D6F",
"V  c #4A5A71",
"C  c #4B5B72",
"Z  c #4B5C72",
"A  c #4C5C73",
"S  c #4D5E74",
"D  c #4D5E75",
"F  c #4E5E75",
"G  c #505D70",
"H  c #515F71",
"J  c #4E6077",
"K  c #4F6077",
"L  c #4F6078",
"P  c #526073",
"I  c #536073",
"U  c #546174",
"Y  c #556275",
"T  c #566476",
"R  c #566477",
"E  c #506279",
"W  c #51627A",
"Q  c #52647B",
"!  c #576578",
"~  c #53657D",
"^  c #586679",
"/  c #5C6A7D",
"(  c #5D6B7E",
")  c #5E6C7F",
"_  c #627083",
"`  c #637184",
"'  c #69788B",
"]  c #6A798C",
"[  c #6C7B8E",
"{  c #6D7B8F",
"}  c #6D7C8F",
"|  c #6D7C90",
" . c #6E7D91",
".. c #6F7E91",
"X. c #707F92",
"o. c #718093",
"O. c #718094",
"+. c #738296",
"@. c #748396",
"#. c #748497",
"$. c #758498",
"%. c #758598",
"&. c #768699",
"*. c #77869A",
"=. c #79899D",
"-. c #7A899D",
";. c #7B8A9E",
":. c #7B8B9E",
">. c #7C8B9F",
",. c #7C8CA0",
"<. c #7E8EA2",
"1. c #8090A4",
"2. c #8190A4",
"3. c #8191A5",
"4. c #8291A5",
"5. c #8292A6",
"6. c #8393A7",
/* pixels */
": : : : : : : : : : : : : : : : : : : : : : : : : : : : : : : : : : : : : : : : : : : : : : : : : : : : : : : : : : : : : : : : : : : : : : : : : : : : : : : : : : : : : ",
": : : a x b b b b b b b b b b b b b b b b b b b b b b b b b b b v f < : : : : : : : : : : : : : : : e k b b b b b b b b b b b b b b b b b b b b b b b b b b b b j w : : : ",
": , D D g y y y y y y y y y y y y y y y y y y y y y y y y y y y d n W s : : : : : : : : : : : : : V L h y y y y y y y y y y y y y y y y y y y y y y y y y y y d z E v : : ",
": C h                                                               * W 1 : : : : : : : : : : : k A X                                                             + J s : ",
"> Q .                                                                 h l : : : : : : : : : : : K =                                                                 6 Z : ",
"p F                                                                   q V : : : : : : : : : : : ~ .                                                                 & K : ",
"e S                                                                   6 V : : : : : : : : : : : ~                                                                   $ L : ",
"e S                                                                   6 V : : : : : : : : : : : ~                                                                   $ L : ",
"e S                                                                   6 V : : : : : : : : : : : ~                                                                   $ L : ",
"e S                                                                   6 V : : : : : : : : : : : ~                                                                   $ L : ",
"e S                                                                   6 V : : : : : : : : : : : ~                                                                   $ L : ",
"e S                   . t i i i i i i i i i i i i %                   6 V : : : : : : : : : : : ~                     8 i i i i i u u u r                           $ L : ",
"e S                   R 6.5.5.5.5.5.5.5.5.5.5.5.6.*.                  6 V : : : : : : : : : : : ~                   u 6.1.6.6.6.6.2.3.6.6.@.4                       $ L : ",
"e S                   ) [                       m <.                  6 V : : : : : : : : : : : ~                   M >.  -.6.6.O.  . >.T [ -.3                     $ L : ",
"e S                   ) [   I | c               m <.                  6 V : : : : : : : : : : : ~                   M >.  -.6.6. .    =.G O [ =.2                   $ L : ",
"e S                   ) [ O 1.6.+.              m <.                  6 V : : : : : : : : : : : ~                   M >.  -.6.6. .    =.G   O { o.                  $ L : ",
"e S                   ) [   } 6.)     5 (       m <.                  6 V : : : : : : : : : : : ~                   M >.  -.6.6.:.! ^ 1.G     - 6.;                 $ L : ",
"e S                   ) [     ; @     | 4.8     m <.                  6 V : : : : : : : : : : : ~                   M >.  H #.#.#.#.#.] #     o 6.7                 $ L : ",
"e S                   ) [     % &.0 B 6.6.X.    m <.                  6 V : : : : : : : : : : : ~                   M >.                      o 6.7                 $ L : ",
"e S                   ) [     ] 6.*.;.6.6.6.P   m <.                  6 V : : : : : : : : : : : ~                   M >.                      o 6.7                 $ L : ",
"e S                   ) [   ! 6.6.6.6.6.6.6.,.% m <.                  6 V : : : : : : : : : : : ~                   M >.  / %.%.%.%.%.%.%.$.P o 6.7                 $ L : ",
"e S                   ) [ . U T T T T T T T T 9 m <.                  6 V : : : : : : : : : : : ~                   M >.  ;.` Y Y Y Y Y Y ' ..o 6.7                 $ L : ",
"e S                   ) %.Y Y Y Y Y Y Y Y Y Y Y _ <.                  6 V : : : : : : : : : : : ~                   M >.  ;.N             ^ ..o 6.7                 $ L : ",
"e S                   ) 6.6.6.6.6.6.6.6.6.6.6.6.6.<.                  6 V : : : : : : : : : : : ~                   M >.  ;.N             ^ ..o 6.7                 $ L : ",
"e S                   ) 6.6.6.6.6.6.6.6.6.6.6.6.6.<.                  6 V : : : : : : : : : : : ~                   M >.  ;.N             ^ ..o 6.7                 $ L : ",
"e S                   R 6.6.6.6.6.6.6.6.6.6.6.6.6.*.                  6 V : : : : : : : : : : : ~                   u 6.4.6.5.4.4.4.4.4.4.5.6.5.5.-                 $ L : ",
"e S                     t i i i i i i i i i i i i %                   6 V : : : : : : : : : : : ~                     8 i i i i i i i i i i i i 3                   $ L : ",
"e S                                                                   6 V : : : : : : : : : : : ~                                                                   $ L : ",
"e S                                                                   6 V : : : : : : : : : : : ~                                                                   $ L : ",
"e S                                                                   6 V : : : : : : : : : : : ~                                                                   $ L : ",
"e S                                                                   6 V : : : : : : : : : : : ~                                                                   $ L : ",
"e S                                                                   6 V : : : : : : : : : : : ~                                                                   $ L : ",
"p F                                                                   q V : : : : : : : : : : : ~ .                                                                 & K : ",
"> Q .                                                                 h l : : : : : : : : : : : K =                                                                 6 Z : ",
": C h                                                               * W 1 : : : : : : : : : : : k A X                                                             + J s : ",
": , D D g y y y y y y y y y y y y y y y y y y y y y y y y y y y d n W s : : : : : : : : : : : : : V L h y y y y y y y y y y y y y y y y y y y y y y y y y y y d z E v : : ",
": : : a x b b b b b b b b b b b b b b b b b b b b b b b b b b b v f < : : : : : : : : : : : : : : : e j b b b b b b b b b b b b b b b b b b b b b b b b b b b b j w : : : "
};
