/* XPM */
static char *_36ee5d1c7a24586c83d8f750830b664[] = {
/* columns rows colors chars-per-pixel */
"124 37 72 1 ",
"  c #374355",
". c #384456",
"X c #3A4759",
"o c #3E4A5C",
"O c #3D4D65",
"+ c #414D5F",
"@ c #404D61",
"# c #445367",
"$ c #495567",
"% c #44536A",
"& c #4A5769",
"* c #47586E",
"= c #48586E",
"- c #505C6F",
"; c #475971",
": c #4B5C72",
"> c #525E71",
", c #4E6078",
"< c #566275",
"1 c #586477",
"2 c #53657D",
"3 c #596679",
"4 c #5C6A7C",
"5 c #576880",
"6 c #5C6C82",
"7 c #616E81",
"8 c #637185",
"9 c #657489",
"0 c #687689",
"q c #6B798D",
"w c #6F7D91",
"e c #727F92",
"r c #748295",
"t c #768498",
"y c #79879A",
"u c #7B899D",
"i c #7E8CA1",
"p c #838F9F",
"a c #808FA4",
"s c #8391A5",
"d c #8994A3",
"f c #8E98A6",
"g c #8493A8",
"h c #939DAA",
"j c #96A0AD",
"k c #98A1AE",
"l c #9CA4B1",
"z c #A2AAB5",
"x c #A6AEB9",
"c c #ACB3BD",
"v c #AFB6C0",
"b c #B4BBC3",
"n c #B8BEC6",
"m c #BDC3CB",
"M c #C2C7CE",
"N c #C6CAD1",
"B c #C9CDD3",
"V c #CCD0D7",
"C c #CFD3D8",
"Z c #D2D5DB",
"A c #D9DCE0",
"S c #DFE2E5",
"D c #E1E3E7",
"F c #E4E7EA",
"G c #E6E8EB",
"H c #E9EBEE",
"J c #EEEFF1",
"K c #EFF0F2",
"L c #F4F4F6",
"P c #F6F6F8",
"I c #F7F8F9",
"U c #FBFCFC",
/* pixels */
"OOOOOOOOOOOOOOOOOOOOOOOOOOOOOOOOOOOOOOOOOOOOOOOOOOOOOOO@OOOOOOOOOOOOOOOOOOOOOOOOOOOOOOOOOOOOOOOOOOOOOOOOOOOOOOOOOOOOOOOOOOOO",
"OO#%=======*=*======:=***==**=****=:=====:=======************,,,,,,,,,,,,,:,,,:,,,,,,,,,,,,,,,,,,,,,,,,,,,,,,,,,,,,,,,,,;OOO",
"O%,*#########################################################222222222222252222255,,,55,2222222222222222222222222222222222;O",
"O2X                                                   . ..   ,2225222222222222225,555,5522222222222222222222222225222222225%",
"**                                                           ,222222222222222222,5,55,5522222222222222222222222222222222222;",
":@                                                           ,2222222222222225225,5,,55,22222222222222222222222222222222225,",
":O                                                           ,2222222222222222225,,55,5,22222222222222222222222222222222222,",
":@                                                           2222222222222222222,555,5,522222222222222222222222222222222222,",
":O                                                           22222222222222222225,52222222222222222222222222222222222222222,",
":@                                                           ,222222222222222222,522222222225222222252222222222222222222522,",
":@                                                           ,222222225222222222225,2222222222222222,5222222222222222252222,",
":@                                                           ,222222222222222222222522222222222222225,5,2222222222222222225,",
":@                                                           >222222222222222222222222222222222222225,555522252222222222222,",
":+           ooX                  o.     :7                  2222222222299952222225ml2522222222222655iv52N9222uZ92222222222,",
":@           siiy<                e4     <t                  ,2522225222JJHIJx2222lN52225222222255Az5jS,2It256St22222222222,",
":@           g&.7u                ..     <r                  ,2222222222Jj22dIv22265522bN222222225655jS55It25555222222222222",
":@           s& >i. >ryw+ Xy-yy>  0<  7uq8t .#qy3            22222222222Jj222mI42uCAj2pJIFuqVFDh22Nj5lS52Ur26cGmq2222222222,",
":@          .s<<y8  %# w7 +gw:<s+ e4 -u##wr .i&Xu#           ,2222222222Jj522gUr4LrrL92mB529i5lF22Az5jS22Ur2mm5bm2222222222,",
":@           suiq     #qq +gX  u< e4 80  <t &p33t4           22222222222Jj222uUrjHzzGj2mN22259lU25Zz5lS22Ur2GmzmG22222222222",
":o           s=&s&  <r7wq ogX  t4 r3 r4  <t 1u747-           ,2222222222Jh222vU2cHcccp,mN259SMbI22Az2jS22Ur5Imccc2222222222,",
":@           s$ 7yXXu$ 7q +sX  s+ w4 7q  9t Xs+              ,2252222222Jj526Gn2rI62222mV22mm5tI22Az2lS52Ur2Bb2222222222222,",
":@           s& Xyq ywqru@+sr6rr  w4 $squrr .0u77<           ,2222222222JZnBJN522CGcbf2iIx9xKnZIj2Az2jS22Ur2iLNxN2222222222,",
":@           1+  $1 +3# 4$+g+<3X  -#  +3:#>   -71@           ,2222222222jlzfr22224hclr22ivq5gj5iz2gr2rg52l822rxcd2222222222,",
":@                    ..  +gX                                222222222225222222222222222222255522222222522222222222222222222",
":@                        XqX                                ,2222222222222222522222222225222222222222222222222522222222222,",
":@                                                           <2222252222222222222222222222222222222222222222222222222225222,",
":O                                                           22222222222222222222222222222222222222222222222222222222222222,",
":@                                                           ,22222222222222222222222222222222222222222222222222222222222222",
":+                                                           22222222222222222222222222222222222222222222222222222222222222,",
":+                                                           ,2222222222222222222222222222222222222222222222222222222222222,",
":O                                                           ,2222222252222222222222222222222222222222225222222222222222222,",
":+                                                           ,2222222222222222222222222522222222222222222222222222222222222,",
":O                                                           ,2222222222222222222222222222222222225,,5,55,5,555,5,555,55222,",
"=%                                                           ,222222222222222222222222222222222225,55,55,5,5,,5555,,55,,222:",
"#,o.                                                         ,22222522222222222222222222222222222222,55,55,55,5,,555,5,5222%",
"O#,=#######%#####%######%####$#%#######################%####%222222,2222222222222222222222222222222222,55,5,55555,,5,55522;O",
"OOO***==*===*===*===*===**==========&===========:**=*========:,,,,,,,,,,,,,,,,,,,,,,,,,,,,,,,,,,,,,,,,,,;,,,,,,,;,,,,,,,:OOO"
};
