/* XPM */
static char *c5foy_dm2af[] = {
/* columns rows colors chars-per-pixel */
"141 37 72 1 ",
"  c #374355",
". c #384456",
"X c #3A4659",
"o c #3C495D",
"O c #3D4D65",
"+ c #404C5E",
"@ c #404E62",
"# c #445367",
"$ c #485567",
"% c #45546B",
"& c #4A576A",
"* c #47586E",
"= c #48586E",
"- c #475971",
"; c #4B5B72",
": c #515E71",
"> c #4F6077",
", c #4E6078",
"< c #546275",
"1 c #53657D",
"2 c #586679",
"3 c #5D6B7E",
"4 c #576980",
"5 c #5A6B82",
"6 c #5F7086",
"7 c #616F82",
"8 c #647285",
"9 c #657489",
"0 c #68778A",
"q c #6B7A8E",
"w c #6F7D91",
"e c #707F92",
"r c #748396",
"t c #77869A",
"y c #78879A",
"u c #7C8A9D",
"i c #7E8EA1",
"p c #808D9F",
"a c #818EA0",
"s c #8393A7",
"d c #8996A6",
"f c #8F9BAA",
"g c #929EAD",
"h c #96A1AF",
"j c #96A1B0",
"k c #9AA4B2",
"l c #9FA9B6",
"z c #A0AAB7",
"x c #A2ABB9",
"c c #AAB3BF",
"v c #ACB5C0",
"b c #AFB8C3",
"n c #B1BAC4",
"m c #B6BEC8",
"M c #BDC4CD",
"N c #C1C7CF",
"B c #C4CAD2",
"V c #C9CED6",
"C c #CED3DA",
"Z c #D1D6DC",
"A c #D4D8DE",
"S c #D6D9E0",
"D c #DADEE3",
"F c #DFE1E6",
"G c #E3E6EA",
"H c #E6E9EC",
"J c #EBEDEF",
"K c #EBEDF1",
"L c #EFF1F3",
"P c #F2F3F5",
"I c #F7F8F9",
"U c #FFFFFF",
/* pixels */
"OOOOOOOOOOOOOOOOOOOOOOOOOOOOOOOOOOOOOOOOOOOOOOOOOOOOOOOOOOOOOOOOOOOOOOOOOOOOOOOO@@OOOO@@OOOO@@OOOO@@OOOO@@@OOO@@OOOO@@@OOO@OOOOOOOO@OOOOOOOOO",
"OOOOOO;,,,,,,,,,,,,,,,,,,,,,,,,,-44--4;--4--;;;;;;;;%OOOOOOOOOOOOOOOO%&===&&====----=%=---%-----=%---=-===--%----=%-%---=-==--%--%---%%@OOOOO",
"OOOO-44411,4111111111111111111114-4444OO%OO%%O%%###&4=OOOOOOOOOOOOOO4%##%%%OO%%%####################@4%##############%##############%%;;OOOOO",
"OOO#4,4,4,411111111111111111111144-44-               4=OOOOOOOOOOOO4o .                              ;o   .                           X-%OOOO",
"OOO-,,4,,4,1,4,411111111111111114-4-44               o4XOOOOOOOOOO%%                                 4X                                X;#OOO",
"OOO444444,414,4,111111111111111144444-                4OOOOOOOOOOO;O                                 ;o                                 4OOOO",
"OOO;4;;4,44,4,4411111111111111114-44-4                ;OOOOOOOOOOO;O                                 4o                                 4OOOO",
"OOO-444444,4,444114444411141111144-44-                4OOOOOOOOOOO;O                                 ;o                                 ;OOOO",
"OOO44-4-4-4444,6jMFHKFmi41411111-44-44               X4OOOOOOOOOOO;O                                 ;O                                 4OOOO",
"OOO-444444-444qCGbiqisBGB611111144444-       5:      X;OOOOOOOOOOO;@               XX               X;o                                 ;OOOO",
"OOO;4-4444444eGCq444444eGC611111-44-44    ..58q<      4OOOOOOOOOOO;@             X8ase&              ;o                                 4OOOO",
"OOO444-4,4-44MV544444444qDz4111144444-    .28.Xq=     ;OOOOOOOOOOO;O            X9a7:ea@             4o                .                ;OOOO",
"OOO444444,4,5Fe444O6ti644jS4111144-44<     +   XO    X;OOOOOOOOOOO;@         .. os5X @d:             ,o        X&...=7qw8:X             4OOOO",
"OOO-4-4O444,eD6444444,i44rK411414;444<    ..         X4OOOOOOOOOOO;@        .8wwesewwwsuwwq$         ,o        Oa=@qsdsssde%            4OOOO",
"OOO44-44,4,4eD944444,4544eK4111144444;    ..         X4OOOOOOOOOOO;@        #adasssssssssss5         ;o        osaasw&@X=8ss:           ;OOOO",
"OOO;44444,4,qFq44-4444444iG4111144;,44               X;OOOOOOOOOOO;@         #5asasssssssw&X         ;o        osss9     .=aaO          4OOOO",
"OOO44444-44;6Dg4-44-11111Mm444;44-4-44                4OOOOOOOOOOO;@          &ayXy5@s$2s9           4X        @ssss=..    :dwX.        ;OOOO",
"OOO,4-4-44444jKi44441415lHi4444444444-                4OOOOOOOOOOO;@          &se y5@d$2s8           ;X        X88887X.     es..        4OOOO",
"OOO,,444444444vKe44-114jLg4;4-;44-4444OO%OOO##OO@@@%OO4 OOOOOOOOOO;@          %se y5+s$2s9           :@           ..        0s@.        4OOOO",
"OOO-4,44-4;4445MV44411eGl:44444444-44-OOOOOOO##O@%@OOO4OOOOOOOOOOO;@          &ayXe7+s#2s8          X;X                     7s&.        ;OOOO",
"OOO-4-4-44O4;449Gs4444vZ44444444444-44  XX           X4OOOOOOOOOOO;@          %se y5@s$4s8           ;@           .         qa@         4OOOO",
"OOO,444444444444mB:44;Fj4-444--44O444-   X           X4XOOOOOOOOOO;@          &dr y7@d#2s9          X;O         #q@.       Xai          4OOOO",
"OOO44-4444444,,4vKxxkzPs4444444444%44%               X4OOOOOOOOOOO;@          %ar y5+d$2s8           :X         :de@       7s7          ;OOOO",
"OOO-44-4-4-4,449GIIUUUUB4-O44-44444444                -OOOOOOOOOOO;@          &dr y7@a#2s8           ;@          qdeX     7deX          4OOOO",
"OOO-4-4411111119DUUUUUUm44-44444-44-44    ..         X4OOOOOOOOOOO;@          &adpsaasaas7           4X          @esaq:=4esa#           1OOOO",
"OOO444-411114119HUUUUUUB44444--444444-     @.  XO    X4OOOOOOOOOOO;+          opsssssssss4           ;O          .X7sssassqX            1OOOO",
"OOO-444414111115NUUUUUUx44444444444444     29.Xw;     -OOOOOOOOOOO;O           X++O+++++o            4X             @:77:@.             1OOOO",
"OOO4-4-411111114cUUUUUIs4-4--4-4-44-4-      59w:      4OOOOOOOOOOO;@                                 ;X                 X.              :OOOO",
"OOO,4-4441111111tMUUIPb9,44,4-444-4444       4;      X4OOOOOOOOOOO;@                                 ;@                                 4OOOO",
"OOO,44,41111111111cULe444,4444-444444:                ;OOOOOOOOOOO;@                                 ;O                                 :OOOO",
"OOO,,44,1111141111144444,44,44444;4,,:               X4OOOOOOOOOOO;@                                 ;X                                 4OOOO",
"OOO-44,4111111111111,4,,4,44-4-44,4444                -OOOOOOOOOOO;@                                 :O                                 4OOOO",
"OOO,4,4,444,411111111111111111111111,,O              X;OOOOOOOOOOO=O                                 ;O                                 1OOOO",
"OOO-,4,44,,4,411111111111111111111114,               @4OOOOOOOOOOO=%                                 :O                               .o:OOOO",
"OOOO4,4,,4,4111411111111141111111111,4 O O   X      X;;OOOOOOOOOOOO4o                               X:X                      .        .;-OOOO",
"OOOO-4,44,4,114,111111111111111111114,OOOOOOO-OO@%%-;;#@OOOOOOOOOOO%:=#%##$%@%%@%###############%%##%;%###########################%##%;;OOOOO",
"OOOOO--4,,,,,,,,,,,,,,,,,,,,,,,,1,,,,,-,;;;-4----;;--OOOOOOOOOOOOOOO@%=========-=======-====&-===-==-==--===&-===-==-&----&-=====-===%#OOOOOO"
};
